M48
;Layer_Color=9474304
;FILE_FORMAT=2:5
INCH,LZ
;TYPE=PLATED
T1F00S00C0.01181
T2F00S00C0.01200
T3F00S00C0.01300
T6F00S00C0.04331
T7F00S00C0.05512
%
T01
X0084252Y006063
X0087795
X0091732
X0095669
Y0064961
X0091732
X0087795
X0084252
X0099606
Y006063
X0190551
X0194488
X0198425
X0202362
X0206299
Y0064961
X0202362
X0198425
X0194488
X0190551
X0245276Y0126378
X0266142
Y0161614
X0262795Y0211614
Y0219488
X0276575Y0221457
Y0211614
X0291339Y0207677
Y0226378
X0245276Y0161614
X012126Y0175591
X0113779
X0077165Y0156693
X0070669Y0156595
X0043898Y0156791
X0055118Y0200787
X0056299Y0214173
Y0224016
X0057874Y0232677
X0046063
X0046457Y0222835
X003248Y0208661
T02
X0049823Y0177063
Y0181787
X0054547
Y0177063
X0059272
Y0181787
X0063996
Y0177063
Y0186512
Y0191236
X0059272
Y0186512
X0054547
Y0191236
X0049823
Y0186512
T03
X0049213Y009941
X0053543
X0058071
X0066929Y0108268
Y0113189
X0062992Y0118504
X0068898Y012126
X0073819Y0125197
X0071653Y0134252
X0074803Y0137795
Y0140945
X0092126Y0125197
X0081102Y0112992
X0077756Y0108268
X0078347Y0100394
X0085039
X0043898Y0130905
X00408Y01359
X0038386Y0139764
X0034547Y0141535
X002815Y0140157
X0016929
X0109055Y0140945
X0113779Y0137795
X0117323Y0134252
X0117717Y0129527
X013189Y0125197
X0136221
X0140551
X0144488Y0120472
X0152362Y0133268
X0164173Y0131299
X0171063Y0141535
X0179Y01347
X01792Y01278
X01883Y01314
X0188779Y0140157
X0195669
X0201575
X0198228Y0135236
Y0132087
X01982Y01277
X0206693Y0133858
X021811Y0133465
X0225394Y0133268
X01883Y01211
X0185039Y01
X0192126
X0152559Y0096063
X0144488Y0099213
X0133858
X0116142Y009941
X0122835Y0107874
X010315Y0120866
X0119685Y0073622
X0122835
X0152559Y0075984
X0225984Y0073228
X0229134
X0255906Y007559
Y0096457
X027441Y0247244
X025315
X022559
X0205512
X0197638Y0241732
X0192126
X0180315Y0241339
Y0246063
X0188779Y0255709
X0192126Y0270866
X0197638
Y0280315
X0192126
X0167126Y0255709
X014685Y0254724
Y0258268
X0147638Y027126
X0129724Y0255709
X0125984Y0248819
Y0244094
X0117717
Y0248819
X0110039Y0255709
X0104331Y027126
X0100787Y023189
X01Y0217717
X010315Y0214567
X0105512Y0195276
X01Y0191339
X0111811Y0189764
X0124016Y019252
X012874
Y0182283
X0129921Y0175984
X0143307Y0177165
X0148425
X0151378Y0164173
X0152362Y015689
X0158268Y0156496
X0165157Y0157874
X01653Y01683
X0181102Y0174803
X0185039Y0177559
Y0197244
X0181102Y0200394
X0176378Y0195669
Y0189764
X0157874Y0196063
X0148622Y0195866
X0152362Y0149016
Y0142126
X0171063Y0145079
X0124803Y0163779
X0105905Y0180709
X0103543Y014685
X0099213Y0149213
Y0143307
X0206299Y0177559
Y019685
X0202756Y0194882
X0197835Y0197835
X0220472Y020374
X0237795Y0202165
X0237795Y0197441
X0238189Y0211614
X0237598Y0178543
X0225394Y0159252
X0197638Y0226378
X0192126
X009685Y0223622
X0093701Y0220472
X0088583Y0223622
X0082284Y0217717
X0067716
X0074803Y0202756
X0085827Y0199606
X0085433Y0185827
X0088583Y0183858
X0090945Y0179921
X0093701Y0176378
X009685Y0185039
X0074724Y018811
X0070669Y0163878
X0083465Y0160236
X0083858Y0149213
X0080315Y0151575
Y014685
Y0143307
X0062992Y0148031
X0096063Y0151575
X0029921Y0154724
X0025984
X0026181Y0172047
X0039173
X0035925Y0163976
Y0195965
X0024803Y019252
X0025984Y0186221
X0014567Y0183071
X0011811Y018937
X0015748Y0193307
X001378Y0202756
X001811
X0025197Y0222441
X0025591Y0232283
Y0240158
Y0248031
Y0255906
Y0263779
Y0271654
X0035433
Y0263779
Y0255906
Y0248031
Y0240158
Y0232283
X003622Y0222835
X0047638Y0213779
Y0207087
X0047244Y0202362
X0055905Y0206299
X0066929Y027126
X0079528Y0307874
Y0320866
Y0332677
T06
X0260591Y0287087
X027059
X0280591
X0233347
X0223346
X0213347
X0185197
X0175197
X0165197
X0155197
X012811
X011811
X010811
X009811
X010876Y0205803
X011876Y0205803
X012876Y0205803
X0138701Y0205803
X0148701
X0070669Y0222657
Y0232658
T07
X0031102Y0075177
X0031102Y0090177
X0079488Y0031102
X0094488
X0109488
X0185787Y0031102
X0200787Y0031102
X0215787
M30
