G04 Layer_Color=8421504*
%FSLAX25Y25*%
%MOIN*%
G70*
G01*
G75*
%ADD10R,0.03937X0.03543*%
%ADD11R,0.08661X0.04134*%
%ADD12R,0.04134X0.03937*%
%ADD13R,0.04331X0.04724*%
%ADD14R,0.06102X0.05118*%
%ADD15R,0.03543X0.03937*%
%ADD16R,0.07480X0.17323*%
%ADD17R,0.06693X0.03937*%
%ADD18R,0.03937X0.06693*%
%ADD19R,0.04134X0.08661*%
%ADD20R,0.03937X0.04134*%
%ADD21R,0.07874X0.07874*%
%ADD22R,0.12992X0.09842*%
%ADD23R,0.05118X0.01772*%
%ADD24R,0.04724X0.04331*%
%ADD25R,0.07874X0.03937*%
%ADD26R,0.11614X0.13780*%
%ADD27R,0.02756X0.02362*%
%ADD28R,0.02362X0.02756*%
%ADD29R,0.03543X0.03150*%
%ADD30R,0.03150X0.03543*%
G04:AMPARAMS|DCode=31|XSize=23.62mil|YSize=78.74mil|CornerRadius=5.91mil|HoleSize=0mil|Usage=FLASHONLY|Rotation=270.000|XOffset=0mil|YOffset=0mil|HoleType=Round|Shape=RoundedRectangle|*
%AMROUNDEDRECTD31*
21,1,0.02362,0.06693,0,0,270.0*
21,1,0.01181,0.07874,0,0,270.0*
1,1,0.01181,-0.03347,-0.00591*
1,1,0.01181,-0.03347,0.00591*
1,1,0.01181,0.03347,0.00591*
1,1,0.01181,0.03347,-0.00591*
%
%ADD31ROUNDEDRECTD31*%
%ADD32R,0.03937X0.01181*%
%ADD33R,0.03937X0.02362*%
%ADD34R,0.03150X0.03150*%
%ADD35R,0.03347X0.03740*%
%ADD36R,0.01968X0.01968*%
%ADD37R,0.01968X0.01968*%
%ADD38R,0.19095X0.19095*%
%ADD40R,0.02756X0.03937*%
%ADD41R,0.03937X0.02756*%
%ADD42R,0.20315X0.09449*%
%ADD43O,0.01772X0.06299*%
%ADD79C,0.01181*%
D10*
X216240Y247244D02*
D03*
X208957D02*
D03*
X235925D02*
D03*
X228642D02*
D03*
X74705Y185827D02*
D03*
X81988D02*
D03*
X212500Y84646D02*
D03*
X219783D02*
D03*
X105610D02*
D03*
X112894Y84646D02*
D03*
X35925Y192520D02*
D03*
X28642D02*
D03*
X263484Y247244D02*
D03*
X256201D02*
D03*
X285138D02*
D03*
X277854D02*
D03*
X206004Y201772D02*
D03*
X213287D02*
D03*
X30020Y200000D02*
D03*
X22736Y200000D02*
D03*
X33366Y219291D02*
D03*
X40650Y219291D02*
D03*
X74724Y199701D02*
D03*
X82008D02*
D03*
X127657Y99410D02*
D03*
X120374D02*
D03*
D11*
X284449Y222342D02*
D03*
Y210728D02*
D03*
D12*
X278445Y216535D02*
D03*
D13*
X74705Y285433D02*
D03*
X67027Y285433D02*
D03*
X74705Y297244D02*
D03*
X67027D02*
D03*
X74705Y309055D02*
D03*
X67027D02*
D03*
X74705Y332677D02*
D03*
X67027D02*
D03*
X167421Y152362D02*
D03*
X174705Y152362D02*
D03*
X74705Y320866D02*
D03*
X67027D02*
D03*
X117421Y159055D02*
D03*
X124705Y159055D02*
D03*
X32382Y130905D02*
D03*
X39665Y130905D02*
D03*
D14*
X240256Y161614D02*
D03*
Y143898D02*
D03*
X271555Y161614D02*
D03*
Y143898D02*
D03*
X240256Y126378D02*
D03*
Y108661D02*
D03*
X271555Y126378D02*
D03*
Y108661D02*
D03*
D15*
X117520Y168405D02*
D03*
X117520Y175689D02*
D03*
X124606Y168405D02*
D03*
X124606Y175689D02*
D03*
X110039Y168405D02*
D03*
Y175689D02*
D03*
X232283Y149114D02*
D03*
Y156398D02*
D03*
X218504Y65650D02*
D03*
X218504Y58366D02*
D03*
X192126Y96949D02*
D03*
X192126Y89665D02*
D03*
X185039Y96949D02*
D03*
Y89665D02*
D03*
X112205Y65650D02*
D03*
Y58366D02*
D03*
X85039Y96949D02*
D03*
Y89665D02*
D03*
X78347Y96949D02*
D03*
Y89665D02*
D03*
X232283Y114469D02*
D03*
X232283Y121752D02*
D03*
X40354Y156791D02*
D03*
Y164075D02*
D03*
X213583Y216240D02*
D03*
X213583Y208957D02*
D03*
X220472Y216240D02*
D03*
Y208957D02*
D03*
X47441Y164075D02*
D03*
Y156791D02*
D03*
X40945Y205807D02*
D03*
Y213090D02*
D03*
X67323Y163878D02*
D03*
Y156595D02*
D03*
X74016Y163878D02*
D03*
Y156595D02*
D03*
X80709Y163878D02*
D03*
Y156595D02*
D03*
D16*
X255906Y86024D02*
D03*
Y51772D02*
D03*
X152559Y86024D02*
D03*
X152559Y51772D02*
D03*
D17*
X227559Y58071D02*
D03*
X227559Y69882D02*
D03*
X202362Y87402D02*
D03*
Y99213D02*
D03*
X121063Y58071D02*
D03*
Y69882D02*
D03*
X96063Y87402D02*
D03*
Y99213D02*
D03*
D18*
X182874Y133661D02*
D03*
X194685D02*
D03*
X213386Y133661D02*
D03*
X201575Y133661D02*
D03*
X131890Y159449D02*
D03*
X143701D02*
D03*
D19*
X46161Y241339D02*
D03*
X57776D02*
D03*
D20*
X51968Y235335D02*
D03*
D21*
X140748Y133858D02*
D03*
X125000Y133858D02*
D03*
X140748Y147638D02*
D03*
X125000D02*
D03*
X174016Y164173D02*
D03*
X158268D02*
D03*
D22*
X53543Y90748D02*
D03*
X53543Y63189D02*
D03*
D23*
X22047Y142717D02*
D03*
X22047Y145276D02*
D03*
X22047Y147835D02*
D03*
X22047Y140157D02*
D03*
Y150394D02*
D03*
D24*
X205709Y208957D02*
D03*
Y216240D02*
D03*
D25*
X216142Y92520D02*
D03*
Y103543D02*
D03*
X109252Y92520D02*
D03*
Y103543D02*
D03*
D26*
X208366Y153347D02*
D03*
X186909D02*
D03*
D27*
X51968Y220472D02*
D03*
Y224409D02*
D03*
Y226772D02*
D03*
Y230709D02*
D03*
Y203150D02*
D03*
Y207087D02*
D03*
Y211811D02*
D03*
Y215748D02*
D03*
D28*
X49606Y226772D02*
D03*
X45669D02*
D03*
D29*
X225394Y149606D02*
D03*
Y155905D02*
D03*
X158268Y137992D02*
D03*
Y131693D02*
D03*
Y152756D02*
D03*
Y146457D02*
D03*
X77756Y250787D02*
D03*
Y257087D02*
D03*
X70866Y250787D02*
D03*
Y257087D02*
D03*
X225394Y114961D02*
D03*
Y121260D02*
D03*
X287795Y193701D02*
D03*
Y187402D02*
D03*
X279921Y193701D02*
D03*
Y187402D02*
D03*
X187992Y209449D02*
D03*
Y215748D02*
D03*
X84646Y257087D02*
D03*
Y250787D02*
D03*
X195866Y215748D02*
D03*
Y209449D02*
D03*
X238189Y271260D02*
D03*
Y277559D02*
D03*
X175197Y271260D02*
D03*
Y277559D02*
D03*
X185039Y271260D02*
D03*
Y277559D02*
D03*
X155512Y271260D02*
D03*
X155512Y277559D02*
D03*
X208661Y271260D02*
D03*
Y277559D02*
D03*
X127953D02*
D03*
Y271260D02*
D03*
X108268Y277559D02*
D03*
Y271260D02*
D03*
X98425Y277559D02*
D03*
Y271260D02*
D03*
X118110Y277559D02*
D03*
Y271260D02*
D03*
X228346D02*
D03*
Y277559D02*
D03*
X285433Y277559D02*
D03*
Y271260D02*
D03*
X275590Y277559D02*
D03*
Y271260D02*
D03*
X255906Y277559D02*
D03*
Y271260D02*
D03*
X265748Y277559D02*
D03*
Y271260D02*
D03*
X218504Y271260D02*
D03*
Y277559D02*
D03*
X165354Y271260D02*
D03*
X165354Y277559D02*
D03*
X88583Y125197D02*
D03*
Y118898D02*
D03*
X78740Y125197D02*
D03*
Y118898D02*
D03*
X180118Y113386D02*
D03*
Y107087D02*
D03*
X172244Y113386D02*
D03*
Y107087D02*
D03*
X127953Y85827D02*
D03*
Y79528D02*
D03*
X121063Y79331D02*
D03*
Y85630D02*
D03*
D30*
X176181Y131299D02*
D03*
X169882D02*
D03*
X120866Y93504D02*
D03*
X127165D02*
D03*
D31*
X231496Y216339D02*
D03*
X231496Y211614D02*
D03*
X231496Y206890D02*
D03*
X231496Y202165D02*
D03*
X231496Y197441D02*
D03*
Y192717D02*
D03*
Y187992D02*
D03*
X231496Y183268D02*
D03*
X231496Y178543D02*
D03*
X269291D02*
D03*
Y183268D02*
D03*
Y187992D02*
D03*
Y192717D02*
D03*
Y197441D02*
D03*
Y202165D02*
D03*
Y206890D02*
D03*
Y211614D02*
D03*
Y216339D02*
D03*
D32*
X37598Y148622D02*
D03*
Y146653D02*
D03*
Y144685D02*
D03*
X31299Y144685D02*
D03*
X31299Y146653D02*
D03*
X31299Y148622D02*
D03*
D33*
X176476Y141535D02*
D03*
X176476Y137795D02*
D03*
X165650D02*
D03*
Y141535D02*
D03*
Y145276D02*
D03*
X176575Y145276D02*
D03*
D34*
X35433Y172047D02*
D03*
X29528D02*
D03*
X35236Y186221D02*
D03*
X29331D02*
D03*
D35*
X28642Y206201D02*
D03*
X24114Y206201D02*
D03*
X24114Y211910D02*
D03*
X28642Y211910D02*
D03*
D36*
X51968Y209448D02*
D03*
X55905D02*
D03*
X51968Y218110D02*
D03*
X55905D02*
D03*
D37*
X57874Y202362D02*
D03*
Y206299D02*
D03*
D38*
X56910Y184150D02*
D03*
D40*
X281496Y263189D02*
D03*
X285236Y254921D02*
D03*
X277756D02*
D03*
X259842Y263189D02*
D03*
X263583Y254921D02*
D03*
X256102D02*
D03*
X228543Y254921D02*
D03*
X236024Y254921D02*
D03*
X232283Y263189D02*
D03*
X208858Y254921D02*
D03*
X216339D02*
D03*
X212598Y263189D02*
D03*
X99410Y116929D02*
D03*
X95669Y125197D02*
D03*
X103150Y125197D02*
D03*
D41*
X185236Y255709D02*
D03*
Y263189D02*
D03*
X176969Y259449D02*
D03*
X163583Y255709D02*
D03*
X163583Y263189D02*
D03*
X155315Y259449D02*
D03*
X98228Y259449D02*
D03*
X106496Y263189D02*
D03*
Y255709D02*
D03*
X117913Y259449D02*
D03*
X126181Y263189D02*
D03*
Y255709D02*
D03*
D42*
X92126Y62795D02*
D03*
X198425D02*
D03*
D43*
X78051Y50787D02*
D03*
X80610D02*
D03*
X83169D02*
D03*
X85728D02*
D03*
X88287D02*
D03*
X90847D02*
D03*
X93405D02*
D03*
X95965D02*
D03*
X98524D02*
D03*
X101083D02*
D03*
X103642D02*
D03*
X106201D02*
D03*
X78051Y74803D02*
D03*
X80610D02*
D03*
X83169D02*
D03*
X85728D02*
D03*
X88287D02*
D03*
X90847D02*
D03*
X93405D02*
D03*
X95965D02*
D03*
X98524D02*
D03*
X101083D02*
D03*
X103642D02*
D03*
X106201D02*
D03*
X212500D02*
D03*
X209941D02*
D03*
X207382D02*
D03*
X204823D02*
D03*
X202264D02*
D03*
X199705D02*
D03*
X197146D02*
D03*
X194587D02*
D03*
X192028D02*
D03*
X189469D02*
D03*
X186909D02*
D03*
X184350D02*
D03*
X212500Y50787D02*
D03*
X209941D02*
D03*
X207382D02*
D03*
X204823D02*
D03*
X202264D02*
D03*
X199705D02*
D03*
X197146D02*
D03*
X194587D02*
D03*
X192028D02*
D03*
X189469D02*
D03*
X186909D02*
D03*
X184350D02*
D03*
D79*
X69705Y194976D02*
D03*
Y193008D02*
D03*
Y191039D02*
D03*
Y189071D02*
D03*
Y187102D02*
D03*
Y185134D02*
D03*
Y183165D02*
D03*
Y181197D02*
D03*
Y179228D02*
D03*
Y177260D02*
D03*
Y175291D02*
D03*
Y173323D02*
D03*
X67736Y196945D02*
D03*
Y192024D02*
D03*
Y190055D02*
D03*
Y188087D02*
D03*
Y186118D02*
D03*
Y184150D02*
D03*
Y182181D02*
D03*
Y180213D02*
D03*
Y176276D02*
D03*
X66752Y173323D02*
D03*
X65768Y196945D02*
D03*
X64784Y194976D02*
D03*
Y173323D02*
D03*
X63799Y196945D02*
D03*
Y171354D02*
D03*
X62815Y194976D02*
D03*
X61831Y196945D02*
D03*
Y171354D02*
D03*
X60847Y194976D02*
D03*
Y173323D02*
D03*
X59862Y196945D02*
D03*
Y171354D02*
D03*
X58878Y194976D02*
D03*
Y173323D02*
D03*
X57894Y196945D02*
D03*
Y171354D02*
D03*
X56910Y173323D02*
D03*
X55925Y196945D02*
D03*
Y171354D02*
D03*
X54941Y173323D02*
D03*
X53957Y196945D02*
D03*
Y171354D02*
D03*
X52973Y194976D02*
D03*
Y173323D02*
D03*
X51988Y171354D02*
D03*
X51004Y194976D02*
D03*
Y173323D02*
D03*
X50020Y196945D02*
D03*
X49035Y173323D02*
D03*
X48051Y171354D02*
D03*
X49035Y194976D02*
D03*
X46083Y196945D02*
D03*
Y190055D02*
D03*
Y188087D02*
D03*
Y186118D02*
D03*
Y184150D02*
D03*
Y182181D02*
D03*
Y180213D02*
D03*
Y178244D02*
D03*
Y176276D02*
D03*
Y174307D02*
D03*
Y171354D02*
D03*
X44114Y194976D02*
D03*
Y191039D02*
D03*
Y189071D02*
D03*
Y187102D02*
D03*
Y185134D02*
D03*
Y183165D02*
D03*
Y181197D02*
D03*
Y179228D02*
D03*
Y193008D02*
D03*
M02*
