G04 Layer_Color=16711935*
%FSLAX25Y25*%
%MOIN*%
G70*
G01*
G75*
%ADD114R,0.07099X0.07099*%
%ADD115C,0.07099*%
%ADD116R,0.07099X0.07099*%
%ADD117C,0.03950*%
%ADD118O,0.07887X0.05328*%
%ADD119O,0.08674X0.06509*%
%ADD120R,0.07493X0.07493*%
%ADD121C,0.07493*%
%ADD122C,0.20485*%
G04:AMPARAMS|DCode=123|XSize=90.68mil|YSize=90.68mil|CornerRadius=24.67mil|HoleSize=0mil|Usage=FLASHONLY|Rotation=270.000|XOffset=0mil|YOffset=0mil|HoleType=Round|Shape=RoundedRectangle|*
%AMROUNDEDRECTD123*
21,1,0.09068,0.04134,0,0,270.0*
21,1,0.04134,0.09068,0,0,270.0*
1,1,0.04934,-0.02067,-0.02067*
1,1,0.04934,-0.02067,0.02067*
1,1,0.04934,0.02067,0.02067*
1,1,0.04934,0.02067,-0.02067*
%
%ADD123ROUNDEDRECTD123*%
%ADD124C,0.09068*%
G04:AMPARAMS|DCode=125|XSize=90.68mil|YSize=90.68mil|CornerRadius=24.67mil|HoleSize=0mil|Usage=FLASHONLY|Rotation=0.000|XOffset=0mil|YOffset=0mil|HoleType=Round|Shape=RoundedRectangle|*
%AMROUNDEDRECTD125*
21,1,0.09068,0.04134,0,0,0.0*
21,1,0.04134,0.09068,0,0,0.0*
1,1,0.04934,0.02067,-0.02067*
1,1,0.04934,-0.02067,-0.02067*
1,1,0.04934,-0.02067,0.02067*
1,1,0.04934,0.02067,0.02067*
%
%ADD125ROUNDEDRECTD125*%
%ADD126C,0.03000*%
G36*
X114173Y39370D02*
X59055Y39370D01*
X59055Y94488D01*
X114173D01*
Y39370D01*
D02*
G37*
G36*
X220472Y39370D02*
X165354Y39370D01*
X165354Y94488D01*
X220472D01*
Y39370D01*
D02*
G37*
D114*
X70669Y232658D02*
D03*
D115*
Y222657D02*
D03*
X118760Y205803D02*
D03*
X128760Y205803D02*
D03*
X138701Y205803D02*
D03*
D116*
X108760Y205803D02*
D03*
X148701Y205803D02*
D03*
D117*
X17913Y135433D02*
D03*
X17913Y155118D02*
D03*
D118*
X7087Y130020D02*
D03*
X7087Y160531D02*
D03*
D119*
X22047Y130610D02*
D03*
Y159941D02*
D03*
D120*
X98110Y287087D02*
D03*
X155197D02*
D03*
X213347D02*
D03*
X260591D02*
D03*
D121*
X108110D02*
D03*
X118110D02*
D03*
X128110D02*
D03*
X165197D02*
D03*
X175197D02*
D03*
X185197D02*
D03*
X223346D02*
D03*
X233347D02*
D03*
X270590D02*
D03*
X280591D02*
D03*
D122*
X274606Y20669D02*
D03*
X147638Y232283D02*
D03*
X20669Y20669D02*
D03*
D123*
X31102Y90177D02*
D03*
D124*
X31102Y75177D02*
D03*
X94488Y31102D02*
D03*
X109488D02*
D03*
X200787D02*
D03*
X215787D02*
D03*
D125*
X79488D02*
D03*
X185787Y31102D02*
D03*
D126*
X63996Y191236D02*
D03*
Y186512D02*
D03*
Y181787D02*
D03*
Y177063D02*
D03*
X59272Y191236D02*
D03*
Y186512D02*
D03*
Y181787D02*
D03*
Y177063D02*
D03*
X54547Y191236D02*
D03*
Y186512D02*
D03*
Y181787D02*
D03*
Y177063D02*
D03*
X49823Y191236D02*
D03*
Y186512D02*
D03*
Y181787D02*
D03*
Y177063D02*
D03*
M02*
