G04 Layer_Physical_Order=2*
G04 Layer_Color=16711680*
%FSLAX25Y25*%
%MOIN*%
G70*
G01*
G75*
%ADD46C,0.01500*%
%ADD47C,0.01000*%
%ADD48C,0.00800*%
%ADD49C,0.00600*%
%ADD50C,0.02000*%
%ADD52C,0.00500*%
%ADD61R,0.06299X0.06299*%
%ADD62C,0.06299*%
%ADD63R,0.06299X0.06299*%
%ADD64C,0.03150*%
%ADD65O,0.07087X0.04528*%
%ADD66O,0.07874X0.05709*%
%ADD67R,0.06693X0.06693*%
%ADD68C,0.06693*%
%ADD69C,0.19685*%
G04:AMPARAMS|DCode=70|XSize=82.68mil|YSize=82.68mil|CornerRadius=20.67mil|HoleSize=0mil|Usage=FLASHONLY|Rotation=270.000|XOffset=0mil|YOffset=0mil|HoleType=Round|Shape=RoundedRectangle|*
%AMROUNDEDRECTD70*
21,1,0.08268,0.04134,0,0,270.0*
21,1,0.04134,0.08268,0,0,270.0*
1,1,0.04134,-0.02067,-0.02067*
1,1,0.04134,-0.02067,0.02067*
1,1,0.04134,0.02067,0.02067*
1,1,0.04134,0.02067,-0.02067*
%
%ADD70ROUNDEDRECTD70*%
%ADD71C,0.08268*%
G04:AMPARAMS|DCode=72|XSize=82.68mil|YSize=82.68mil|CornerRadius=20.67mil|HoleSize=0mil|Usage=FLASHONLY|Rotation=0.000|XOffset=0mil|YOffset=0mil|HoleType=Round|Shape=RoundedRectangle|*
%AMROUNDEDRECTD72*
21,1,0.08268,0.04134,0,0,0.0*
21,1,0.04134,0.08268,0,0,0.0*
1,1,0.04134,0.02067,-0.02067*
1,1,0.04134,-0.02067,-0.02067*
1,1,0.04134,-0.02067,0.02067*
1,1,0.04134,0.02067,0.02067*
%
%ADD72ROUNDEDRECTD72*%
%ADD73C,0.02600*%
%ADD74C,0.02362*%
%ADD75C,0.02400*%
G36*
X283465Y337987D02*
Y337987D01*
X283961Y337978D01*
X285224Y337879D01*
X286940Y337467D01*
X288570Y336792D01*
X290075Y335870D01*
X291417Y334723D01*
X292563Y333382D01*
X293484Y331877D01*
X294160Y330247D01*
X294572Y328531D01*
X294706Y326833D01*
X294680Y326772D01*
Y11811D01*
X294706Y11750D01*
X294572Y10052D01*
X294160Y8336D01*
X293484Y6706D01*
X292563Y5201D01*
X291417Y3859D01*
X290075Y2713D01*
X288570Y1791D01*
X286940Y1116D01*
X285224Y704D01*
X283525Y570D01*
X283465Y595D01*
X11811D01*
X11750Y570D01*
X10052Y704D01*
X8336Y1116D01*
X6706Y1791D01*
X5201Y2713D01*
X3859Y3859D01*
X2713Y5201D01*
X1791Y6706D01*
X1116Y8336D01*
X704Y10052D01*
X570Y11750D01*
X595Y11811D01*
Y211619D01*
X22543D01*
Y275300D01*
X595D01*
Y326772D01*
X570Y326833D01*
X704Y328531D01*
X1116Y330247D01*
X1791Y331877D01*
X2713Y333382D01*
X3859Y334723D01*
X5201Y335870D01*
X6706Y336792D01*
X8336Y337467D01*
X10052Y337879D01*
X11315Y337978D01*
X11811Y337987D01*
Y337987D01*
X11811Y337987D01*
X282965D01*
X283465Y337987D01*
D02*
G37*
%LPC*%
G36*
X188300Y133235D02*
X187598Y133096D01*
X187002Y132698D01*
X186604Y132102D01*
X186465Y131400D01*
X186604Y130698D01*
X186771Y130449D01*
Y122051D01*
X186604Y121802D01*
X186465Y121100D01*
X186604Y120398D01*
X187002Y119802D01*
X187598Y119404D01*
X188300Y119265D01*
X189002Y119404D01*
X189598Y119802D01*
X189996Y120398D01*
X190135Y121100D01*
X189996Y121802D01*
X189829Y122051D01*
Y130449D01*
X189996Y130698D01*
X190135Y131400D01*
X189996Y132102D01*
X189598Y132698D01*
X189002Y133096D01*
X188300Y133235D01*
D02*
G37*
G36*
X152450Y209553D02*
X149451D01*
Y206553D01*
X152450D01*
Y209553D01*
D02*
G37*
G36*
X62992Y149867D02*
X62290Y149727D01*
X61694Y149329D01*
X61297Y148734D01*
X61157Y148031D01*
X61297Y147329D01*
X61687Y146745D01*
X61695Y146725D01*
X61801Y146616D01*
X61887Y146520D01*
X61958Y146429D01*
X62017Y146344D01*
X62064Y146266D01*
X62099Y146195D01*
X62124Y146132D01*
X62139Y146077D01*
X62147Y146029D01*
X62152Y145955D01*
X62177Y145904D01*
Y120631D01*
X62152Y120580D01*
X62147Y120506D01*
X62139Y120458D01*
X62124Y120403D01*
X62099Y120340D01*
X62064Y120270D01*
X62017Y120191D01*
X61963Y120113D01*
X61796Y119914D01*
X61695Y119810D01*
X61687Y119790D01*
X61297Y119206D01*
X61157Y118504D01*
X61297Y117802D01*
X61694Y117206D01*
X62290Y116808D01*
X62992Y116669D01*
X63694Y116808D01*
X64290Y117206D01*
X64688Y117802D01*
X64827Y118504D01*
X64688Y119206D01*
X64298Y119790D01*
X64289Y119810D01*
X64183Y119920D01*
X64098Y120016D01*
X64026Y120107D01*
X63967Y120192D01*
X63920Y120270D01*
X63885Y120340D01*
X63861Y120403D01*
X63845Y120458D01*
X63837Y120506D01*
X63832Y120580D01*
X63808Y120631D01*
Y145904D01*
X63832Y145955D01*
X63837Y146029D01*
X63845Y146077D01*
X63861Y146132D01*
X63885Y146195D01*
X63920Y146266D01*
X63967Y146344D01*
X64021Y146423D01*
X64188Y146621D01*
X64289Y146725D01*
X64298Y146745D01*
X64688Y147329D01*
X64827Y148031D01*
X64688Y148734D01*
X64290Y149329D01*
X63694Y149727D01*
X62992Y149867D01*
D02*
G37*
G36*
X70669Y226339D02*
X69717Y226213D01*
X68829Y225845D01*
X68066Y225260D01*
X67481Y224498D01*
X67114Y223610D01*
X66988Y222657D01*
X67114Y221705D01*
X67481Y220817D01*
X68066Y220055D01*
X68176Y219970D01*
X67965Y219502D01*
X67716Y219552D01*
X67014Y219412D01*
X66419Y219014D01*
X66021Y218419D01*
X65881Y217717D01*
X66021Y217014D01*
X66419Y216419D01*
X67014Y216021D01*
X67716Y215881D01*
X68419Y216021D01*
X68990Y216403D01*
X69016Y216413D01*
X69254Y216637D01*
X69349Y216715D01*
X69441Y216781D01*
X69523Y216834D01*
X69596Y216873D01*
X69658Y216899D01*
X69707Y216915D01*
X69745Y216922D01*
X69809Y216927D01*
X69860Y216952D01*
X80140D01*
X80191Y216927D01*
X80255Y216922D01*
X80293Y216915D01*
X80342Y216899D01*
X80404Y216873D01*
X80477Y216834D01*
X80559Y216781D01*
X80646Y216719D01*
X80861Y216533D01*
X80976Y216420D01*
X80995Y216413D01*
X81581Y216021D01*
X82284Y215881D01*
X82986Y216021D01*
X83581Y216419D01*
X83979Y217014D01*
X84119Y217717D01*
X83979Y218419D01*
X83581Y219014D01*
X82986Y219412D01*
X82284Y219552D01*
X81581Y219412D01*
X81010Y219030D01*
X80984Y219020D01*
X80746Y218796D01*
X80651Y218718D01*
X80559Y218652D01*
X80477Y218599D01*
X80404Y218560D01*
X80342Y218534D01*
X80293Y218518D01*
X80255Y218511D01*
X80191Y218507D01*
X80140Y218481D01*
X71101D01*
X71057Y218523D01*
X71231Y219050D01*
X71622Y219102D01*
X72510Y219470D01*
X73272Y220055D01*
X73857Y220817D01*
X74225Y221705D01*
X74350Y222657D01*
X74225Y223610D01*
X73857Y224498D01*
X73272Y225260D01*
X72510Y225845D01*
X71622Y226213D01*
X70669Y226339D01*
D02*
G37*
G36*
X147951Y209553D02*
X144951D01*
Y206553D01*
X147951D01*
Y209553D01*
D02*
G37*
G36*
X118760Y209484D02*
X117807Y209359D01*
X116919Y208991D01*
X116157Y208406D01*
X115572Y207644D01*
X115204Y206756D01*
X115079Y205803D01*
X115204Y204850D01*
X115572Y203963D01*
X116157Y203200D01*
X116919Y202615D01*
X117807Y202247D01*
X118760Y202122D01*
X119713Y202247D01*
X120600Y202615D01*
X121363Y203200D01*
X121948Y203963D01*
X122316Y204850D01*
X122441Y205803D01*
X122316Y206756D01*
X121948Y207644D01*
X121363Y208406D01*
X120600Y208991D01*
X119713Y209359D01*
X118760Y209484D01*
D02*
G37*
G36*
X152450Y205053D02*
X149451D01*
Y202053D01*
X152450D01*
Y205053D01*
D02*
G37*
G36*
X128760Y209484D02*
X127807Y209359D01*
X126919Y208991D01*
X126157Y208406D01*
X125572Y207644D01*
X125204Y206756D01*
X125079Y205803D01*
X125204Y204850D01*
X125572Y203963D01*
X126157Y203200D01*
X126919Y202615D01*
X127807Y202248D01*
X128760Y202122D01*
X129713Y202248D01*
X130600Y202615D01*
X131363Y203200D01*
X131948Y203963D01*
X132316Y204850D01*
X132441Y205803D01*
X132316Y206756D01*
X131948Y207644D01*
X131363Y208406D01*
X130600Y208991D01*
X129713Y209359D01*
X128760Y209484D01*
D02*
G37*
G36*
X112409Y209453D02*
X105110D01*
Y202153D01*
X112409D01*
Y209453D01*
D02*
G37*
G36*
X138701Y209484D02*
X137748Y209359D01*
X136860Y208991D01*
X136098Y208406D01*
X135513Y207644D01*
X135145Y206756D01*
X135020Y205803D01*
X135145Y204850D01*
X135513Y203963D01*
X136098Y203200D01*
X136860Y202615D01*
X137748Y202248D01*
X138701Y202122D01*
X139654Y202248D01*
X140541Y202615D01*
X141304Y203200D01*
X141889Y203963D01*
X142256Y204850D01*
X142382Y205803D01*
X142256Y206756D01*
X141889Y207644D01*
X141304Y208406D01*
X140541Y208991D01*
X139654Y209359D01*
X138701Y209484D01*
D02*
G37*
G36*
X66929Y115024D02*
X66227Y114884D01*
X65631Y114487D01*
X65234Y113891D01*
X65094Y113189D01*
X65234Y112487D01*
X65631Y111891D01*
X66227Y111493D01*
X66929Y111354D01*
X67631Y111493D01*
X67918Y111685D01*
X68027Y111711D01*
X68161Y111808D01*
X68277Y111886D01*
X68505Y112019D01*
X68594Y112063D01*
X68680Y112098D01*
X68755Y112124D01*
X68818Y112140D01*
X68870Y112148D01*
X68940Y112152D01*
X68992Y112177D01*
X78975D01*
X79026Y112152D01*
X79100Y112147D01*
X79148Y112139D01*
X79203Y112124D01*
X79266Y112099D01*
X79337Y112064D01*
X79415Y112017D01*
X79493Y111963D01*
X79692Y111796D01*
X79796Y111695D01*
X79816Y111687D01*
X80400Y111297D01*
X81102Y111157D01*
X81805Y111297D01*
X82400Y111694D01*
X82798Y112290D01*
X82938Y112992D01*
X82798Y113695D01*
X82400Y114290D01*
X81805Y114688D01*
X81102Y114827D01*
X80400Y114688D01*
X79816Y114298D01*
X79796Y114289D01*
X79687Y114183D01*
X79590Y114098D01*
X79500Y114026D01*
X79415Y113967D01*
X79337Y113920D01*
X79266Y113885D01*
X79203Y113861D01*
X79148Y113845D01*
X79100Y113837D01*
X79026Y113832D01*
X78975Y113808D01*
X69120D01*
X69089Y113827D01*
X69062Y113820D01*
X69037Y113832D01*
X68961Y113837D01*
X68918Y113845D01*
X68872Y113859D01*
X68823Y113881D01*
X68768Y113912D01*
X68708Y113955D01*
X68642Y114011D01*
X68573Y114081D01*
X68500Y114165D01*
X68415Y114276D01*
X68337Y114321D01*
X68227Y114487D01*
X67631Y114884D01*
X66929Y115024D01*
D02*
G37*
G36*
X144488Y122308D02*
X143786Y122168D01*
X143191Y121770D01*
X142793Y121175D01*
X142653Y120472D01*
X142793Y119770D01*
X142959Y119521D01*
Y100164D01*
X142793Y99915D01*
X142653Y99213D01*
X142793Y98510D01*
X143191Y97915D01*
X143786Y97517D01*
X144488Y97377D01*
X145191Y97517D01*
X145786Y97915D01*
X146184Y98510D01*
X146324Y99213D01*
X146184Y99915D01*
X146018Y100164D01*
Y119521D01*
X146184Y119770D01*
X146324Y120472D01*
X146184Y121175D01*
X145786Y121770D01*
X145191Y122168D01*
X144488Y122308D01*
D02*
G37*
G36*
X74319Y236307D02*
X67020D01*
Y229008D01*
X74319D01*
Y236307D01*
D02*
G37*
G36*
X122835Y109709D02*
X122132Y109570D01*
X121537Y109172D01*
X121139Y108576D01*
X120999Y107874D01*
X121139Y107172D01*
X121537Y106576D01*
X122132Y106178D01*
X122821Y106042D01*
X122841Y106033D01*
X122994Y106031D01*
X123122Y106023D01*
X123237Y106010D01*
X123339Y105992D01*
X123427Y105969D01*
X123502Y105944D01*
X123564Y105917D01*
X123614Y105889D01*
X123653Y105861D01*
X123709Y105812D01*
X123762Y105793D01*
X130919Y98636D01*
X130919Y98636D01*
X131184Y98459D01*
X131496Y98397D01*
X131496Y98397D01*
X131731D01*
X131782Y98372D01*
X131856Y98368D01*
X131904Y98360D01*
X131959Y98344D01*
X132022Y98320D01*
X132093Y98285D01*
X132171Y98238D01*
X132249Y98183D01*
X132448Y98017D01*
X132552Y97915D01*
X132572Y97907D01*
X133156Y97517D01*
X133858Y97377D01*
X134561Y97517D01*
X135156Y97915D01*
X135554Y98510D01*
X135694Y99213D01*
X135554Y99915D01*
X135156Y100510D01*
X134561Y100908D01*
X133858Y101048D01*
X133156Y100908D01*
X132572Y100518D01*
X132552Y100510D01*
X132443Y100403D01*
X132346Y100318D01*
X132256Y100246D01*
X132171Y100187D01*
X132093Y100141D01*
X132022Y100106D01*
X131959Y100081D01*
X131904Y100066D01*
X131856Y100057D01*
X131808Y100054D01*
X124916Y106947D01*
X124897Y107000D01*
X124848Y107055D01*
X124820Y107095D01*
X124792Y107145D01*
X124765Y107207D01*
X124739Y107282D01*
X124717Y107370D01*
X124700Y107464D01*
X124678Y107722D01*
X124676Y107868D01*
X124667Y107888D01*
X124530Y108576D01*
X124132Y109172D01*
X123537Y109570D01*
X122835Y109709D01*
D02*
G37*
G36*
X146850Y260103D02*
X146148Y259963D01*
X145553Y259565D01*
X145155Y258970D01*
X145015Y258268D01*
X145155Y257565D01*
X145553Y256970D01*
X145812Y256797D01*
Y256195D01*
X145553Y256022D01*
X145155Y255427D01*
X145015Y254724D01*
X145155Y254022D01*
X145553Y253427D01*
X146148Y253029D01*
X146850Y252889D01*
X147553Y253029D01*
X148137Y253419D01*
X148157Y253427D01*
X148266Y253534D01*
X148362Y253619D01*
X148453Y253691D01*
X148538Y253750D01*
X148616Y253796D01*
X148687Y253831D01*
X148750Y253856D01*
X148805Y253871D01*
X148853Y253880D01*
X148927Y253884D01*
X148978Y253909D01*
X155568D01*
X168715Y240762D01*
X168715Y240762D01*
X168979Y240585D01*
X169291Y240523D01*
X178188D01*
X178238Y240498D01*
X178313Y240494D01*
X178361Y240486D01*
X178416Y240470D01*
X178479Y240445D01*
X178549Y240410D01*
X178628Y240364D01*
X178706Y240309D01*
X178904Y240143D01*
X179009Y240041D01*
X179029Y240033D01*
X179613Y239643D01*
X180315Y239503D01*
X181017Y239643D01*
X181613Y240041D01*
X182010Y240636D01*
X182150Y241339D01*
X182010Y242041D01*
X181613Y242636D01*
X181017Y243034D01*
X180315Y243174D01*
X179613Y243034D01*
X179029Y242644D01*
X179009Y242636D01*
X178899Y242529D01*
X178803Y242444D01*
X178712Y242372D01*
X178627Y242313D01*
X178549Y242267D01*
X178479Y242232D01*
X178416Y242207D01*
X178361Y242192D01*
X178313Y242183D01*
X178238Y242179D01*
X178188Y242154D01*
X169629D01*
X156482Y255301D01*
X156218Y255478D01*
X155905Y255540D01*
X155905Y255540D01*
X148978D01*
X148927Y255565D01*
X148853Y255569D01*
X148805Y255577D01*
X148750Y255593D01*
X148687Y255617D01*
X148616Y255652D01*
X148538Y255699D01*
X148459Y255754D01*
X148261Y255920D01*
X148157Y256022D01*
X148137Y256030D01*
X147889Y256195D01*
Y256797D01*
X148137Y256962D01*
X148157Y256970D01*
X148266Y257077D01*
X148362Y257162D01*
X148453Y257234D01*
X148538Y257293D01*
X148616Y257340D01*
X148687Y257375D01*
X148750Y257399D01*
X148805Y257415D01*
X148853Y257423D01*
X148927Y257427D01*
X148978Y257452D01*
X157930D01*
X169896Y245486D01*
X169896Y245486D01*
X170160Y245309D01*
X170472Y245247D01*
X170473Y245247D01*
X178188D01*
X178238Y245223D01*
X178313Y245218D01*
X178361Y245210D01*
X178416Y245195D01*
X178479Y245170D01*
X178549Y245135D01*
X178628Y245088D01*
X178706Y245034D01*
X178904Y244867D01*
X179009Y244766D01*
X179029Y244758D01*
X179613Y244367D01*
X180315Y244228D01*
X181017Y244367D01*
X181613Y244765D01*
X182010Y245361D01*
X182150Y246063D01*
X182010Y246765D01*
X181613Y247361D01*
X181017Y247759D01*
X180315Y247898D01*
X179613Y247759D01*
X179029Y247368D01*
X179009Y247360D01*
X178899Y247254D01*
X178803Y247169D01*
X178712Y247097D01*
X178627Y247038D01*
X178549Y246991D01*
X178479Y246956D01*
X178416Y246932D01*
X178361Y246916D01*
X178313Y246908D01*
X178238Y246903D01*
X178188Y246879D01*
X170810D01*
X158844Y258844D01*
X158580Y259021D01*
X158268Y259083D01*
X158268Y259083D01*
X148978D01*
X148927Y259108D01*
X148853Y259112D01*
X148805Y259121D01*
X148750Y259136D01*
X148687Y259161D01*
X148616Y259196D01*
X148538Y259242D01*
X148459Y259297D01*
X148261Y259463D01*
X148157Y259565D01*
X148137Y259573D01*
X147553Y259963D01*
X146850Y260103D01*
D02*
G37*
G36*
X33169Y94934D02*
X31853D01*
Y90927D01*
X35859D01*
Y92244D01*
X35768Y92940D01*
X35499Y93589D01*
X35072Y94146D01*
X34514Y94574D01*
X33866Y94842D01*
X33169Y94934D01*
D02*
G37*
G36*
X100787Y233725D02*
X100085Y233585D01*
X99490Y233188D01*
X99092Y232592D01*
X98955Y231903D01*
X98946Y231883D01*
X98944Y231731D01*
X98937Y231603D01*
X98923Y231487D01*
X98905Y231386D01*
X98883Y231298D01*
X98857Y231223D01*
X98830Y231161D01*
X98802Y231111D01*
X98774Y231071D01*
X98725Y231016D01*
X98706Y230962D01*
X90819Y223075D01*
X90358Y223321D01*
X90418Y223622D01*
X90278Y224324D01*
X89880Y224920D01*
X89285Y225318D01*
X88583Y225457D01*
X87880Y225318D01*
X87285Y224920D01*
X86887Y224324D01*
X86747Y223622D01*
X86887Y222920D01*
X87277Y222336D01*
X87285Y222316D01*
X87392Y222206D01*
X87477Y222110D01*
X87549Y222019D01*
X87608Y221935D01*
X87655Y221856D01*
X87690Y221786D01*
X87714Y221723D01*
X87730Y221668D01*
X87738Y221620D01*
X87742Y221546D01*
X87767Y221495D01*
Y185986D01*
X87742Y185935D01*
X87738Y185861D01*
X87730Y185813D01*
X87714Y185758D01*
X87690Y185695D01*
X87655Y185624D01*
X87608Y185546D01*
X87553Y185467D01*
X87387Y185269D01*
X87285Y185165D01*
X87277Y185144D01*
X86887Y184561D01*
X86747Y183858D01*
X86887Y183156D01*
X87285Y182561D01*
X87880Y182163D01*
X88583Y182023D01*
X89285Y182163D01*
X89629Y182393D01*
X90099Y182142D01*
X90009Y181673D01*
X89970Y181609D01*
X89916Y181530D01*
X89749Y181332D01*
X89648Y181228D01*
X89639Y181207D01*
X89249Y180624D01*
X89110Y179921D01*
X89249Y179219D01*
X89647Y178623D01*
X90243Y178226D01*
X90945Y178086D01*
X91647Y178226D01*
X92243Y178623D01*
X92560Y178590D01*
X92758Y178495D01*
X92808Y178214D01*
X92773Y178144D01*
X92726Y178066D01*
X92672Y177987D01*
X92505Y177788D01*
X92403Y177684D01*
X92395Y177664D01*
X92005Y177080D01*
X91865Y176378D01*
X92005Y175676D01*
X92403Y175080D01*
X92998Y174682D01*
X93701Y174543D01*
X94403Y174682D01*
X94999Y175080D01*
X95396Y175676D01*
X95536Y176378D01*
X95396Y177080D01*
X95006Y177664D01*
X94998Y177684D01*
X94891Y177794D01*
X94806Y177890D01*
X94735Y177981D01*
X94675Y178066D01*
X94629Y178144D01*
X94594Y178214D01*
X94569Y178277D01*
X94554Y178332D01*
X94545Y178380D01*
X94541Y178454D01*
X94516Y178505D01*
Y218345D01*
X94541Y218396D01*
X94545Y218470D01*
X94554Y218518D01*
X94569Y218573D01*
X94594Y218636D01*
X94629Y218707D01*
X94675Y218785D01*
X94730Y218863D01*
X94897Y219062D01*
X94998Y219166D01*
X95006Y219186D01*
X95396Y219770D01*
X95536Y220472D01*
X95396Y221175D01*
X94999Y221770D01*
X94403Y222168D01*
X93701Y222308D01*
X92998Y222168D01*
X92781Y222023D01*
X92462Y222411D01*
X94912Y224861D01*
X95300Y224542D01*
X95155Y224324D01*
X95015Y223622D01*
X95155Y222920D01*
X95545Y222336D01*
X95553Y222316D01*
X95660Y222206D01*
X95745Y222110D01*
X95817Y222019D01*
X95876Y221935D01*
X95922Y221856D01*
X95957Y221786D01*
X95982Y221723D01*
X95998Y221668D01*
X96006Y221620D01*
X96010Y221546D01*
X96035Y221495D01*
Y187167D01*
X96010Y187116D01*
X96006Y187042D01*
X95998Y186994D01*
X95982Y186939D01*
X95957Y186876D01*
X95922Y186805D01*
X95876Y186727D01*
X95821Y186648D01*
X95655Y186450D01*
X95553Y186346D01*
X95545Y186326D01*
X95155Y185742D01*
X95015Y185039D01*
X95155Y184337D01*
X95553Y183742D01*
X96148Y183344D01*
X96850Y183204D01*
X97553Y183344D01*
X98148Y183742D01*
X98546Y184337D01*
X98686Y185039D01*
X98546Y185742D01*
X98156Y186326D01*
X98148Y186346D01*
X98041Y186455D01*
X97956Y186551D01*
X97884Y186642D01*
X97825Y186727D01*
X97778Y186805D01*
X97743Y186876D01*
X97719Y186939D01*
X97703Y186994D01*
X97695Y187042D01*
X97691Y187116D01*
X97666Y187167D01*
Y221495D01*
X97691Y221546D01*
X97695Y221620D01*
X97703Y221668D01*
X97719Y221723D01*
X97743Y221786D01*
X97778Y221856D01*
X97825Y221935D01*
X97880Y222013D01*
X98046Y222212D01*
X98148Y222316D01*
X98156Y222336D01*
X98546Y222920D01*
X98686Y223622D01*
X98546Y224324D01*
X98148Y224920D01*
X97553Y225318D01*
X96850Y225457D01*
X96148Y225318D01*
X95931Y225172D01*
X95612Y225561D01*
X99860Y229809D01*
X99913Y229827D01*
X99969Y229877D01*
X100008Y229905D01*
X100059Y229933D01*
X100120Y229960D01*
X100195Y229985D01*
X100283Y230007D01*
X100378Y230024D01*
X100636Y230047D01*
X100781Y230049D01*
X100801Y230057D01*
X101490Y230194D01*
X102085Y230592D01*
X102483Y231187D01*
X102623Y231890D01*
X102483Y232592D01*
X102085Y233188D01*
X101490Y233585D01*
X100787Y233725D01*
D02*
G37*
G36*
X147638Y242658D02*
X146015Y242530D01*
X144432Y242150D01*
X142928Y241527D01*
X141540Y240677D01*
X140302Y239619D01*
X139245Y238381D01*
X138394Y236993D01*
X137771Y235489D01*
X137391Y233906D01*
X137263Y232283D01*
X137391Y230661D01*
X137771Y229078D01*
X138394Y227573D01*
X139245Y226185D01*
X140302Y224948D01*
X141540Y223890D01*
X142928Y223040D01*
X144432Y222417D01*
X146015Y222037D01*
X147638Y221909D01*
X149261Y222037D01*
X150844Y222417D01*
X152348Y223040D01*
X153736Y223890D01*
X154974Y224948D01*
X156031Y226185D01*
X156881Y227573D01*
X157504Y229078D01*
X157885Y230661D01*
X158012Y232283D01*
X157885Y233906D01*
X157504Y235489D01*
X156881Y236993D01*
X156031Y238381D01*
X154974Y239619D01*
X153736Y240677D01*
X152348Y241527D01*
X150844Y242150D01*
X149261Y242530D01*
X147638Y242658D01*
D02*
G37*
G36*
X192126Y243567D02*
X191424Y243428D01*
X190828Y243030D01*
X190430Y242435D01*
X190291Y241732D01*
X190430Y241030D01*
X190817Y240452D01*
X190826Y240429D01*
X190911Y240341D01*
X190974Y240265D01*
X191028Y240192D01*
X191072Y240121D01*
X191108Y240052D01*
X191136Y239985D01*
X191157Y239918D01*
X191172Y239852D01*
X191181Y239785D01*
X191185Y239692D01*
X191208Y239642D01*
Y228468D01*
X191185Y228418D01*
X191181Y228326D01*
X191172Y228258D01*
X191157Y228192D01*
X191136Y228126D01*
X191108Y228058D01*
X191072Y227989D01*
X191028Y227918D01*
X190974Y227845D01*
X190911Y227770D01*
X190826Y227681D01*
X190817Y227659D01*
X190430Y227080D01*
X190291Y226378D01*
X190430Y225676D01*
X190828Y225080D01*
X191424Y224682D01*
X192126Y224543D01*
X192828Y224682D01*
X193424Y225080D01*
X193822Y225676D01*
X193961Y226378D01*
X193822Y227080D01*
X193435Y227659D01*
X193426Y227681D01*
X193341Y227770D01*
X193278Y227845D01*
X193224Y227918D01*
X193180Y227989D01*
X193144Y228058D01*
X193116Y228126D01*
X193095Y228192D01*
X193080Y228258D01*
X193071Y228326D01*
X193067Y228418D01*
X193044Y228468D01*
Y239642D01*
X193067Y239692D01*
X193071Y239785D01*
X193080Y239852D01*
X193095Y239918D01*
X193116Y239985D01*
X193144Y240052D01*
X193180Y240121D01*
X193224Y240192D01*
X193278Y240265D01*
X193341Y240341D01*
X193426Y240429D01*
X193435Y240452D01*
X193822Y241030D01*
X193961Y241732D01*
X193822Y242435D01*
X193424Y243030D01*
X192828Y243428D01*
X192126Y243567D01*
D02*
G37*
G36*
X77756Y110103D02*
X77054Y109963D01*
X76470Y109573D01*
X76450Y109565D01*
X76340Y109458D01*
X76244Y109373D01*
X76153Y109301D01*
X76068Y109242D01*
X75990Y109196D01*
X75920Y109161D01*
X75857Y109136D01*
X75802Y109121D01*
X75753Y109112D01*
X75679Y109108D01*
X75629Y109083D01*
X69056D01*
X69006Y109108D01*
X68932Y109112D01*
X68884Y109121D01*
X68828Y109136D01*
X68765Y109161D01*
X68695Y109196D01*
X68617Y109242D01*
X68538Y109297D01*
X68340Y109463D01*
X68235Y109565D01*
X68215Y109573D01*
X67631Y109963D01*
X66929Y110103D01*
X66227Y109963D01*
X65631Y109565D01*
X65234Y108970D01*
X65094Y108268D01*
X65234Y107565D01*
X65631Y106970D01*
X66227Y106572D01*
X66929Y106432D01*
X67631Y106572D01*
X68215Y106962D01*
X68235Y106970D01*
X68345Y107077D01*
X68441Y107162D01*
X68532Y107234D01*
X68617Y107293D01*
X68695Y107340D01*
X68765Y107375D01*
X68828Y107399D01*
X68884Y107415D01*
X68932Y107423D01*
X69006Y107427D01*
X69056Y107452D01*
X75629D01*
X75679Y107427D01*
X75754Y107423D01*
X75801Y107415D01*
X75857Y107399D01*
X75920Y107375D01*
X75990Y107340D01*
X76068Y107293D01*
X76147Y107238D01*
X76345Y107072D01*
X76450Y106970D01*
X76470Y106962D01*
X77054Y106572D01*
X77756Y106432D01*
X78458Y106572D01*
X79054Y106970D01*
X79452Y107565D01*
X79591Y108268D01*
X79452Y108970D01*
X79054Y109565D01*
X78458Y109963D01*
X77756Y110103D01*
D02*
G37*
G36*
X197638Y243567D02*
X196935Y243428D01*
X196340Y243030D01*
X195942Y242435D01*
X195802Y241732D01*
X195942Y241030D01*
X196329Y240452D01*
X196337Y240429D01*
X196422Y240341D01*
X196486Y240265D01*
X196539Y240192D01*
X196584Y240121D01*
X196620Y240052D01*
X196648Y239985D01*
X196669Y239918D01*
X196684Y239852D01*
X196693Y239785D01*
X196697Y239692D01*
X196720Y239642D01*
Y228468D01*
X196697Y228418D01*
X196693Y228326D01*
X196684Y228258D01*
X196669Y228192D01*
X196648Y228126D01*
X196620Y228058D01*
X196584Y227989D01*
X196539Y227918D01*
X196486Y227845D01*
X196422Y227770D01*
X196337Y227681D01*
X196329Y227659D01*
X195942Y227080D01*
X195802Y226378D01*
X195942Y225676D01*
X196340Y225080D01*
X196935Y224682D01*
X197638Y224543D01*
X198340Y224682D01*
X198935Y225080D01*
X199333Y225676D01*
X199473Y226378D01*
X199333Y227080D01*
X198947Y227659D01*
X198938Y227681D01*
X198853Y227770D01*
X198790Y227845D01*
X198736Y227918D01*
X198692Y227989D01*
X198656Y228058D01*
X198628Y228126D01*
X198606Y228192D01*
X198591Y228258D01*
X198582Y228326D01*
X198579Y228418D01*
X198555Y228468D01*
Y239642D01*
X198579Y239692D01*
X198582Y239785D01*
X198591Y239852D01*
X198606Y239918D01*
X198628Y239985D01*
X198656Y240052D01*
X198692Y240121D01*
X198736Y240192D01*
X198790Y240265D01*
X198853Y240341D01*
X198938Y240429D01*
X198947Y240452D01*
X199333Y241030D01*
X199473Y241732D01*
X199333Y242435D01*
X198935Y243030D01*
X198340Y243428D01*
X197638Y243567D01*
D02*
G37*
G36*
X148622Y197701D02*
X147920Y197562D01*
X147324Y197164D01*
X146926Y196569D01*
X146792Y195895D01*
X146781Y195870D01*
X146778Y195779D01*
X146771Y195713D01*
X146758Y195649D01*
X146740Y195587D01*
X146715Y195525D01*
X146685Y195463D01*
X146648Y195400D01*
X146602Y195335D01*
X146548Y195269D01*
X146474Y195190D01*
X146455Y195141D01*
X142586Y191272D01*
X142365Y190941D01*
X142288Y190551D01*
Y179210D01*
X142266Y179163D01*
X142263Y179054D01*
X142254Y178969D01*
X142241Y178891D01*
X142222Y178820D01*
X142200Y178754D01*
X142173Y178694D01*
X142142Y178637D01*
X142106Y178583D01*
X142065Y178531D01*
X142003Y178464D01*
X141993Y178439D01*
X141612Y177868D01*
X141472Y177165D01*
X141612Y176463D01*
X142009Y175868D01*
X142605Y175470D01*
X143307Y175330D01*
X144009Y175470D01*
X144605Y175868D01*
X145003Y176463D01*
X145142Y177165D01*
X145003Y177868D01*
X144621Y178439D01*
X144611Y178464D01*
X144549Y178531D01*
X144508Y178583D01*
X144472Y178637D01*
X144441Y178694D01*
X144414Y178754D01*
X144392Y178820D01*
X144374Y178891D01*
X144360Y178969D01*
X144351Y179054D01*
X144348Y179163D01*
X144327Y179210D01*
Y190129D01*
X147897Y193700D01*
X147946Y193718D01*
X148025Y193792D01*
X148091Y193846D01*
X148156Y193892D01*
X148219Y193929D01*
X148281Y193960D01*
X148343Y193984D01*
X148405Y194002D01*
X148469Y194015D01*
X148535Y194023D01*
X148626Y194025D01*
X148651Y194037D01*
X149324Y194171D01*
X149920Y194568D01*
X150318Y195164D01*
X150457Y195866D01*
X150318Y196569D01*
X149920Y197164D01*
X149324Y197562D01*
X148622Y197701D01*
D02*
G37*
G36*
X29921Y156560D02*
X29219Y156420D01*
X28624Y156022D01*
X28226Y155427D01*
X28208Y155336D01*
X27698D01*
X27680Y155427D01*
X27282Y156022D01*
X26687Y156420D01*
X25984Y156560D01*
X25282Y156420D01*
X24687Y156022D01*
X24289Y155427D01*
X24149Y154724D01*
X24289Y154022D01*
X24679Y153438D01*
X24687Y153418D01*
X24794Y153309D01*
X24879Y153212D01*
X24950Y153122D01*
X25010Y153037D01*
X25056Y152959D01*
X25091Y152888D01*
X25116Y152825D01*
X25131Y152770D01*
X25140Y152722D01*
X25144Y152648D01*
X25169Y152597D01*
Y150816D01*
X25169Y150816D01*
X25231Y150504D01*
X25407Y150239D01*
X30984Y144662D01*
Y139300D01*
X30984Y139300D01*
X31046Y138988D01*
X31223Y138723D01*
X34823Y135123D01*
X34823Y135123D01*
X35088Y134946D01*
X35400Y134884D01*
X35400Y134884D01*
X38739D01*
X38790Y134860D01*
X38860Y134856D01*
X38912Y134847D01*
X38976Y134832D01*
X39043Y134809D01*
X39239Y134721D01*
X39332Y134669D01*
X39575Y134513D01*
X39706Y134419D01*
X39815Y134393D01*
X40098Y134204D01*
X40800Y134065D01*
X41502Y134204D01*
X42098Y134602D01*
X42496Y135198D01*
X42635Y135900D01*
X42496Y136602D01*
X42098Y137198D01*
X41502Y137596D01*
X41420Y137612D01*
X41377Y137677D01*
X41112Y137854D01*
X40800Y137916D01*
X40488Y137854D01*
X40223Y137677D01*
X40153Y137607D01*
X40098Y137596D01*
X39502Y137198D01*
X39390Y137029D01*
X39312Y136984D01*
X39227Y136872D01*
X39154Y136788D01*
X39085Y136718D01*
X39020Y136663D01*
X38960Y136620D01*
X38906Y136589D01*
X38856Y136567D01*
X38811Y136553D01*
X38768Y136545D01*
X38691Y136540D01*
X38666Y136528D01*
X38638Y136534D01*
X38608Y136516D01*
X35738D01*
X32616Y139638D01*
Y145000D01*
X32554Y145312D01*
X32377Y145577D01*
X32377Y145577D01*
X26800Y151154D01*
Y152597D01*
X26825Y152648D01*
X26829Y152722D01*
X26837Y152770D01*
X26853Y152825D01*
X26877Y152888D01*
X26912Y152959D01*
X26959Y153037D01*
X27013Y153115D01*
X27180Y153314D01*
X27282Y153418D01*
X27290Y153438D01*
X27680Y154022D01*
X27698Y154113D01*
X28208D01*
X28226Y154022D01*
X28624Y153427D01*
X29219Y153029D01*
X29764Y152920D01*
X29769Y152916D01*
X29775Y152910D01*
X29778Y152909D01*
X29786Y152902D01*
X29806Y152896D01*
X29811Y152894D01*
X29839Y152878D01*
X29870Y152857D01*
X30184Y152588D01*
X30275Y152499D01*
X30315Y152483D01*
X37111Y145686D01*
Y141656D01*
X37095Y141618D01*
X37089Y141356D01*
X37072Y141158D01*
X37063Y141093D01*
X37052Y141042D01*
X37044Y141013D01*
X37042Y141009D01*
X37032Y140991D01*
X37031Y140980D01*
X37029Y140976D01*
X37029Y140974D01*
X36690Y140466D01*
X36551Y139764D01*
X36690Y139061D01*
X37088Y138466D01*
X37683Y138068D01*
X38386Y137928D01*
X39088Y138068D01*
X39684Y138466D01*
X40081Y139061D01*
X40221Y139764D01*
X40081Y140466D01*
X39742Y140974D01*
X39742Y140976D01*
X39741Y140980D01*
X39739Y140991D01*
X39729Y141009D01*
X39728Y141013D01*
X39720Y141042D01*
X39709Y141093D01*
X39700Y141154D01*
X39678Y141481D01*
X39677Y141612D01*
X39660Y141651D01*
Y146214D01*
X39563Y146702D01*
X39287Y147115D01*
X32155Y154247D01*
X32141Y154285D01*
X32139Y154286D01*
X32139Y154287D01*
X31958Y154476D01*
X31833Y154627D01*
X31795Y154678D01*
X31767Y154721D01*
X31754Y154746D01*
X31753Y154749D01*
X31749Y154764D01*
X31617Y155427D01*
X31219Y156022D01*
X30624Y156420D01*
X29921Y156560D01*
D02*
G37*
G36*
X157874Y197898D02*
X157172Y197758D01*
X156576Y197361D01*
X156178Y196765D01*
X156042Y196077D01*
X156033Y196057D01*
X156031Y195904D01*
X156023Y195776D01*
X156010Y195661D01*
X155992Y195559D01*
X155969Y195471D01*
X155944Y195396D01*
X155917Y195334D01*
X155889Y195284D01*
X155861Y195244D01*
X155812Y195189D01*
X155793Y195136D01*
X147848Y187191D01*
X147672Y186926D01*
X147609Y186614D01*
X147609Y186614D01*
Y179293D01*
X147585Y179242D01*
X147581Y179168D01*
X147572Y179120D01*
X147557Y179065D01*
X147532Y179002D01*
X147497Y178931D01*
X147450Y178853D01*
X147396Y178774D01*
X147230Y178576D01*
X147128Y178472D01*
X147120Y178452D01*
X146730Y177868D01*
X146590Y177165D01*
X146730Y176463D01*
X147127Y175868D01*
X147723Y175470D01*
X148425Y175330D01*
X149127Y175470D01*
X149723Y175868D01*
X150121Y176463D01*
X150260Y177165D01*
X150121Y177868D01*
X149731Y178452D01*
X149723Y178472D01*
X149616Y178581D01*
X149531Y178677D01*
X149459Y178768D01*
X149400Y178853D01*
X149353Y178931D01*
X149318Y179002D01*
X149294Y179065D01*
X149278Y179120D01*
X149270Y179168D01*
X149266Y179242D01*
X149241Y179293D01*
Y186276D01*
X156947Y193982D01*
X157000Y194000D01*
X157055Y194050D01*
X157095Y194078D01*
X157145Y194106D01*
X157207Y194133D01*
X157282Y194158D01*
X157370Y194181D01*
X157464Y194197D01*
X157722Y194220D01*
X157868Y194222D01*
X157888Y194230D01*
X158576Y194367D01*
X159172Y194765D01*
X159570Y195361D01*
X159709Y196063D01*
X159570Y196765D01*
X159172Y197361D01*
X158576Y197758D01*
X157874Y197898D01*
D02*
G37*
G36*
X197835Y199670D02*
X197132Y199530D01*
X196537Y199132D01*
X196139Y198537D01*
X195999Y197835D01*
X196139Y197132D01*
X196537Y196537D01*
X197132Y196139D01*
X197835Y195999D01*
X198537Y196139D01*
X199132Y196537D01*
X199182Y196611D01*
X199311Y196681D01*
X199442Y196704D01*
X199727Y196685D01*
X199827Y196657D01*
X200675Y195809D01*
X200693Y195756D01*
X200743Y195701D01*
X200771Y195661D01*
X200799Y195611D01*
X200826Y195549D01*
X200851Y195474D01*
X200873Y195386D01*
X200890Y195292D01*
X200913Y195034D01*
X200915Y194888D01*
X200923Y194868D01*
X201060Y194180D01*
X201458Y193584D01*
X202054Y193186D01*
X202756Y193047D01*
X203458Y193186D01*
X204054Y193584D01*
X204451Y194180D01*
X204591Y194882D01*
X204506Y195311D01*
X204986Y195458D01*
X205205Y195224D01*
X205215Y195196D01*
X205233Y195124D01*
X205246Y195047D01*
X205255Y194962D01*
X205258Y194853D01*
X205280Y194806D01*
Y179604D01*
X205258Y179557D01*
X205255Y179447D01*
X205246Y179363D01*
X205233Y179285D01*
X205215Y179214D01*
X205192Y179148D01*
X205165Y179087D01*
X205134Y179030D01*
X205099Y178976D01*
X205057Y178925D01*
X204995Y178858D01*
X204985Y178832D01*
X204604Y178261D01*
X204464Y177559D01*
X204604Y176857D01*
X205001Y176261D01*
X205597Y175864D01*
X206299Y175724D01*
X207001Y175864D01*
X207597Y176261D01*
X207995Y176857D01*
X208135Y177559D01*
X207995Y178261D01*
X207613Y178832D01*
X207604Y178858D01*
X207541Y178925D01*
X207500Y178976D01*
X207464Y179031D01*
X207433Y179087D01*
X207406Y179148D01*
X207384Y179214D01*
X207366Y179285D01*
X207352Y179363D01*
X207344Y179447D01*
X207340Y179557D01*
X207319Y179604D01*
Y194806D01*
X207340Y194853D01*
X207344Y194962D01*
X207352Y195047D01*
X207366Y195124D01*
X207384Y195196D01*
X207406Y195261D01*
X207433Y195322D01*
X207464Y195379D01*
X207500Y195433D01*
X207541Y195485D01*
X207604Y195551D01*
X207613Y195577D01*
X207995Y196148D01*
X208135Y196850D01*
X207995Y197553D01*
X207597Y198148D01*
X207001Y198546D01*
X206299Y198686D01*
X205597Y198546D01*
X205001Y198148D01*
X204604Y197553D01*
X204464Y196850D01*
X204573Y196302D01*
X204102Y196107D01*
X204054Y196180D01*
X203458Y196577D01*
X202769Y196714D01*
X202750Y196723D01*
X202597Y196725D01*
X202469Y196733D01*
X202354Y196746D01*
X202252Y196764D01*
X202164Y196787D01*
X202089Y196812D01*
X202027Y196839D01*
X201977Y196867D01*
X201937Y196895D01*
X201882Y196944D01*
X201829Y196963D01*
X200380Y198411D01*
X200115Y198588D01*
X199938Y198624D01*
X199826Y198675D01*
X199739Y198679D01*
X199681Y198687D01*
X199629Y198699D01*
X199581Y198715D01*
X199536Y198736D01*
X199491Y198762D01*
X199446Y198794D01*
X199401Y198834D01*
X199355Y198882D01*
X199295Y198956D01*
X199269Y198970D01*
X199257Y198997D01*
X199209Y199017D01*
X199132Y199132D01*
X198537Y199530D01*
X197835Y199670D01*
D02*
G37*
G36*
X185039Y199079D02*
X184337Y198940D01*
X183742Y198542D01*
X183344Y197946D01*
X183204Y197244D01*
X183344Y196542D01*
X183734Y195958D01*
X183742Y195938D01*
X183849Y195828D01*
X183934Y195732D01*
X184006Y195641D01*
X184065Y195557D01*
X184111Y195478D01*
X184146Y195408D01*
X184171Y195345D01*
X184186Y195290D01*
X184195Y195242D01*
X184199Y195168D01*
X184224Y195117D01*
Y179686D01*
X184199Y179636D01*
X184195Y179561D01*
X184186Y179513D01*
X184171Y179458D01*
X184146Y179395D01*
X184111Y179325D01*
X184065Y179247D01*
X184010Y179168D01*
X183844Y178970D01*
X183742Y178865D01*
X183734Y178845D01*
X183344Y178261D01*
X183204Y177559D01*
X183344Y176857D01*
X183742Y176261D01*
X184337Y175864D01*
X185039Y175724D01*
X185742Y175864D01*
X186337Y176261D01*
X186735Y176857D01*
X186875Y177559D01*
X186735Y178261D01*
X186345Y178845D01*
X186337Y178865D01*
X186230Y178975D01*
X186145Y179071D01*
X186073Y179162D01*
X186014Y179247D01*
X185968Y179325D01*
X185932Y179395D01*
X185908Y179458D01*
X185892Y179513D01*
X185884Y179561D01*
X185880Y179636D01*
X185855Y179686D01*
Y195117D01*
X185880Y195168D01*
X185884Y195242D01*
X185892Y195290D01*
X185908Y195345D01*
X185932Y195408D01*
X185968Y195478D01*
X186014Y195557D01*
X186069Y195635D01*
X186235Y195834D01*
X186337Y195938D01*
X186345Y195958D01*
X186735Y196542D01*
X186875Y197244D01*
X186735Y197946D01*
X186337Y198542D01*
X185742Y198940D01*
X185039Y199079D01*
D02*
G37*
G36*
X47244Y204198D02*
X46542Y204058D01*
X45946Y203660D01*
X45548Y203064D01*
X45409Y202362D01*
X45548Y201660D01*
X45939Y201076D01*
X45947Y201056D01*
X46053Y200946D01*
X46139Y200850D01*
X46210Y200760D01*
X46269Y200675D01*
X46316Y200597D01*
X46351Y200526D01*
X46376Y200463D01*
X46391Y200408D01*
X46400Y200360D01*
X46404Y200286D01*
X46428Y200235D01*
Y197188D01*
X38596Y189356D01*
X38420Y189092D01*
X38357Y188779D01*
X38358Y188779D01*
Y174174D01*
X38333Y174124D01*
X38329Y174050D01*
X38320Y174002D01*
X38305Y173946D01*
X38280Y173884D01*
X38245Y173813D01*
X38199Y173735D01*
X38144Y173656D01*
X37977Y173458D01*
X37876Y173354D01*
X37868Y173333D01*
X37478Y172750D01*
X37338Y172047D01*
X37478Y171345D01*
X37876Y170749D01*
X38471Y170352D01*
X39173Y170212D01*
X39876Y170352D01*
X40471Y170749D01*
X40869Y171345D01*
X41008Y172047D01*
X40869Y172750D01*
X40479Y173333D01*
X40471Y173354D01*
X40364Y173463D01*
X40279Y173559D01*
X40207Y173650D01*
X40148Y173735D01*
X40101Y173813D01*
X40066Y173884D01*
X40042Y173946D01*
X40026Y174002D01*
X40018Y174050D01*
X40014Y174124D01*
X39989Y174174D01*
Y188442D01*
X47821Y196274D01*
X47998Y196538D01*
X48060Y196850D01*
X48060Y196850D01*
Y200235D01*
X48084Y200286D01*
X48089Y200360D01*
X48097Y200408D01*
X48113Y200463D01*
X48137Y200526D01*
X48172Y200597D01*
X48219Y200675D01*
X48273Y200753D01*
X48440Y200952D01*
X48542Y201056D01*
X48550Y201076D01*
X48940Y201660D01*
X49079Y202362D01*
X48940Y203064D01*
X48542Y203660D01*
X47946Y204058D01*
X47244Y204198D01*
D02*
G37*
G36*
X124803Y165615D02*
X124101Y165475D01*
X123517Y165085D01*
X123497Y165077D01*
X123387Y164970D01*
X123291Y164885D01*
X123201Y164813D01*
X123116Y164754D01*
X123038Y164708D01*
X122967Y164673D01*
X122904Y164648D01*
X122849Y164632D01*
X122801Y164624D01*
X122727Y164620D01*
X122676Y164595D01*
X107874D01*
X107874Y164595D01*
X107562Y164533D01*
X107297Y164356D01*
X107297Y164356D01*
X103993Y161052D01*
X85592D01*
X85541Y161076D01*
X85467Y161081D01*
X85419Y161089D01*
X85364Y161105D01*
X85301Y161129D01*
X85230Y161164D01*
X85152Y161211D01*
X85074Y161266D01*
X84875Y161432D01*
X84771Y161534D01*
X84751Y161542D01*
X84167Y161932D01*
X83465Y162072D01*
X82762Y161932D01*
X82167Y161534D01*
X81769Y160939D01*
X81629Y160236D01*
X81769Y159534D01*
X82167Y158939D01*
X82762Y158541D01*
X83465Y158401D01*
X84167Y158541D01*
X84751Y158931D01*
X84771Y158939D01*
X84880Y159046D01*
X84976Y159131D01*
X85067Y159203D01*
X85152Y159262D01*
X85230Y159308D01*
X85301Y159343D01*
X85364Y159368D01*
X85419Y159383D01*
X85467Y159392D01*
X85541Y159396D01*
X85592Y159421D01*
X104331D01*
X104331Y159421D01*
X104643Y159483D01*
X104908Y159659D01*
X108212Y162964D01*
X122676D01*
X122727Y162939D01*
X122801Y162935D01*
X122849Y162927D01*
X122904Y162911D01*
X122967Y162886D01*
X123038Y162851D01*
X123116Y162805D01*
X123194Y162750D01*
X123393Y162584D01*
X123497Y162482D01*
X123517Y162474D01*
X124101Y162084D01*
X124803Y161944D01*
X125505Y162084D01*
X126101Y162482D01*
X126499Y163077D01*
X126638Y163779D01*
X126499Y164482D01*
X126101Y165077D01*
X125505Y165475D01*
X124803Y165615D01*
D02*
G37*
G36*
X181102Y202229D02*
X180400Y202089D01*
X179805Y201691D01*
X179407Y201096D01*
X179267Y200394D01*
X179407Y199691D01*
X179797Y199108D01*
X179805Y199087D01*
X179912Y198978D01*
X179997Y198882D01*
X180069Y198791D01*
X180128Y198706D01*
X180174Y198628D01*
X180209Y198557D01*
X180234Y198495D01*
X180250Y198439D01*
X180258Y198391D01*
X180262Y198317D01*
X180287Y198266D01*
Y176930D01*
X180262Y176880D01*
X180258Y176805D01*
X180250Y176758D01*
X180234Y176702D01*
X180209Y176639D01*
X180174Y176569D01*
X180128Y176491D01*
X180073Y176412D01*
X179907Y176214D01*
X179805Y176110D01*
X179797Y176089D01*
X179407Y175505D01*
X179267Y174803D01*
X179407Y174101D01*
X179805Y173505D01*
X180400Y173108D01*
X181102Y172968D01*
X181805Y173108D01*
X182400Y173505D01*
X182798Y174101D01*
X182938Y174803D01*
X182798Y175505D01*
X182408Y176089D01*
X182400Y176110D01*
X182293Y176219D01*
X182208Y176315D01*
X182136Y176406D01*
X182077Y176491D01*
X182030Y176569D01*
X181995Y176639D01*
X181971Y176702D01*
X181955Y176758D01*
X181947Y176806D01*
X181943Y176880D01*
X181918Y176930D01*
Y198266D01*
X181943Y198317D01*
X181947Y198391D01*
X181955Y198439D01*
X181971Y198495D01*
X181995Y198557D01*
X182030Y198628D01*
X182077Y198706D01*
X182132Y198785D01*
X182298Y198983D01*
X182400Y199087D01*
X182408Y199108D01*
X182798Y199691D01*
X182938Y200394D01*
X182798Y201096D01*
X182400Y201691D01*
X181805Y202089D01*
X181102Y202229D01*
D02*
G37*
G36*
X124016Y194355D02*
X123313Y194215D01*
X122718Y193817D01*
X122320Y193222D01*
X122180Y192520D01*
X122320Y191817D01*
X122710Y191234D01*
X122718Y191213D01*
X122825Y191104D01*
X122910Y191008D01*
X122982Y190917D01*
X123041Y190832D01*
X123088Y190754D01*
X123123Y190683D01*
X123147Y190621D01*
X123163Y190565D01*
X123171Y190517D01*
X123176Y190443D01*
X123200Y190392D01*
Y179134D01*
X123200Y179134D01*
X123262Y178822D01*
X123439Y178557D01*
X126589Y175408D01*
X126589Y175408D01*
X126853Y175231D01*
X127165Y175169D01*
X127165Y175169D01*
X127794D01*
X127845Y175144D01*
X127919Y175140D01*
X127967Y175131D01*
X128022Y175116D01*
X128085Y175091D01*
X128156Y175056D01*
X128234Y175010D01*
X128312Y174955D01*
X128511Y174788D01*
X128615Y174687D01*
X128635Y174679D01*
X129219Y174289D01*
X129921Y174149D01*
X130624Y174289D01*
X131219Y174687D01*
X131617Y175282D01*
X131756Y175984D01*
X131617Y176687D01*
X131219Y177282D01*
X130624Y177680D01*
X129921Y177820D01*
X129219Y177680D01*
X128635Y177290D01*
X128615Y177282D01*
X128506Y177175D01*
X128409Y177090D01*
X128319Y177018D01*
X128234Y176959D01*
X128156Y176912D01*
X128085Y176877D01*
X128022Y176853D01*
X127967Y176837D01*
X127919Y176829D01*
X127845Y176824D01*
X127794Y176800D01*
X127503D01*
X124831Y179472D01*
Y190392D01*
X124856Y190443D01*
X124860Y190517D01*
X124869Y190565D01*
X124884Y190621D01*
X124909Y190683D01*
X124944Y190754D01*
X124990Y190832D01*
X125045Y190911D01*
X125212Y191109D01*
X125313Y191213D01*
X125321Y191234D01*
X125711Y191817D01*
X125851Y192520D01*
X125711Y193222D01*
X125313Y193817D01*
X124718Y194215D01*
X124016Y194355D01*
D02*
G37*
G36*
X11811Y191205D02*
X11109Y191066D01*
X10513Y190668D01*
X10115Y190072D01*
X9976Y189370D01*
X10115Y188668D01*
X10506Y188084D01*
X10514Y188064D01*
X10620Y187954D01*
X10705Y187858D01*
X10777Y187767D01*
X10836Y187683D01*
X10883Y187604D01*
X10918Y187534D01*
X10943Y187471D01*
X10958Y187416D01*
X10966Y187368D01*
X10971Y187294D01*
X10995Y187243D01*
Y162466D01*
X10495Y162297D01*
X10337Y162503D01*
X9760Y162946D01*
X9088Y163224D01*
X8366Y163319D01*
X5807D01*
X5086Y163224D01*
X4413Y162946D01*
X3836Y162503D01*
X3393Y161925D01*
X3114Y161253D01*
X3019Y160531D01*
X3114Y159810D01*
X3393Y159138D01*
X3836Y158560D01*
X4413Y158117D01*
X5086Y157839D01*
X5807Y157744D01*
X8366D01*
X9088Y157839D01*
X9760Y158117D01*
X10337Y158560D01*
X10495Y158766D01*
X10995Y158597D01*
Y131955D01*
X10495Y131785D01*
X10337Y131991D01*
X9760Y132434D01*
X9088Y132712D01*
X8366Y132807D01*
X5807D01*
X5086Y132712D01*
X4413Y132434D01*
X3836Y131991D01*
X3393Y131413D01*
X3115Y130741D01*
X3019Y130020D01*
X3115Y129298D01*
X3393Y128626D01*
X3836Y128049D01*
X4413Y127605D01*
X5086Y127327D01*
X5807Y127232D01*
X8366D01*
X9088Y127327D01*
X9760Y127605D01*
X10337Y128049D01*
X10510Y128273D01*
X11037Y128139D01*
X11057Y128034D01*
X11234Y127770D01*
X23833Y115171D01*
X24097Y114995D01*
X24409Y114932D01*
X24409Y114932D01*
X48087D01*
X60840Y102179D01*
X60840Y102179D01*
X61105Y102002D01*
X61417Y101940D01*
X108661D01*
X108661Y101940D01*
X108974Y102002D01*
X109238Y102179D01*
X122385Y115326D01*
X133858D01*
X133858Y115326D01*
X134170Y115388D01*
X134435Y115565D01*
X141128Y122258D01*
X141128Y122258D01*
X141305Y122522D01*
X141367Y122835D01*
X141367Y122835D01*
Y123070D01*
X141392Y123120D01*
X141396Y123195D01*
X141404Y123242D01*
X141420Y123298D01*
X141444Y123361D01*
X141479Y123431D01*
X141526Y123509D01*
X141580Y123588D01*
X141747Y123786D01*
X141849Y123890D01*
X141857Y123911D01*
X142247Y124495D01*
X142386Y125197D01*
X142247Y125899D01*
X141849Y126495D01*
X141253Y126892D01*
X140551Y127032D01*
X139849Y126892D01*
X139253Y126495D01*
X138856Y125899D01*
X138716Y125197D01*
X138856Y124495D01*
X139246Y123911D01*
X139254Y123890D01*
X139360Y123781D01*
X139446Y123685D01*
X139517Y123594D01*
X139576Y123509D01*
X139623Y123431D01*
X139658Y123361D01*
X139683Y123298D01*
X139698Y123242D01*
X139707Y123194D01*
X139709Y123146D01*
X133520Y116957D01*
X122047D01*
X122047Y116957D01*
X121735Y116895D01*
X121470Y116718D01*
X121470Y116718D01*
X108324Y103572D01*
X61755D01*
X49002Y116325D01*
X48737Y116502D01*
X48425Y116564D01*
X48425Y116564D01*
X24747D01*
X12627Y128684D01*
Y181835D01*
X13127Y181986D01*
X13262Y181785D01*
X13270Y181764D01*
X13376Y181655D01*
X13461Y181559D01*
X13533Y181468D01*
X13592Y181383D01*
X13639Y181305D01*
X13674Y181235D01*
X13698Y181172D01*
X13714Y181116D01*
X13722Y181069D01*
X13727Y180994D01*
X13751Y180944D01*
Y128740D01*
X13751Y128740D01*
X13813Y128428D01*
X13990Y128163D01*
X24620Y117534D01*
X24620Y117534D01*
X24885Y117357D01*
X25197Y117295D01*
X25197Y117295D01*
X49268D01*
X62022Y104541D01*
X62022Y104541D01*
X62286Y104365D01*
X62598Y104302D01*
X62599Y104302D01*
X107480D01*
X107480Y104302D01*
X107792Y104365D01*
X108057Y104541D01*
X121598Y118082D01*
X132283D01*
X132283Y118082D01*
X132596Y118144D01*
X132860Y118321D01*
X136797Y122258D01*
X136797Y122258D01*
X136974Y122522D01*
X137036Y122835D01*
X137036Y122835D01*
Y123070D01*
X137061Y123120D01*
X137065Y123195D01*
X137073Y123242D01*
X137089Y123298D01*
X137113Y123361D01*
X137149Y123431D01*
X137195Y123509D01*
X137250Y123588D01*
X137416Y123786D01*
X137518Y123890D01*
X137526Y123911D01*
X137916Y124495D01*
X138056Y125197D01*
X137916Y125899D01*
X137518Y126495D01*
X136923Y126892D01*
X136221Y127032D01*
X135518Y126892D01*
X134923Y126495D01*
X134525Y125899D01*
X134385Y125197D01*
X134525Y124495D01*
X134915Y123911D01*
X134923Y123890D01*
X135030Y123781D01*
X135115Y123685D01*
X135187Y123594D01*
X135246Y123509D01*
X135292Y123431D01*
X135327Y123361D01*
X135352Y123298D01*
X135368Y123242D01*
X135376Y123194D01*
X135379Y123146D01*
X131946Y119713D01*
X121260D01*
X121260Y119713D01*
X120948Y119651D01*
X120683Y119474D01*
X120683Y119474D01*
X107142Y105934D01*
X62936D01*
X50183Y118687D01*
X49918Y118864D01*
X49606Y118926D01*
X49606Y118926D01*
X25535D01*
X15383Y129078D01*
Y134958D01*
X15883Y135008D01*
X15959Y134624D01*
X16418Y133937D01*
X17104Y133479D01*
X17913Y133318D01*
X18261Y133387D01*
X18418Y133193D01*
X18515Y132927D01*
X18035Y132302D01*
X17697Y131486D01*
X17581Y130610D01*
X17697Y129735D01*
X18035Y128919D01*
X18572Y128218D01*
X19273Y127680D01*
X20089Y127342D01*
X20965Y127227D01*
X23130D01*
X24006Y127342D01*
X24822Y127680D01*
X25522Y128218D01*
X26060Y128919D01*
X26398Y129735D01*
X26513Y130610D01*
X26398Y131486D01*
X26060Y132302D01*
X25522Y133003D01*
X24822Y133540D01*
X24006Y133878D01*
X23130Y133993D01*
X20965D01*
X20089Y133878D01*
X19926Y133811D01*
X19595Y134215D01*
X19868Y134624D01*
X20029Y135433D01*
X19868Y136243D01*
X19409Y136929D01*
X18723Y137388D01*
X17913Y137548D01*
X17104Y137388D01*
X16418Y136929D01*
X15959Y136243D01*
X15883Y135859D01*
X15383Y135908D01*
Y154643D01*
X15883Y154692D01*
X15959Y154309D01*
X16418Y153622D01*
X17104Y153164D01*
X17913Y153003D01*
X18723Y153164D01*
X19409Y153622D01*
X19868Y154309D01*
X20029Y155118D01*
X19868Y155928D01*
X19595Y156336D01*
X19926Y156740D01*
X20089Y156673D01*
X20965Y156558D01*
X23130D01*
X24006Y156673D01*
X24822Y157011D01*
X25522Y157549D01*
X26060Y158249D01*
X26398Y159065D01*
X26513Y159941D01*
X26398Y160817D01*
X26060Y161633D01*
X25522Y162333D01*
X24822Y162871D01*
X24006Y163209D01*
X23130Y163324D01*
X20965D01*
X20089Y163209D01*
X19273Y162871D01*
X18572Y162333D01*
X18035Y161633D01*
X17697Y160817D01*
X17581Y159941D01*
X17697Y159065D01*
X18035Y158249D01*
X18515Y157624D01*
X18418Y157359D01*
X18261Y157165D01*
X17913Y157234D01*
X17104Y157072D01*
X16418Y156614D01*
X15959Y155928D01*
X15883Y155544D01*
X15383Y155593D01*
Y180944D01*
X15407Y180994D01*
X15412Y181069D01*
X15420Y181116D01*
X15435Y181172D01*
X15460Y181235D01*
X15495Y181305D01*
X15542Y181383D01*
X15596Y181462D01*
X15763Y181660D01*
X15864Y181764D01*
X15872Y181785D01*
X16262Y182369D01*
X16402Y183071D01*
X16262Y183773D01*
X15865Y184369D01*
X15269Y184766D01*
X14567Y184906D01*
X13865Y184766D01*
X13269Y184369D01*
X13127Y184155D01*
X12627Y184307D01*
Y187243D01*
X12651Y187294D01*
X12656Y187368D01*
X12664Y187416D01*
X12679Y187471D01*
X12704Y187534D01*
X12739Y187604D01*
X12786Y187683D01*
X12840Y187761D01*
X13007Y187960D01*
X13108Y188064D01*
X13116Y188084D01*
X13507Y188668D01*
X13646Y189370D01*
X13507Y190072D01*
X13109Y190668D01*
X12513Y191066D01*
X11811Y191205D01*
D02*
G37*
G36*
X96063Y153410D02*
X95361Y153270D01*
X94777Y152880D01*
X94757Y152872D01*
X94647Y152766D01*
X94551Y152680D01*
X94460Y152609D01*
X94375Y152550D01*
X94297Y152503D01*
X94227Y152468D01*
X94164Y152443D01*
X94109Y152428D01*
X94061Y152419D01*
X93986Y152415D01*
X93936Y152391D01*
X82442D01*
X82391Y152415D01*
X82317Y152419D01*
X82269Y152428D01*
X82214Y152443D01*
X82151Y152468D01*
X82081Y152503D01*
X82003Y152550D01*
X81924Y152604D01*
X81726Y152770D01*
X81621Y152872D01*
X81601Y152880D01*
X81017Y153270D01*
X80315Y153410D01*
X79613Y153270D01*
X79017Y152873D01*
X78619Y152277D01*
X78480Y151575D01*
X78619Y150873D01*
X79017Y150277D01*
X79613Y149879D01*
X80315Y149740D01*
X81017Y149879D01*
X81601Y150269D01*
X81621Y150277D01*
X81686Y150340D01*
X81795Y150382D01*
X81872Y150380D01*
X82148Y149938D01*
X82155Y149876D01*
X82023Y149213D01*
X82147Y148590D01*
X82093Y148406D01*
X81862Y148059D01*
X81765Y148050D01*
X81686Y148085D01*
X81621Y148148D01*
X81601Y148156D01*
X81017Y148546D01*
X80315Y148686D01*
X79613Y148546D01*
X79017Y148148D01*
X78619Y147553D01*
X78480Y146850D01*
X78619Y146148D01*
X79017Y145553D01*
X79277Y145379D01*
Y144778D01*
X79017Y144605D01*
X78619Y144009D01*
X78480Y143307D01*
X78619Y142605D01*
X78849Y142261D01*
X78582Y141761D01*
X76930D01*
X76880Y141785D01*
X76806Y141789D01*
X76758Y141798D01*
X76702Y141813D01*
X76639Y141838D01*
X76569Y141873D01*
X76491Y141920D01*
X76412Y141974D01*
X76214Y142141D01*
X76109Y142242D01*
X76089Y142250D01*
X75506Y142640D01*
X74803Y142780D01*
X74101Y142640D01*
X73505Y142243D01*
X73108Y141647D01*
X72968Y140945D01*
X73108Y140243D01*
X73484Y139680D01*
X73546Y139533D01*
Y139207D01*
X73484Y139060D01*
X73108Y138498D01*
X72968Y137795D01*
X73108Y137093D01*
X73505Y136498D01*
X74101Y136100D01*
X74469Y136027D01*
X74420Y135527D01*
X73545D01*
X73508Y135543D01*
X73245Y135549D01*
X73048Y135565D01*
X72983Y135575D01*
X72932Y135586D01*
X72903Y135594D01*
X72899Y135596D01*
X72881Y135606D01*
X72870Y135607D01*
X72866Y135608D01*
X72864Y135608D01*
X72356Y135948D01*
X71653Y136087D01*
X70951Y135948D01*
X70356Y135550D01*
X69958Y134954D01*
X69818Y134252D01*
X69958Y133550D01*
X70356Y132954D01*
X70951Y132556D01*
X71653Y132417D01*
X72356Y132556D01*
X72864Y132896D01*
X72866Y132896D01*
X72870Y132897D01*
X72881Y132898D01*
X72899Y132908D01*
X72903Y132910D01*
X72932Y132918D01*
X72983Y132929D01*
X73043Y132938D01*
X73371Y132959D01*
X73501Y132961D01*
X73540Y132977D01*
X115431D01*
X115469Y132961D01*
X115731Y132955D01*
X115928Y132939D01*
X115993Y132929D01*
X116044Y132918D01*
X116074Y132910D01*
X116078Y132908D01*
X116096Y132898D01*
X116106Y132897D01*
X116111Y132896D01*
X116113Y132896D01*
X116621Y132556D01*
X117323Y132417D01*
X118025Y132556D01*
X118621Y132954D01*
X119018Y133550D01*
X119158Y134252D01*
X119018Y134954D01*
X118621Y135550D01*
X118025Y135948D01*
X117323Y136087D01*
X116621Y135948D01*
X116113Y135608D01*
X116111Y135608D01*
X116106Y135607D01*
X116096Y135606D01*
X116078Y135596D01*
X116074Y135594D01*
X116044Y135586D01*
X115993Y135575D01*
X115933Y135566D01*
X115605Y135545D01*
X115475Y135543D01*
X115436Y135527D01*
X114163D01*
X114114Y136027D01*
X114482Y136100D01*
X115077Y136498D01*
X115475Y137093D01*
X115615Y137795D01*
X115475Y138498D01*
X115077Y139093D01*
X114482Y139491D01*
X113779Y139630D01*
X113077Y139491D01*
X112493Y139101D01*
X112473Y139093D01*
X112364Y138986D01*
X112268Y138901D01*
X112177Y138829D01*
X112092Y138770D01*
X112014Y138723D01*
X111943Y138688D01*
X111880Y138664D01*
X111825Y138648D01*
X111777Y138640D01*
X111703Y138636D01*
X111652Y138611D01*
X76930D01*
X76880Y138636D01*
X76806Y138640D01*
X76758Y138648D01*
X76702Y138664D01*
X76639Y138688D01*
X76569Y138723D01*
X76491Y138770D01*
X76412Y138825D01*
X76214Y138991D01*
X76135Y139068D01*
X76101Y139122D01*
X76060Y139260D01*
Y139480D01*
X76101Y139619D01*
X76135Y139672D01*
X76219Y139754D01*
X76315Y139839D01*
X76406Y139911D01*
X76491Y139970D01*
X76569Y140017D01*
X76639Y140052D01*
X76702Y140076D01*
X76758Y140092D01*
X76806Y140100D01*
X76880Y140105D01*
X76930Y140129D01*
X106928D01*
X106979Y140105D01*
X107053Y140100D01*
X107101Y140092D01*
X107156Y140076D01*
X107219Y140052D01*
X107290Y140017D01*
X107368Y139970D01*
X107446Y139916D01*
X107645Y139749D01*
X107749Y139647D01*
X107769Y139639D01*
X108353Y139249D01*
X109055Y139110D01*
X109757Y139249D01*
X110353Y139647D01*
X110751Y140243D01*
X110890Y140945D01*
X110751Y141647D01*
X110353Y142243D01*
X109757Y142640D01*
X109055Y142780D01*
X108353Y142640D01*
X107769Y142250D01*
X107749Y142242D01*
X107639Y142136D01*
X107543Y142051D01*
X107452Y141979D01*
X107368Y141920D01*
X107290Y141873D01*
X107219Y141838D01*
X107156Y141813D01*
X107101Y141798D01*
X107053Y141789D01*
X106979Y141785D01*
X106928Y141761D01*
X100945D01*
X100678Y142261D01*
X100908Y142605D01*
X101048Y143307D01*
X100908Y144009D01*
X100510Y144605D01*
X99915Y145003D01*
X99213Y145142D01*
X98510Y145003D01*
X97926Y144613D01*
X97906Y144605D01*
X97797Y144498D01*
X97701Y144413D01*
X97610Y144341D01*
X97525Y144282D01*
X97447Y144235D01*
X97376Y144200D01*
X97313Y144176D01*
X97258Y144160D01*
X97210Y144152D01*
X97136Y144147D01*
X97085Y144123D01*
X82442D01*
X82391Y144147D01*
X82317Y144152D01*
X82269Y144160D01*
X82214Y144176D01*
X82151Y144200D01*
X82081Y144235D01*
X82003Y144282D01*
X81924Y144336D01*
X81726Y144503D01*
X81621Y144605D01*
X81601Y144613D01*
X81353Y144778D01*
Y145379D01*
X81601Y145545D01*
X81621Y145553D01*
X81731Y145660D01*
X81827Y145745D01*
X81918Y145817D01*
X82003Y145876D01*
X82081Y145922D01*
X82151Y145957D01*
X82214Y145982D01*
X82269Y145998D01*
X82317Y146006D01*
X82391Y146010D01*
X82442Y146035D01*
X101416D01*
X101467Y146010D01*
X101541Y146006D01*
X101589Y145998D01*
X101644Y145982D01*
X101707Y145957D01*
X101778Y145922D01*
X101856Y145876D01*
X101934Y145821D01*
X102133Y145655D01*
X102237Y145553D01*
X102257Y145545D01*
X102841Y145155D01*
X103543Y145015D01*
X104246Y145155D01*
X104841Y145553D01*
X105239Y146148D01*
X105379Y146850D01*
X105239Y147553D01*
X104841Y148148D01*
X104246Y148546D01*
X103543Y148686D01*
X102841Y148546D01*
X102257Y148156D01*
X102237Y148148D01*
X102128Y148041D01*
X102031Y147956D01*
X101941Y147884D01*
X101856Y147825D01*
X101778Y147778D01*
X101707Y147743D01*
X101644Y147719D01*
X101589Y147703D01*
X101541Y147695D01*
X101467Y147691D01*
X101416Y147666D01*
X100945D01*
X100678Y148166D01*
X100908Y148510D01*
X101048Y149213D01*
X100908Y149915D01*
X100510Y150510D01*
X99915Y150908D01*
X99213Y151048D01*
X98510Y150908D01*
X98199Y150700D01*
X97790Y151028D01*
X97898Y151575D01*
X97759Y152277D01*
X97361Y152873D01*
X96765Y153270D01*
X96063Y153410D01*
D02*
G37*
G36*
X74803Y204591D02*
X74101Y204451D01*
X73505Y204054D01*
X73108Y203458D01*
X72968Y202756D01*
X73108Y202054D01*
X73447Y201546D01*
X73447Y201544D01*
X73448Y201539D01*
X73449Y201529D01*
X73460Y201511D01*
X73461Y201507D01*
X73470Y201478D01*
X73480Y201426D01*
X73489Y201366D01*
X73510Y201039D01*
X73512Y200908D01*
X73529Y200869D01*
Y190074D01*
X73513Y190044D01*
X73519Y190027D01*
X73512Y190010D01*
X73510Y189873D01*
X73506Y189762D01*
X73487Y189566D01*
X73477Y189505D01*
X73466Y189458D01*
X73458Y189433D01*
X73458Y189433D01*
X73454Y189426D01*
X73427Y189408D01*
X73029Y188813D01*
X72889Y188110D01*
X73029Y187408D01*
X73368Y186900D01*
X73368Y186898D01*
X73370Y186894D01*
X73371Y186883D01*
X73381Y186865D01*
X73383Y186861D01*
X73391Y186832D01*
X73401Y186781D01*
X73410Y186720D01*
X73432Y186393D01*
X73433Y186262D01*
X73450Y186223D01*
Y172103D01*
X69768Y168421D01*
X69492Y168007D01*
X69395Y167520D01*
Y165770D01*
X69378Y165732D01*
X69372Y165470D01*
X69356Y165273D01*
X69346Y165208D01*
X69336Y165156D01*
X69327Y165127D01*
X69326Y165123D01*
X69316Y165105D01*
X69314Y165094D01*
X69313Y165090D01*
X69313Y165088D01*
X68974Y164580D01*
X68834Y163878D01*
X68974Y163176D01*
X69372Y162580D01*
X69967Y162182D01*
X70566Y162063D01*
X70567Y162062D01*
X70572Y162060D01*
X70580Y162053D01*
X70600Y162047D01*
X70604Y162046D01*
X70630Y162031D01*
X70674Y162002D01*
X70723Y161966D01*
X70969Y161750D01*
X71063Y161658D01*
X71102Y161643D01*
X71954Y160791D01*
Y155252D01*
X66422Y149720D01*
X66145Y149307D01*
X66048Y148819D01*
Y131693D01*
X66145Y131205D01*
X66422Y130792D01*
X71580Y125633D01*
X71595Y125595D01*
X71776Y125405D01*
X71904Y125254D01*
X71943Y125201D01*
X71972Y125158D01*
X71987Y125131D01*
X71988Y125127D01*
X71994Y125107D01*
X72001Y125099D01*
X72003Y125095D01*
X72004Y125093D01*
X72123Y124495D01*
X72521Y123899D01*
X73117Y123501D01*
X73819Y123362D01*
X74521Y123501D01*
X75029Y123840D01*
X75031Y123840D01*
X75035Y123842D01*
X75046Y123843D01*
X75064Y123853D01*
X75068Y123855D01*
X75097Y123863D01*
X75148Y123874D01*
X75209Y123883D01*
X75536Y123904D01*
X75667Y123906D01*
X75706Y123922D01*
X90234D01*
X90272Y123906D01*
X90534Y123900D01*
X90731Y123883D01*
X90797Y123874D01*
X90847Y123863D01*
X90877Y123855D01*
X90881Y123853D01*
X90899Y123843D01*
X90909Y123842D01*
X90914Y123840D01*
X90916Y123840D01*
X91424Y123501D01*
X92126Y123362D01*
X92828Y123501D01*
X93424Y123899D01*
X93803Y124467D01*
X94286Y124941D01*
X94304Y124982D01*
X97575Y128253D01*
X115825D01*
X115862Y128236D01*
X116125Y128231D01*
X116322Y128214D01*
X116387Y128204D01*
X116438Y128194D01*
X116467Y128186D01*
X116471Y128184D01*
X116490Y128174D01*
X116500Y128173D01*
X116504Y128171D01*
X116507Y128171D01*
X117014Y127832D01*
X117717Y127692D01*
X118419Y127832D01*
X119014Y128230D01*
X119412Y128825D01*
X119552Y129527D01*
X119412Y130230D01*
X119014Y130825D01*
X118419Y131223D01*
X117717Y131363D01*
X117014Y131223D01*
X116507Y130884D01*
X116504Y130884D01*
X116500Y130882D01*
X116490Y130881D01*
X116471Y130871D01*
X116467Y130869D01*
X116438Y130861D01*
X116387Y130851D01*
X116327Y130842D01*
X115999Y130820D01*
X115869Y130819D01*
X115830Y130802D01*
X97047D01*
X96560Y130705D01*
X96146Y130429D01*
X92999Y127281D01*
X92962Y127267D01*
X92773Y127091D01*
X92705Y127035D01*
X92646Y126991D01*
X92601Y126963D01*
X92574Y126949D01*
X92571Y126948D01*
X92560Y126946D01*
X92126Y127032D01*
X91424Y126892D01*
X90916Y126553D01*
X90914Y126553D01*
X90909Y126552D01*
X90899Y126550D01*
X90881Y126540D01*
X90877Y126539D01*
X90848Y126531D01*
X90796Y126520D01*
X90736Y126511D01*
X90409Y126489D01*
X90278Y126488D01*
X90239Y126471D01*
X75711D01*
X75673Y126488D01*
X75411Y126494D01*
X75213Y126510D01*
X75148Y126520D01*
X75097Y126531D01*
X75068Y126539D01*
X75064Y126540D01*
X75046Y126550D01*
X75035Y126552D01*
X75031Y126553D01*
X75029Y126553D01*
X74521Y126892D01*
X73922Y127012D01*
X73921Y127013D01*
X73917Y127015D01*
X73909Y127022D01*
X73888Y127027D01*
X73884Y127029D01*
X73858Y127044D01*
X73814Y127073D01*
X73765Y127109D01*
X73519Y127325D01*
X73425Y127417D01*
X73386Y127432D01*
X68597Y132221D01*
Y148291D01*
X74129Y153823D01*
X74406Y154237D01*
X74503Y154724D01*
Y161319D01*
X74406Y161807D01*
X74129Y162220D01*
X72908Y163441D01*
X72893Y163480D01*
X72712Y163669D01*
X72584Y163821D01*
X72545Y163874D01*
X72516Y163917D01*
X72501Y163944D01*
X72500Y163947D01*
X72494Y163968D01*
X72487Y163976D01*
X72486Y163980D01*
X72484Y163981D01*
X72365Y164580D01*
X72026Y165088D01*
X72026Y165090D01*
X72024Y165094D01*
X72023Y165105D01*
X72013Y165123D01*
X72011Y165127D01*
X72003Y165156D01*
X71992Y165208D01*
X71983Y165268D01*
X71962Y165595D01*
X71961Y165726D01*
X71944Y165765D01*
Y166992D01*
X75626Y170674D01*
X75902Y171087D01*
X75999Y171575D01*
Y186219D01*
X76016Y186256D01*
X76021Y186519D01*
X76038Y186716D01*
X76047Y186781D01*
X76058Y186832D01*
X76066Y186861D01*
X76068Y186865D01*
X76078Y186883D01*
X76079Y186894D01*
X76081Y186898D01*
X76081Y186900D01*
X76420Y187408D01*
X76560Y188110D01*
X76420Y188813D01*
X76154Y189211D01*
X76152Y189232D01*
X76153Y189239D01*
X76152Y189242D01*
X76152Y189251D01*
X76143Y189270D01*
X76140Y189277D01*
X76132Y189310D01*
X76125Y189351D01*
X76095Y189768D01*
X76094Y189897D01*
X76078Y189936D01*
Y200864D01*
X76094Y200902D01*
X76100Y201164D01*
X76117Y201361D01*
X76126Y201426D01*
X76137Y201478D01*
X76145Y201507D01*
X76147Y201511D01*
X76157Y201529D01*
X76158Y201539D01*
X76160Y201544D01*
X76160Y201546D01*
X76499Y202054D01*
X76638Y202756D01*
X76499Y203458D01*
X76101Y204054D01*
X75506Y204451D01*
X74803Y204591D01*
D02*
G37*
G36*
X103150Y216402D02*
X102447Y216263D01*
X101852Y215865D01*
X101454Y215269D01*
X101314Y214567D01*
X101454Y213865D01*
X101844Y213281D01*
X101852Y213261D01*
X101959Y213151D01*
X102044Y213055D01*
X102116Y212964D01*
X102175Y212879D01*
X102222Y212801D01*
X102257Y212731D01*
X102281Y212668D01*
X102297Y212613D01*
X102305Y212564D01*
X102309Y212491D01*
X102334Y212440D01*
Y197638D01*
X102334Y197638D01*
X102396Y197326D01*
X102573Y197061D01*
X103431Y196203D01*
X103449Y196150D01*
X103499Y196094D01*
X103527Y196054D01*
X103555Y196004D01*
X103582Y195943D01*
X103607Y195868D01*
X103629Y195780D01*
X103646Y195686D01*
X103669Y195428D01*
X103671Y195282D01*
X103679Y195262D01*
X103816Y194573D01*
X104214Y193978D01*
X104809Y193580D01*
X105512Y193440D01*
X106214Y193580D01*
X106809Y193978D01*
X107207Y194573D01*
X107347Y195276D01*
X107207Y195978D01*
X106809Y196573D01*
X106214Y196971D01*
X105525Y197108D01*
X105506Y197117D01*
X105353Y197119D01*
X105225Y197126D01*
X105109Y197140D01*
X105008Y197158D01*
X104920Y197180D01*
X104845Y197206D01*
X104783Y197233D01*
X104733Y197261D01*
X104693Y197289D01*
X104638Y197338D01*
X104584Y197357D01*
X103965Y197976D01*
Y212440D01*
X103990Y212491D01*
X103994Y212565D01*
X104002Y212613D01*
X104018Y212668D01*
X104043Y212731D01*
X104078Y212801D01*
X104124Y212879D01*
X104179Y212958D01*
X104345Y213156D01*
X104447Y213261D01*
X104455Y213281D01*
X104845Y213865D01*
X104985Y214567D01*
X104845Y215269D01*
X104447Y215865D01*
X103852Y216263D01*
X103150Y216402D01*
D02*
G37*
G36*
X35925Y197800D02*
X35223Y197660D01*
X34715Y197321D01*
X34713Y197321D01*
X34709Y197319D01*
X34698Y197318D01*
X34680Y197308D01*
X34676Y197307D01*
X34647Y197298D01*
X34596Y197288D01*
X34535Y197279D01*
X34208Y197257D01*
X34077Y197256D01*
X34038Y197239D01*
X23917D01*
X23430Y197142D01*
X23016Y196866D01*
X20359Y194208D01*
X20082Y193795D01*
X19985Y193307D01*
Y189764D01*
X20082Y189276D01*
X20359Y188863D01*
X21560Y187661D01*
Y170079D01*
X21657Y169591D01*
X21933Y169177D01*
X23508Y167603D01*
X23922Y167326D01*
X24409Y167229D01*
X30870D01*
X33686Y164413D01*
X33701Y164375D01*
X33882Y164185D01*
X34010Y164034D01*
X34050Y163981D01*
X34078Y163937D01*
X34093Y163911D01*
X34095Y163907D01*
X34100Y163887D01*
X34107Y163879D01*
X34109Y163874D01*
X34111Y163873D01*
X34230Y163274D01*
X34628Y162679D01*
X35223Y162281D01*
X35925Y162141D01*
X36628Y162281D01*
X37223Y162679D01*
X37621Y163274D01*
X37760Y163976D01*
X37621Y164679D01*
X37223Y165274D01*
X36628Y165672D01*
X36029Y165791D01*
X36027Y165793D01*
X36023Y165795D01*
X36015Y165801D01*
X35995Y165807D01*
X35991Y165809D01*
X35964Y165823D01*
X35921Y165852D01*
X35872Y165889D01*
X35625Y166105D01*
X35532Y166196D01*
X35492Y166212D01*
X32299Y169405D01*
X31885Y169681D01*
X31398Y169778D01*
X24937D01*
X24109Y170607D01*
Y188189D01*
X24012Y188677D01*
X23736Y189090D01*
X22534Y190292D01*
Y192779D01*
X24445Y194690D01*
X34033D01*
X34071Y194674D01*
X34334Y194667D01*
X34531Y194651D01*
X34596Y194641D01*
X34647Y194631D01*
X34676Y194623D01*
X34680Y194621D01*
X34698Y194611D01*
X34709Y194610D01*
X34713Y194608D01*
X34715Y194608D01*
X35223Y194269D01*
X35925Y194129D01*
X36628Y194269D01*
X37223Y194667D01*
X37621Y195262D01*
X37760Y195965D01*
X37621Y196667D01*
X37223Y197262D01*
X36628Y197660D01*
X35925Y197800D01*
D02*
G37*
G36*
X147951Y205053D02*
X144951D01*
Y202053D01*
X147951D01*
Y205053D01*
D02*
G37*
G36*
X131890Y127032D02*
X131187Y126892D01*
X130604Y126502D01*
X130583Y126494D01*
X130474Y126388D01*
X130378Y126302D01*
X130287Y126231D01*
X130202Y126172D01*
X130124Y126125D01*
X130053Y126090D01*
X129990Y126065D01*
X129935Y126050D01*
X129887Y126041D01*
X129813Y126037D01*
X129762Y126013D01*
X100787D01*
X100475Y125950D01*
X100211Y125774D01*
X100211Y125774D01*
X96513Y122075D01*
X71025D01*
X70974Y122100D01*
X70900Y122104D01*
X70852Y122113D01*
X70797Y122128D01*
X70734Y122153D01*
X70663Y122188D01*
X70585Y122234D01*
X70507Y122289D01*
X70308Y122456D01*
X70204Y122557D01*
X70184Y122565D01*
X69600Y122955D01*
X68898Y123095D01*
X68195Y122955D01*
X67600Y122558D01*
X67202Y121962D01*
X67062Y121260D01*
X67202Y120557D01*
X67600Y119962D01*
X68195Y119564D01*
X68898Y119425D01*
X69600Y119564D01*
X70184Y119954D01*
X70204Y119963D01*
X70313Y120069D01*
X70410Y120154D01*
X70500Y120226D01*
X70585Y120285D01*
X70663Y120332D01*
X70734Y120367D01*
X70797Y120391D01*
X70852Y120407D01*
X70900Y120415D01*
X70974Y120420D01*
X71025Y120444D01*
X96850D01*
X96850Y120444D01*
X97162Y120506D01*
X97427Y120683D01*
X101125Y124381D01*
X129762D01*
X129813Y124357D01*
X129887Y124352D01*
X129935Y124344D01*
X129990Y124328D01*
X130053Y124304D01*
X130124Y124269D01*
X130202Y124222D01*
X130281Y124168D01*
X130479Y124001D01*
X130583Y123899D01*
X130604Y123891D01*
X131187Y123501D01*
X131890Y123362D01*
X132592Y123501D01*
X133187Y123899D01*
X133585Y124495D01*
X133725Y125197D01*
X133585Y125899D01*
X133187Y126495D01*
X132592Y126892D01*
X131890Y127032D01*
D02*
G37*
G36*
X128740Y194355D02*
X128038Y194215D01*
X127442Y193817D01*
X127045Y193222D01*
X126905Y192520D01*
X127045Y191817D01*
X127427Y191246D01*
X127436Y191220D01*
X127661Y190982D01*
X127738Y190887D01*
X127805Y190796D01*
X127857Y190713D01*
X127896Y190640D01*
X127923Y190578D01*
X127938Y190529D01*
X127946Y190491D01*
X127950Y190427D01*
X127975Y190376D01*
Y184427D01*
X127950Y184376D01*
X127946Y184312D01*
X127938Y184274D01*
X127923Y184225D01*
X127896Y184163D01*
X127857Y184090D01*
X127805Y184007D01*
X127742Y183921D01*
X127557Y183706D01*
X127444Y183591D01*
X127436Y183572D01*
X127045Y182986D01*
X126905Y182283D01*
X127045Y181581D01*
X127442Y180986D01*
X128038Y180588D01*
X128740Y180448D01*
X129443Y180588D01*
X130038Y180986D01*
X130436Y181581D01*
X130575Y182283D01*
X130436Y182986D01*
X130054Y183557D01*
X130044Y183583D01*
X129820Y183821D01*
X129742Y183916D01*
X129675Y184007D01*
X129623Y184090D01*
X129584Y184163D01*
X129558Y184225D01*
X129542Y184274D01*
X129534Y184312D01*
X129530Y184376D01*
X129505Y184427D01*
Y190376D01*
X129530Y190427D01*
X129534Y190491D01*
X129542Y190529D01*
X129558Y190578D01*
X129584Y190640D01*
X129623Y190713D01*
X129675Y190796D01*
X129738Y190882D01*
X129923Y191097D01*
X130036Y191212D01*
X130044Y191231D01*
X130436Y191817D01*
X130575Y192520D01*
X130436Y193222D01*
X130038Y193817D01*
X129443Y194215D01*
X128740Y194355D01*
D02*
G37*
G36*
X111811Y191599D02*
X111109Y191459D01*
X110513Y191061D01*
X110116Y190466D01*
X109978Y189777D01*
X109970Y189758D01*
X109968Y189605D01*
X109960Y189477D01*
X109947Y189361D01*
X109929Y189260D01*
X109906Y189172D01*
X109881Y189097D01*
X109854Y189035D01*
X109826Y188985D01*
X109798Y188945D01*
X109749Y188890D01*
X109730Y188836D01*
X105329Y184435D01*
X105152Y184170D01*
X105090Y183858D01*
X105090Y183858D01*
Y182836D01*
X105065Y182785D01*
X105061Y182711D01*
X105053Y182663D01*
X105037Y182608D01*
X105012Y182545D01*
X104977Y182474D01*
X104931Y182396D01*
X104876Y182318D01*
X104710Y182119D01*
X104608Y182015D01*
X104600Y181995D01*
X104210Y181411D01*
X104070Y180709D01*
X104210Y180006D01*
X104608Y179411D01*
X105203Y179013D01*
X105905Y178873D01*
X106608Y179013D01*
X107203Y179411D01*
X107601Y180006D01*
X107741Y180709D01*
X107601Y181411D01*
X107211Y181995D01*
X107203Y182015D01*
X107096Y182124D01*
X107011Y182220D01*
X106939Y182311D01*
X106880Y182396D01*
X106834Y182474D01*
X106799Y182545D01*
X106774Y182608D01*
X106758Y182663D01*
X106750Y182711D01*
X106746Y182785D01*
X106721Y182836D01*
Y183520D01*
X110884Y187683D01*
X110937Y187701D01*
X110992Y187751D01*
X111032Y187779D01*
X111082Y187807D01*
X111144Y187834D01*
X111219Y187859D01*
X111307Y187881D01*
X111401Y187898D01*
X111659Y187921D01*
X111805Y187923D01*
X111825Y187931D01*
X112513Y188068D01*
X113109Y188466D01*
X113507Y189061D01*
X113646Y189764D01*
X113507Y190466D01*
X113109Y191061D01*
X112513Y191459D01*
X111811Y191599D01*
D02*
G37*
G36*
X176378Y197504D02*
X175676Y197365D01*
X175080Y196967D01*
X174682Y196372D01*
X174543Y195669D01*
X174682Y194967D01*
X175073Y194383D01*
X175081Y194363D01*
X175187Y194254D01*
X175272Y194157D01*
X175344Y194067D01*
X175403Y193982D01*
X175450Y193904D01*
X175485Y193833D01*
X175510Y193770D01*
X175525Y193715D01*
X175533Y193667D01*
X175538Y193593D01*
X175562Y193542D01*
Y191891D01*
X175538Y191840D01*
X175533Y191766D01*
X175525Y191718D01*
X175509Y191663D01*
X175485Y191600D01*
X175450Y191529D01*
X175403Y191451D01*
X175349Y191373D01*
X175182Y191174D01*
X175081Y191070D01*
X175073Y191050D01*
X174682Y190466D01*
X174543Y189764D01*
X174682Y189061D01*
X175080Y188466D01*
X175676Y188068D01*
X176378Y187928D01*
X177080Y188068D01*
X177676Y188466D01*
X178074Y189061D01*
X178213Y189764D01*
X178074Y190466D01*
X177683Y191050D01*
X177675Y191070D01*
X177569Y191180D01*
X177483Y191276D01*
X177412Y191366D01*
X177353Y191451D01*
X177306Y191529D01*
X177271Y191600D01*
X177246Y191663D01*
X177231Y191718D01*
X177223Y191766D01*
X177218Y191840D01*
X177194Y191891D01*
Y193542D01*
X177218Y193593D01*
X177223Y193667D01*
X177231Y193715D01*
X177246Y193770D01*
X177271Y193833D01*
X177306Y193904D01*
X177353Y193982D01*
X177407Y194060D01*
X177574Y194259D01*
X177675Y194363D01*
X177683Y194383D01*
X178074Y194967D01*
X178213Y195669D01*
X178074Y196372D01*
X177676Y196967D01*
X177080Y197365D01*
X176378Y197504D01*
D02*
G37*
G36*
X225394Y161087D02*
X224691Y160948D01*
X224096Y160550D01*
X223698Y159954D01*
X223558Y159252D01*
X223698Y158550D01*
X224084Y157971D01*
X224093Y157949D01*
X224178Y157860D01*
X224242Y157785D01*
X224295Y157712D01*
X224340Y157641D01*
X224376Y157572D01*
X224404Y157504D01*
X224425Y157438D01*
X224440Y157372D01*
X224449Y157304D01*
X224453Y157211D01*
X224476Y157162D01*
Y135358D01*
X224453Y135308D01*
X224449Y135215D01*
X224440Y135148D01*
X224425Y135082D01*
X224404Y135015D01*
X224376Y134948D01*
X224340Y134879D01*
X224295Y134808D01*
X224242Y134735D01*
X224185Y134667D01*
X224098Y134612D01*
X224007Y134560D01*
X223920Y134517D01*
X223836Y134481D01*
X223755Y134453D01*
X223677Y134432D01*
X223602Y134417D01*
X223530Y134409D01*
X223438Y134405D01*
X223387Y134382D01*
X220200D01*
X220151Y134405D01*
X220058Y134409D01*
X219990Y134418D01*
X219924Y134433D01*
X219858Y134455D01*
X219790Y134483D01*
X219721Y134519D01*
X219650Y134563D01*
X219577Y134616D01*
X219502Y134680D01*
X219414Y134765D01*
X219391Y134774D01*
X218813Y135160D01*
X218110Y135300D01*
X217408Y135160D01*
X216812Y134762D01*
X216415Y134167D01*
X216275Y133465D01*
X216415Y132762D01*
X216812Y132167D01*
X217408Y131769D01*
X218110Y131629D01*
X218813Y131769D01*
X219391Y132155D01*
X219414Y132164D01*
X219502Y132249D01*
X219577Y132313D01*
X219650Y132366D01*
X219721Y132411D01*
X219790Y132447D01*
X219858Y132475D01*
X219924Y132496D01*
X219990Y132511D01*
X220058Y132520D01*
X220151Y132524D01*
X220200Y132547D01*
X223216D01*
X223243Y132530D01*
X223275Y132538D01*
X223305Y132524D01*
X223398Y132520D01*
X223460Y132511D01*
X223518Y132496D01*
X223572Y132477D01*
X223625Y132451D01*
X223677Y132418D01*
X223731Y132377D01*
X223786Y132327D01*
X223842Y132265D01*
X223911Y132177D01*
X223987Y132134D01*
X224096Y131970D01*
X224691Y131572D01*
X225394Y131432D01*
X226096Y131572D01*
X226691Y131970D01*
X227089Y132565D01*
X227229Y133268D01*
X227089Y133970D01*
X226703Y134548D01*
X226694Y134571D01*
X226609Y134659D01*
X226546Y134735D01*
X226492Y134808D01*
X226448Y134879D01*
X226412Y134948D01*
X226384Y135015D01*
X226362Y135082D01*
X226347Y135148D01*
X226339Y135215D01*
X226334Y135308D01*
X226311Y135358D01*
Y157162D01*
X226334Y157211D01*
X226339Y157304D01*
X226347Y157372D01*
X226362Y157438D01*
X226384Y157504D01*
X226412Y157572D01*
X226448Y157641D01*
X226492Y157712D01*
X226546Y157785D01*
X226609Y157860D01*
X226694Y157949D01*
X226703Y157971D01*
X227089Y158550D01*
X227229Y159252D01*
X227089Y159954D01*
X226691Y160550D01*
X226096Y160948D01*
X225394Y161087D01*
D02*
G37*
G36*
X100000Y219552D02*
X99298Y219412D01*
X98702Y219014D01*
X98304Y218419D01*
X98165Y217717D01*
X98304Y217014D01*
X98686Y216442D01*
X98696Y216417D01*
X98921Y216179D01*
X98998Y216084D01*
X99065Y215993D01*
X99117Y215910D01*
X99156Y215837D01*
X99183Y215775D01*
X99198Y215726D01*
X99206Y215688D01*
X99210Y215624D01*
X99235Y215573D01*
Y193482D01*
X99210Y193431D01*
X99206Y193367D01*
X99198Y193330D01*
X99183Y193280D01*
X99156Y193218D01*
X99117Y193145D01*
X99065Y193062D01*
X99002Y192976D01*
X98817Y192761D01*
X98704Y192646D01*
X98696Y192627D01*
X98304Y192041D01*
X98165Y191339D01*
X98304Y190636D01*
X98702Y190041D01*
X99298Y189643D01*
X100000Y189503D01*
X100702Y189643D01*
X101298Y190041D01*
X101696Y190636D01*
X101835Y191339D01*
X101696Y192041D01*
X101314Y192613D01*
X101304Y192638D01*
X101079Y192876D01*
X101002Y192971D01*
X100935Y193062D01*
X100883Y193145D01*
X100844Y193218D01*
X100817Y193280D01*
X100802Y193330D01*
X100794Y193367D01*
X100790Y193431D01*
X100765Y193482D01*
Y215573D01*
X100790Y215624D01*
X100794Y215688D01*
X100802Y215726D01*
X100817Y215775D01*
X100844Y215837D01*
X100883Y215910D01*
X100935Y215993D01*
X100998Y216079D01*
X101183Y216294D01*
X101296Y216409D01*
X101304Y216428D01*
X101696Y217014D01*
X101835Y217717D01*
X101696Y218419D01*
X101298Y219014D01*
X100702Y219412D01*
X100000Y219552D01*
D02*
G37*
G36*
X125984Y245930D02*
X125282Y245790D01*
X124698Y245400D01*
X124678Y245392D01*
X124568Y245285D01*
X124472Y245200D01*
X124382Y245128D01*
X124297Y245069D01*
X124219Y245023D01*
X124148Y244988D01*
X124085Y244963D01*
X124030Y244947D01*
X123982Y244939D01*
X123908Y244935D01*
X123857Y244910D01*
X119844D01*
X119793Y244935D01*
X119719Y244939D01*
X119671Y244947D01*
X119616Y244963D01*
X119553Y244988D01*
X119482Y245023D01*
X119404Y245069D01*
X119326Y245124D01*
X119127Y245290D01*
X119023Y245392D01*
X119003Y245400D01*
X118419Y245790D01*
X117717Y245930D01*
X117014Y245790D01*
X116419Y245392D01*
X116021Y244797D01*
X115881Y244094D01*
X116021Y243392D01*
X116419Y242797D01*
X117014Y242399D01*
X117717Y242259D01*
X118419Y242399D01*
X119003Y242789D01*
X119023Y242797D01*
X119132Y242904D01*
X119228Y242989D01*
X119319Y243061D01*
X119404Y243120D01*
X119482Y243166D01*
X119553Y243201D01*
X119616Y243226D01*
X119671Y243242D01*
X119719Y243250D01*
X119793Y243254D01*
X119844Y243279D01*
X123857D01*
X123908Y243254D01*
X123982Y243250D01*
X124030Y243242D01*
X124085Y243226D01*
X124148Y243201D01*
X124219Y243166D01*
X124297Y243120D01*
X124375Y243065D01*
X124574Y242899D01*
X124678Y242797D01*
X124698Y242789D01*
X125282Y242399D01*
X125984Y242259D01*
X126687Y242399D01*
X127282Y242797D01*
X127680Y243392D01*
X127820Y244094D01*
X127680Y244797D01*
X127282Y245392D01*
X126687Y245790D01*
X125984Y245930D01*
D02*
G37*
G36*
X222596Y286337D02*
X219465D01*
X219502Y286056D01*
X219899Y285096D01*
X220532Y284272D01*
X221356Y283639D01*
X222316Y283242D01*
X222596Y283205D01*
Y286337D01*
D02*
G37*
G36*
X189079D02*
X185947D01*
Y283205D01*
X186227Y283242D01*
X187187Y283639D01*
X188012Y284272D01*
X188644Y285096D01*
X189042Y286056D01*
X189079Y286337D01*
D02*
G37*
G36*
X222596Y290968D02*
X222316Y290932D01*
X221356Y290534D01*
X220532Y289901D01*
X219899Y289077D01*
X219502Y288117D01*
X219465Y287837D01*
X222596D01*
Y290968D01*
D02*
G37*
G36*
X269841Y286337D02*
X266709D01*
X266746Y286056D01*
X267143Y285096D01*
X267776Y284272D01*
X268600Y283639D01*
X269560Y283242D01*
X269841Y283205D01*
Y286337D01*
D02*
G37*
G36*
X184447Y290968D02*
X184167Y290932D01*
X183207Y290534D01*
X182382Y289901D01*
X181750Y289077D01*
X181352Y288117D01*
X181315Y287837D01*
X184447D01*
Y290968D01*
D02*
G37*
G36*
Y286337D02*
X181315D01*
X181352Y286056D01*
X181750Y285096D01*
X182382Y284272D01*
X183207Y283639D01*
X184167Y283242D01*
X184447Y283205D01*
Y286337D01*
D02*
G37*
G36*
X20669Y31044D02*
X19046Y30916D01*
X17463Y30536D01*
X15959Y29913D01*
X14571Y29062D01*
X13333Y28005D01*
X12276Y26767D01*
X11426Y25379D01*
X10802Y23875D01*
X10423Y22292D01*
X10295Y20669D01*
X10423Y19046D01*
X10802Y17463D01*
X11426Y15959D01*
X12276Y14571D01*
X13333Y13333D01*
X14571Y12276D01*
X15959Y11426D01*
X17463Y10802D01*
X19046Y10423D01*
X20669Y10295D01*
X22292Y10423D01*
X23875Y10802D01*
X25379Y11426D01*
X26767Y12276D01*
X28005Y13333D01*
X29062Y14571D01*
X29913Y15959D01*
X30536Y17463D01*
X30916Y19046D01*
X31044Y20669D01*
X30916Y22292D01*
X30536Y23875D01*
X29913Y25379D01*
X29062Y26767D01*
X28005Y28005D01*
X26767Y29062D01*
X25379Y29913D01*
X23875Y30536D01*
X22292Y30916D01*
X20669Y31044D01*
D02*
G37*
G36*
X274606D02*
X272983Y30916D01*
X271400Y30536D01*
X269896Y29913D01*
X268508Y29062D01*
X267270Y28005D01*
X266213Y26767D01*
X265363Y25379D01*
X264740Y23875D01*
X264359Y22292D01*
X264232Y20669D01*
X264359Y19046D01*
X264740Y17463D01*
X265363Y15959D01*
X266213Y14571D01*
X267270Y13333D01*
X268508Y12276D01*
X269896Y11426D01*
X271400Y10802D01*
X272983Y10423D01*
X274606Y10295D01*
X276229Y10423D01*
X277812Y10802D01*
X279316Y11426D01*
X280704Y12276D01*
X281942Y13333D01*
X282999Y14571D01*
X283850Y15959D01*
X284473Y17463D01*
X284853Y19046D01*
X284981Y20669D01*
X284853Y22292D01*
X284473Y23875D01*
X283850Y25379D01*
X282999Y26767D01*
X281942Y28005D01*
X280704Y29062D01*
X279316Y29913D01*
X277812Y30536D01*
X276229Y30916D01*
X274606Y31044D01*
D02*
G37*
G36*
X131992Y286337D02*
X128860D01*
Y283205D01*
X129140Y283242D01*
X130101Y283639D01*
X130925Y284272D01*
X131557Y285096D01*
X131955Y286056D01*
X131992Y286337D01*
D02*
G37*
G36*
X227228D02*
X224096D01*
Y283205D01*
X224377Y283242D01*
X225337Y283639D01*
X226161Y284272D01*
X226794Y285096D01*
X227191Y286056D01*
X227228Y286337D01*
D02*
G37*
G36*
X274472D02*
X271340D01*
Y283205D01*
X271621Y283242D01*
X272581Y283639D01*
X273405Y284272D01*
X274038Y285096D01*
X274435Y286056D01*
X274472Y286337D01*
D02*
G37*
G36*
X280591Y290966D02*
X279586Y290834D01*
X278651Y290446D01*
X277847Y289830D01*
X277231Y289026D01*
X276843Y288091D01*
X276711Y287087D01*
X276843Y286083D01*
X277231Y285147D01*
X277847Y284343D01*
X278651Y283727D01*
X279586Y283339D01*
X280591Y283207D01*
X281595Y283339D01*
X282530Y283727D01*
X283334Y284343D01*
X283950Y285147D01*
X284338Y286083D01*
X284470Y287087D01*
X284338Y288091D01*
X283950Y289026D01*
X283334Y289830D01*
X282530Y290446D01*
X281595Y290834D01*
X280591Y290966D01*
D02*
G37*
G36*
X159043Y290933D02*
X151350D01*
Y285288D01*
X151328Y285251D01*
X151338Y285208D01*
X151321Y285166D01*
X151350Y285096D01*
Y284831D01*
X151320Y284777D01*
X151235Y284655D01*
X150952Y284320D01*
X150766Y284128D01*
X150746Y284078D01*
X146917Y280248D01*
X146696Y279918D01*
X146618Y279528D01*
Y273304D01*
X146597Y273257D01*
X146593Y273148D01*
X146585Y273063D01*
X146571Y272986D01*
X146553Y272915D01*
X146531Y272849D01*
X146504Y272788D01*
X146473Y272731D01*
X146437Y272677D01*
X146396Y272625D01*
X146334Y272559D01*
X146324Y272533D01*
X145942Y271962D01*
X145802Y271260D01*
X145942Y270557D01*
X146340Y269962D01*
X146935Y269564D01*
X147638Y269425D01*
X148340Y269564D01*
X148935Y269962D01*
X149333Y270557D01*
X149473Y271260D01*
X149333Y271962D01*
X148952Y272533D01*
X148942Y272559D01*
X148880Y272625D01*
X148838Y272677D01*
X148803Y272731D01*
X148772Y272788D01*
X148745Y272849D01*
X148722Y272915D01*
X148704Y272986D01*
X148691Y273063D01*
X148682Y273148D01*
X148679Y273257D01*
X148657Y273304D01*
Y279105D01*
X152183Y282631D01*
X152231Y282648D01*
X152612Y283003D01*
X152759Y283120D01*
X152887Y283209D01*
X152941Y283240D01*
X153206D01*
X153277Y283211D01*
X153318Y283228D01*
X153361Y283218D01*
X153398Y283240D01*
X159043D01*
Y290933D01*
D02*
G37*
G36*
X165197Y290966D02*
X164193Y290834D01*
X163257Y290446D01*
X162453Y289830D01*
X161837Y289026D01*
X161449Y288091D01*
X161317Y287087D01*
X161449Y286083D01*
X161837Y285147D01*
X162453Y284343D01*
X163257Y283727D01*
X164193Y283339D01*
X165197Y283207D01*
X166201Y283339D01*
X167137Y283727D01*
X167940Y284343D01*
X168557Y285147D01*
X168944Y286083D01*
X169077Y287087D01*
X168944Y288091D01*
X168557Y289026D01*
X167940Y289830D01*
X167137Y290446D01*
X166201Y290834D01*
X165197Y290966D01*
D02*
G37*
G36*
X233347D02*
X232342Y290834D01*
X231407Y290446D01*
X230603Y289830D01*
X229987Y289026D01*
X229599Y288091D01*
X229467Y287087D01*
X229599Y286083D01*
X229987Y285147D01*
X230603Y284343D01*
X231407Y283727D01*
X232342Y283339D01*
X233347Y283207D01*
X234351Y283339D01*
X235286Y283727D01*
X236090Y284343D01*
X236706Y285147D01*
X237094Y286083D01*
X237226Y287087D01*
X237094Y288091D01*
X236706Y289026D01*
X236090Y289830D01*
X235286Y290446D01*
X234351Y290834D01*
X233347Y290966D01*
D02*
G37*
G36*
X175197D02*
X174193Y290834D01*
X173257Y290446D01*
X172453Y289830D01*
X171837Y289026D01*
X171449Y288091D01*
X171317Y287087D01*
X171449Y286083D01*
X171837Y285147D01*
X172453Y284343D01*
X173257Y283727D01*
X174193Y283339D01*
X175197Y283207D01*
X176201Y283339D01*
X177137Y283727D01*
X177940Y284343D01*
X178557Y285147D01*
X178944Y286083D01*
X179077Y287087D01*
X178944Y288091D01*
X178557Y289026D01*
X177940Y289830D01*
X177137Y290446D01*
X176201Y290834D01*
X175197Y290966D01*
D02*
G37*
G36*
X118110D02*
X117106Y290834D01*
X116170Y290446D01*
X115367Y289830D01*
X114750Y289026D01*
X114363Y288091D01*
X114231Y287087D01*
X114363Y286083D01*
X114750Y285147D01*
X115367Y284343D01*
X116170Y283727D01*
X117106Y283339D01*
X118110Y283207D01*
X119114Y283339D01*
X120050Y283727D01*
X120854Y284343D01*
X121470Y285147D01*
X121858Y286083D01*
X121990Y287087D01*
X121858Y288091D01*
X121470Y289026D01*
X120854Y289830D01*
X120050Y290446D01*
X119114Y290834D01*
X118110Y290966D01*
D02*
G37*
G36*
X264437Y290933D02*
X256744D01*
Y283240D01*
X264437D01*
Y290933D01*
D02*
G37*
G36*
X127360Y286337D02*
X124229D01*
X124265Y286056D01*
X124663Y285096D01*
X125296Y284272D01*
X126120Y283639D01*
X127080Y283242D01*
X127360Y283205D01*
Y286337D01*
D02*
G37*
G36*
X217193Y290933D02*
X209500D01*
Y283240D01*
X217193D01*
Y290933D01*
D02*
G37*
G36*
X108110Y290966D02*
X107106Y290834D01*
X106170Y290446D01*
X105367Y289830D01*
X104750Y289026D01*
X104363Y288091D01*
X104231Y287087D01*
X104363Y286083D01*
X104750Y285147D01*
X105367Y284343D01*
X106170Y283727D01*
X107106Y283339D01*
X108110Y283207D01*
X109114Y283339D01*
X110050Y283727D01*
X110854Y284343D01*
X111470Y285147D01*
X111858Y286083D01*
X111990Y287087D01*
X111858Y288091D01*
X111470Y289026D01*
X110854Y289830D01*
X110050Y290446D01*
X109114Y290834D01*
X108110Y290966D01*
D02*
G37*
G36*
X101957Y290933D02*
X94264D01*
Y283240D01*
X101957D01*
Y290933D01*
D02*
G37*
G36*
X224096Y290968D02*
Y287837D01*
X227228D01*
X227191Y288117D01*
X226794Y289077D01*
X226161Y289901D01*
X225337Y290534D01*
X224377Y290932D01*
X224096Y290968D01*
D02*
G37*
G36*
X31102Y79851D02*
X29893Y79692D01*
X28766Y79225D01*
X27798Y78482D01*
X27055Y77514D01*
X26588Y76387D01*
X26429Y75177D01*
X26588Y73968D01*
X27055Y72840D01*
X27798Y71872D01*
X28766Y71130D01*
X29893Y70663D01*
X31102Y70503D01*
X32312Y70663D01*
X33439Y71130D01*
X34407Y71872D01*
X35150Y72840D01*
X35617Y73968D01*
X35776Y75177D01*
X35617Y76387D01*
X35150Y77514D01*
X34407Y78482D01*
X33439Y79225D01*
X32312Y79692D01*
X31102Y79851D01*
D02*
G37*
G36*
X81555Y35759D02*
X77421D01*
X76751Y35670D01*
X76127Y35412D01*
X75590Y35000D01*
X75179Y34464D01*
X74920Y33839D01*
X74832Y33169D01*
Y29036D01*
X74920Y28365D01*
X75179Y27741D01*
X75590Y27205D01*
X76127Y26793D01*
X76751Y26535D01*
X77421Y26447D01*
X81555D01*
X82225Y26535D01*
X82850Y26793D01*
X83386Y27205D01*
X83797Y27741D01*
X84056Y28365D01*
X84144Y29036D01*
Y33169D01*
X84056Y33839D01*
X83797Y34464D01*
X83386Y35000D01*
X82850Y35412D01*
X82225Y35670D01*
X81555Y35759D01*
D02*
G37*
G36*
X197638Y282150D02*
X196935Y282011D01*
X196340Y281613D01*
X195942Y281017D01*
X195802Y280315D01*
X195942Y279613D01*
X196329Y279034D01*
X196337Y279012D01*
X196422Y278923D01*
X196486Y278848D01*
X196539Y278775D01*
X196584Y278704D01*
X196620Y278635D01*
X196648Y278567D01*
X196669Y278501D01*
X196684Y278435D01*
X196693Y278367D01*
X196697Y278274D01*
X196720Y278225D01*
Y272956D01*
X196697Y272907D01*
X196693Y272814D01*
X196684Y272746D01*
X196669Y272680D01*
X196648Y272614D01*
X196620Y272546D01*
X196584Y272477D01*
X196539Y272406D01*
X196486Y272333D01*
X196422Y272258D01*
X196337Y272169D01*
X196329Y272147D01*
X195942Y271568D01*
X195802Y270866D01*
X195942Y270164D01*
X196340Y269568D01*
X196935Y269171D01*
X197638Y269031D01*
X198340Y269171D01*
X198935Y269568D01*
X199333Y270164D01*
X199473Y270866D01*
X199333Y271568D01*
X198947Y272147D01*
X198938Y272169D01*
X198853Y272258D01*
X198790Y272333D01*
X198736Y272406D01*
X198692Y272477D01*
X198656Y272546D01*
X198628Y272614D01*
X198606Y272680D01*
X198591Y272746D01*
X198582Y272814D01*
X198579Y272907D01*
X198555Y272956D01*
Y278225D01*
X198579Y278274D01*
X198582Y278367D01*
X198591Y278435D01*
X198606Y278501D01*
X198628Y278567D01*
X198656Y278635D01*
X198692Y278704D01*
X198736Y278775D01*
X198790Y278848D01*
X198853Y278923D01*
X198938Y279012D01*
X198947Y279034D01*
X199333Y279613D01*
X199473Y280315D01*
X199333Y281017D01*
X198935Y281613D01*
X198340Y282011D01*
X197638Y282150D01*
D02*
G37*
G36*
X192126D02*
X191424Y282011D01*
X190828Y281613D01*
X190430Y281017D01*
X190291Y280315D01*
X190430Y279613D01*
X190817Y279034D01*
X190826Y279012D01*
X190911Y278923D01*
X190974Y278848D01*
X191028Y278775D01*
X191072Y278704D01*
X191108Y278635D01*
X191136Y278567D01*
X191157Y278501D01*
X191172Y278435D01*
X191181Y278367D01*
X191185Y278274D01*
X191208Y278225D01*
Y272956D01*
X191185Y272907D01*
X191181Y272814D01*
X191172Y272746D01*
X191157Y272680D01*
X191136Y272614D01*
X191108Y272546D01*
X191072Y272477D01*
X191028Y272406D01*
X190974Y272333D01*
X190911Y272258D01*
X190826Y272169D01*
X190817Y272147D01*
X190430Y271568D01*
X190291Y270866D01*
X190430Y270164D01*
X190828Y269568D01*
X191424Y269171D01*
X192126Y269031D01*
X192828Y269171D01*
X193424Y269568D01*
X193822Y270164D01*
X193961Y270866D01*
X193822Y271568D01*
X193435Y272147D01*
X193426Y272169D01*
X193341Y272258D01*
X193278Y272333D01*
X193224Y272406D01*
X193180Y272477D01*
X193144Y272546D01*
X193116Y272614D01*
X193095Y272680D01*
X193080Y272746D01*
X193071Y272814D01*
X193067Y272907D01*
X193044Y272956D01*
Y278225D01*
X193067Y278274D01*
X193071Y278367D01*
X193080Y278435D01*
X193095Y278501D01*
X193116Y278567D01*
X193144Y278635D01*
X193180Y278704D01*
X193224Y278775D01*
X193278Y278848D01*
X193341Y278923D01*
X193426Y279012D01*
X193435Y279034D01*
X193822Y279613D01*
X193961Y280315D01*
X193822Y281017D01*
X193424Y281613D01*
X192828Y282011D01*
X192126Y282150D01*
D02*
G37*
G36*
X35859Y89427D02*
X31853D01*
Y85420D01*
X33169D01*
X33866Y85512D01*
X34514Y85781D01*
X35072Y86208D01*
X35499Y86765D01*
X35768Y87414D01*
X35859Y88110D01*
Y89427D01*
D02*
G37*
G36*
X30353Y94934D02*
X29036D01*
X28339Y94842D01*
X27691Y94574D01*
X27134Y94146D01*
X26706Y93589D01*
X26437Y92940D01*
X26346Y92244D01*
Y90927D01*
X30353D01*
Y94934D01*
D02*
G37*
G36*
Y89427D02*
X26346D01*
Y88110D01*
X26437Y87414D01*
X26706Y86765D01*
X27134Y86208D01*
X27691Y85781D01*
X28339Y85512D01*
X29036Y85420D01*
X30353D01*
Y89427D01*
D02*
G37*
G36*
X185947Y290968D02*
Y287837D01*
X189079D01*
X189042Y288117D01*
X188644Y289077D01*
X188012Y289901D01*
X187187Y290534D01*
X186227Y290932D01*
X185947Y290968D01*
D02*
G37*
G36*
X125984Y250654D02*
X125282Y250515D01*
X124698Y250124D01*
X124678Y250116D01*
X124568Y250010D01*
X124472Y249924D01*
X124382Y249853D01*
X124297Y249794D01*
X124219Y249747D01*
X124148Y249712D01*
X124085Y249687D01*
X124030Y249672D01*
X123982Y249663D01*
X123908Y249659D01*
X123857Y249635D01*
X119844D01*
X119793Y249659D01*
X119719Y249663D01*
X119671Y249672D01*
X119616Y249687D01*
X119553Y249712D01*
X119482Y249747D01*
X119404Y249794D01*
X119326Y249848D01*
X119127Y250015D01*
X119023Y250116D01*
X119003Y250124D01*
X118419Y250515D01*
X117717Y250654D01*
X117014Y250515D01*
X116419Y250117D01*
X116021Y249521D01*
X115881Y248819D01*
X116021Y248117D01*
X116419Y247521D01*
X117014Y247123D01*
X117717Y246984D01*
X118419Y247123D01*
X119003Y247514D01*
X119023Y247521D01*
X119132Y247628D01*
X119228Y247713D01*
X119319Y247785D01*
X119404Y247844D01*
X119482Y247891D01*
X119553Y247926D01*
X119616Y247950D01*
X119671Y247966D01*
X119719Y247974D01*
X119793Y247979D01*
X119844Y248003D01*
X123857D01*
X123908Y247979D01*
X123982Y247974D01*
X124030Y247966D01*
X124085Y247950D01*
X124148Y247926D01*
X124219Y247891D01*
X124297Y247844D01*
X124375Y247790D01*
X124574Y247623D01*
X124678Y247521D01*
X124698Y247514D01*
X125282Y247123D01*
X125984Y246984D01*
X126687Y247123D01*
X127282Y247521D01*
X127680Y248117D01*
X127820Y248819D01*
X127680Y249521D01*
X127282Y250117D01*
X126687Y250515D01*
X125984Y250654D01*
D02*
G37*
G36*
X109488Y35776D02*
X108278Y35617D01*
X107151Y35150D01*
X106183Y34407D01*
X105440Y33439D01*
X104973Y32312D01*
X104814Y31102D01*
X104973Y29893D01*
X105440Y28766D01*
X106183Y27798D01*
X107151Y27055D01*
X108278Y26588D01*
X109488Y26429D01*
X110698Y26588D01*
X111825Y27055D01*
X112793Y27798D01*
X113536Y28766D01*
X114003Y29893D01*
X114162Y31102D01*
X114003Y32312D01*
X113536Y33439D01*
X112793Y34407D01*
X111825Y35150D01*
X110698Y35617D01*
X109488Y35776D01*
D02*
G37*
G36*
X128860Y290968D02*
Y287837D01*
X131992D01*
X131955Y288117D01*
X131557Y289077D01*
X130925Y289901D01*
X130101Y290534D01*
X129140Y290932D01*
X128860Y290968D01*
D02*
G37*
G36*
X200787Y35776D02*
X199578Y35617D01*
X198450Y35150D01*
X197482Y34407D01*
X196740Y33439D01*
X196273Y32312D01*
X196114Y31102D01*
X196273Y29893D01*
X196740Y28766D01*
X197482Y27798D01*
X198450Y27055D01*
X199578Y26588D01*
X200787Y26429D01*
X201997Y26588D01*
X203124Y27055D01*
X204092Y27798D01*
X204835Y28766D01*
X205302Y29893D01*
X205461Y31102D01*
X205302Y32312D01*
X204835Y33439D01*
X204092Y34407D01*
X203124Y35150D01*
X201997Y35617D01*
X200787Y35776D01*
D02*
G37*
G36*
X269841Y290968D02*
X269560Y290932D01*
X268600Y290534D01*
X267776Y289901D01*
X267143Y289077D01*
X266746Y288117D01*
X266709Y287837D01*
X269841D01*
Y290968D01*
D02*
G37*
G36*
X127360Y290968D02*
X127080Y290932D01*
X126120Y290534D01*
X125296Y289901D01*
X124663Y289077D01*
X124265Y288117D01*
X124229Y287837D01*
X127360D01*
Y290968D01*
D02*
G37*
G36*
X94488Y35776D02*
X93278Y35617D01*
X92151Y35150D01*
X91183Y34407D01*
X90440Y33439D01*
X89973Y32312D01*
X89814Y31102D01*
X89973Y29893D01*
X90440Y28766D01*
X91183Y27798D01*
X92151Y27055D01*
X93278Y26588D01*
X94488Y26429D01*
X95698Y26588D01*
X96825Y27055D01*
X97793Y27798D01*
X98536Y28766D01*
X99003Y29893D01*
X99162Y31102D01*
X99003Y32312D01*
X98536Y33439D01*
X97793Y34407D01*
X96825Y35150D01*
X95698Y35617D01*
X94488Y35776D01*
D02*
G37*
G36*
X215787D02*
X214578Y35617D01*
X213450Y35150D01*
X212482Y34407D01*
X211740Y33439D01*
X211273Y32312D01*
X211114Y31102D01*
X211273Y29893D01*
X211740Y28766D01*
X212482Y27798D01*
X213450Y27055D01*
X214578Y26588D01*
X215787Y26429D01*
X216997Y26588D01*
X218124Y27055D01*
X219092Y27798D01*
X219835Y28766D01*
X220302Y29893D01*
X220461Y31102D01*
X220302Y32312D01*
X219835Y33439D01*
X219092Y34407D01*
X218124Y35150D01*
X216997Y35617D01*
X215787Y35776D01*
D02*
G37*
G36*
X271340Y290968D02*
Y287837D01*
X274472D01*
X274435Y288117D01*
X274038Y289077D01*
X273405Y289901D01*
X272581Y290534D01*
X271621Y290932D01*
X271340Y290968D01*
D02*
G37*
G36*
X66929Y273095D02*
X66227Y272955D01*
X65631Y272558D01*
X65234Y271962D01*
X65094Y271260D01*
X65234Y270557D01*
X65631Y269962D01*
X66227Y269564D01*
X66929Y269425D01*
X67631Y269564D01*
X68210Y269951D01*
X68232Y269959D01*
X68321Y270044D01*
X68396Y270108D01*
X68469Y270162D01*
X68540Y270206D01*
X68609Y270242D01*
X68677Y270270D01*
X68743Y270291D01*
X68809Y270306D01*
X68877Y270315D01*
X68970Y270319D01*
X69019Y270342D01*
X102241D01*
X102290Y270319D01*
X102383Y270315D01*
X102451Y270306D01*
X102517Y270291D01*
X102583Y270270D01*
X102651Y270242D01*
X102720Y270206D01*
X102791Y270162D01*
X102864Y270108D01*
X102939Y270044D01*
X103027Y269960D01*
X103050Y269951D01*
X103628Y269564D01*
X104331Y269425D01*
X105033Y269564D01*
X105628Y269962D01*
X106026Y270557D01*
X106166Y271260D01*
X106026Y271962D01*
X105628Y272557D01*
X105033Y272955D01*
X104331Y273095D01*
X103628Y272955D01*
X103050Y272569D01*
X103027Y272560D01*
X102939Y272475D01*
X102864Y272412D01*
X102791Y272358D01*
X102720Y272314D01*
X102651Y272278D01*
X102583Y272250D01*
X102517Y272229D01*
X102450Y272214D01*
X102383Y272205D01*
X102290Y272200D01*
X102241Y272178D01*
X69019D01*
X68970Y272200D01*
X68877Y272205D01*
X68809Y272214D01*
X68743Y272229D01*
X68677Y272250D01*
X68609Y272278D01*
X68540Y272314D01*
X68469Y272358D01*
X68396Y272412D01*
X68321Y272475D01*
X68232Y272560D01*
X68210Y272569D01*
X67631Y272955D01*
X66929Y273095D01*
D02*
G37*
G36*
X187854Y35759D02*
X183720D01*
X183050Y35670D01*
X182426Y35412D01*
X181890Y35000D01*
X181478Y34464D01*
X181219Y33839D01*
X181131Y33169D01*
Y29036D01*
X181219Y28365D01*
X181478Y27741D01*
X181890Y27205D01*
X182426Y26793D01*
X183050Y26535D01*
X183720Y26447D01*
X187854D01*
X188524Y26535D01*
X189149Y26793D01*
X189685Y27205D01*
X190096Y27741D01*
X190355Y28365D01*
X190443Y29036D01*
Y33169D01*
X190355Y33839D01*
X190096Y34464D01*
X189685Y35000D01*
X189149Y35412D01*
X188524Y35670D01*
X187854Y35759D01*
D02*
G37*
%LPD*%
G36*
X63786Y146984D02*
X63591Y146751D01*
X63512Y146637D01*
X63445Y146525D01*
X63390Y146414D01*
X63347Y146305D01*
X63317Y146197D01*
X63298Y146091D01*
X63292Y145987D01*
X62692D01*
X62686Y146091D01*
X62668Y146197D01*
X62637Y146305D01*
X62594Y146414D01*
X62540Y146525D01*
X62472Y146637D01*
X62393Y146751D01*
X62302Y146867D01*
X62198Y146984D01*
X62082Y147103D01*
X63902Y147103D01*
X63786Y146984D01*
D02*
G37*
G36*
X63298Y120444D02*
X63317Y120338D01*
X63347Y120230D01*
X63390Y120121D01*
X63445Y120010D01*
X63512Y119898D01*
X63591Y119784D01*
X63683Y119668D01*
X63786Y119551D01*
X63902Y119432D01*
X62082D01*
X62198Y119551D01*
X62393Y119784D01*
X62472Y119898D01*
X62540Y120010D01*
X62594Y120121D01*
X62637Y120230D01*
X62668Y120338D01*
X62686Y120444D01*
X62692Y120549D01*
X63292D01*
X63298Y120444D01*
D02*
G37*
G36*
X81355Y216807D02*
X81227Y216932D01*
X80982Y217143D01*
X80864Y217229D01*
X80750Y217302D01*
X80639Y217361D01*
X80531Y217407D01*
X80427Y217440D01*
X80326Y217460D01*
X80228Y217466D01*
Y217967D01*
X80326Y217973D01*
X80427Y217993D01*
X80531Y218026D01*
X80639Y218072D01*
X80750Y218131D01*
X80864Y218204D01*
X80982Y218290D01*
X81103Y218389D01*
X81355Y218626D01*
Y216807D01*
D02*
G37*
G36*
X68773Y218501D02*
X69018Y218290D01*
X69136Y218204D01*
X69250Y218131D01*
X69361Y218072D01*
X69469Y218026D01*
X69573Y217993D01*
X69674Y217973D01*
X69772Y217967D01*
Y217466D01*
X69674Y217460D01*
X69573Y217440D01*
X69469Y217407D01*
X69361Y217361D01*
X69250Y217302D01*
X69136Y217229D01*
X69018Y217143D01*
X68897Y217044D01*
X68645Y216807D01*
Y218626D01*
X68773Y218501D01*
D02*
G37*
G36*
X68080Y113823D02*
X68176Y113712D01*
X68274Y113613D01*
X68374Y113528D01*
X68476Y113456D01*
X68578Y113397D01*
X68683Y113351D01*
X68789Y113318D01*
X68896Y113299D01*
X69005Y113292D01*
X68910Y112692D01*
X68813Y112687D01*
X68710Y112670D01*
X68602Y112643D01*
X68489Y112605D01*
X68372Y112556D01*
X68249Y112497D01*
X67989Y112345D01*
X67851Y112252D01*
X67709Y112149D01*
X67985Y113948D01*
X68080Y113823D01*
D02*
G37*
G36*
X80174Y112082D02*
X80055Y112198D01*
X79822Y112393D01*
X79708Y112472D01*
X79596Y112540D01*
X79485Y112594D01*
X79376Y112637D01*
X79268Y112668D01*
X79162Y112686D01*
X79057Y112692D01*
Y113292D01*
X79162Y113298D01*
X79268Y113317D01*
X79376Y113347D01*
X79485Y113390D01*
X79596Y113445D01*
X79708Y113512D01*
X79822Y113591D01*
X79938Y113682D01*
X80055Y113786D01*
X80174Y113902D01*
Y112082D01*
D02*
G37*
G36*
X124137Y107695D02*
X124163Y107392D01*
X124188Y107256D01*
X124220Y107129D01*
X124259Y107011D01*
X124306Y106904D01*
X124361Y106806D01*
X124423Y106718D01*
X124493Y106640D01*
X124068Y106216D01*
X123990Y106286D01*
X123902Y106348D01*
X123805Y106402D01*
X123697Y106449D01*
X123580Y106489D01*
X123453Y106521D01*
X123316Y106545D01*
X123170Y106562D01*
X123014Y106572D01*
X122848Y106574D01*
X124135Y107861D01*
X124137Y107695D01*
D02*
G37*
G36*
X132930Y98303D02*
X132811Y98418D01*
X132578Y98614D01*
X132464Y98693D01*
X132352Y98760D01*
X132241Y98815D01*
X132132Y98858D01*
X132024Y98888D01*
X131918Y98906D01*
X131813Y98913D01*
Y99513D01*
X131918Y99519D01*
X132024Y99537D01*
X132132Y99568D01*
X132241Y99610D01*
X132352Y99665D01*
X132464Y99732D01*
X132578Y99812D01*
X132694Y99903D01*
X132811Y100007D01*
X132930Y100123D01*
Y98303D01*
D02*
G37*
G36*
X179387Y245153D02*
X179268Y245269D01*
X179035Y245464D01*
X178921Y245543D01*
X178808Y245610D01*
X178698Y245665D01*
X178588Y245708D01*
X178481Y245739D01*
X178375Y245757D01*
X178270Y245763D01*
Y246363D01*
X178375Y246369D01*
X178481Y246387D01*
X178588Y246418D01*
X178698Y246461D01*
X178808Y246515D01*
X178921Y246583D01*
X179035Y246662D01*
X179151Y246753D01*
X179268Y246857D01*
X179387Y246973D01*
Y245153D01*
D02*
G37*
G36*
Y240429D02*
X179268Y240545D01*
X179035Y240740D01*
X178921Y240819D01*
X178808Y240886D01*
X178698Y240941D01*
X178588Y240984D01*
X178481Y241014D01*
X178375Y241033D01*
X178270Y241039D01*
Y241639D01*
X178375Y241645D01*
X178481Y241663D01*
X178588Y241693D01*
X178698Y241736D01*
X178808Y241791D01*
X178921Y241858D01*
X179035Y241937D01*
X179151Y242029D01*
X179268Y242133D01*
X179387Y242249D01*
Y240429D01*
D02*
G37*
G36*
X147898Y255519D02*
X148130Y255323D01*
X148244Y255244D01*
X148357Y255177D01*
X148468Y255122D01*
X148577Y255079D01*
X148685Y255049D01*
X148791Y255030D01*
X148895Y255024D01*
Y254424D01*
X148791Y254418D01*
X148685Y254400D01*
X148577Y254369D01*
X148468Y254327D01*
X148357Y254272D01*
X148244Y254205D01*
X148130Y254125D01*
X148015Y254034D01*
X147898Y253930D01*
X147779Y253814D01*
Y255634D01*
X147898Y255519D01*
D02*
G37*
G36*
Y259062D02*
X148130Y258867D01*
X148244Y258787D01*
X148357Y258720D01*
X148468Y258665D01*
X148577Y258623D01*
X148685Y258592D01*
X148791Y258574D01*
X148895Y258568D01*
Y257968D01*
X148791Y257962D01*
X148685Y257943D01*
X148577Y257913D01*
X148468Y257870D01*
X148357Y257815D01*
X148244Y257748D01*
X148130Y257669D01*
X148015Y257577D01*
X147898Y257474D01*
X147779Y257358D01*
Y259178D01*
X147898Y259062D01*
D02*
G37*
G36*
X89377Y222575D02*
X89182Y222342D01*
X89102Y222228D01*
X89035Y222116D01*
X88980Y222005D01*
X88938Y221895D01*
X88907Y221788D01*
X88889Y221682D01*
X88883Y221577D01*
X88283D01*
X88277Y221682D01*
X88258Y221788D01*
X88228Y221895D01*
X88185Y222005D01*
X88130Y222116D01*
X88063Y222228D01*
X87984Y222342D01*
X87892Y222458D01*
X87789Y222575D01*
X87673Y222694D01*
X89493D01*
X89377Y222575D01*
D02*
G37*
G36*
X97645D02*
X97449Y222342D01*
X97370Y222228D01*
X97303Y222116D01*
X97248Y222005D01*
X97205Y221895D01*
X97175Y221788D01*
X97157Y221682D01*
X97150Y221577D01*
X96550D01*
X96544Y221682D01*
X96526Y221788D01*
X96495Y221895D01*
X96453Y222005D01*
X96398Y222116D01*
X96331Y222228D01*
X96251Y222342D01*
X96160Y222458D01*
X96056Y222575D01*
X95940Y222694D01*
X97760D01*
X97645Y222575D01*
D02*
G37*
G36*
X94495Y219425D02*
X94300Y219192D01*
X94220Y219078D01*
X94153Y218966D01*
X94098Y218855D01*
X94056Y218746D01*
X94025Y218638D01*
X94007Y218532D01*
X94001Y218427D01*
X93401D01*
X93395Y218532D01*
X93376Y218638D01*
X93346Y218746D01*
X93303Y218855D01*
X93248Y218966D01*
X93181Y219078D01*
X93102Y219192D01*
X93010Y219308D01*
X92907Y219425D01*
X92791Y219544D01*
X94611D01*
X94495Y219425D01*
D02*
G37*
G36*
X100774Y230590D02*
X100609Y230588D01*
X100306Y230561D01*
X100169Y230537D01*
X100042Y230505D01*
X99925Y230465D01*
X99818Y230418D01*
X99720Y230363D01*
X99632Y230301D01*
X99554Y230232D01*
X99129Y230656D01*
X99199Y230734D01*
X99261Y230822D01*
X99316Y230920D01*
X99363Y231027D01*
X99402Y231144D01*
X99434Y231271D01*
X99459Y231408D01*
X99476Y231555D01*
X99485Y231711D01*
X99488Y231877D01*
X100774Y230590D01*
D02*
G37*
G36*
X91251Y181862D02*
X91269Y181756D01*
X91300Y181648D01*
X91343Y181539D01*
X91397Y181428D01*
X91465Y181315D01*
X91544Y181201D01*
X91635Y181086D01*
X91739Y180968D01*
X91855Y180850D01*
X90035D01*
X90151Y180968D01*
X90346Y181201D01*
X90425Y181315D01*
X90492Y181428D01*
X90547Y181539D01*
X90590Y181648D01*
X90620Y181756D01*
X90639Y181862D01*
X90645Y181966D01*
X91245D01*
X91251Y181862D01*
D02*
G37*
G36*
X92395Y219186D02*
X92403Y219166D01*
X92510Y219057D01*
X92595Y218961D01*
X92667Y218870D01*
X92726Y218785D01*
X92773Y218707D01*
X92808Y218636D01*
X92832Y218573D01*
X92848Y218518D01*
X92856Y218470D01*
X92861Y218396D01*
X92885Y218345D01*
Y181157D01*
X92385Y181006D01*
X92250Y181207D01*
X92242Y181228D01*
X92136Y181337D01*
X92050Y181433D01*
X91979Y181524D01*
X91920Y181609D01*
X91873Y181687D01*
X91838Y181758D01*
X91813Y181820D01*
X91798Y181876D01*
X91790Y181924D01*
X91785Y181998D01*
X91761Y182048D01*
Y219236D01*
X92261Y219388D01*
X92395Y219186D01*
D02*
G37*
G36*
X88889Y185799D02*
X88907Y185693D01*
X88938Y185585D01*
X88980Y185476D01*
X89035Y185365D01*
X89102Y185252D01*
X89182Y185138D01*
X89273Y185023D01*
X89377Y184905D01*
X89493Y184787D01*
X87673D01*
X87789Y184905D01*
X87984Y185138D01*
X88063Y185252D01*
X88130Y185365D01*
X88185Y185476D01*
X88228Y185585D01*
X88258Y185693D01*
X88277Y185799D01*
X88283Y185903D01*
X88883D01*
X88889Y185799D01*
D02*
G37*
G36*
X94007Y178318D02*
X94025Y178212D01*
X94056Y178105D01*
X94098Y177995D01*
X94153Y177884D01*
X94220Y177772D01*
X94300Y177658D01*
X94391Y177542D01*
X94495Y177425D01*
X94611Y177306D01*
X92791D01*
X92907Y177425D01*
X93102Y177658D01*
X93181Y177772D01*
X93248Y177884D01*
X93303Y177995D01*
X93346Y178105D01*
X93376Y178212D01*
X93395Y178318D01*
X93401Y178423D01*
X94001D01*
X94007Y178318D01*
D02*
G37*
G36*
X90129Y221498D02*
Y186015D01*
X89629Y185647D01*
X89597Y185657D01*
X89469Y185712D01*
X89451Y185758D01*
X89436Y185813D01*
X89427Y185861D01*
X89423Y185935D01*
X89398Y185986D01*
Y221495D01*
X89423Y221546D01*
X89426Y221593D01*
X89447Y221635D01*
X89632Y221784D01*
X90129Y221498D01*
D02*
G37*
G36*
X97157Y186980D02*
X97175Y186874D01*
X97205Y186766D01*
X97248Y186657D01*
X97303Y186546D01*
X97370Y186433D01*
X97449Y186319D01*
X97541Y186204D01*
X97645Y186087D01*
X97760Y185968D01*
X95940D01*
X96056Y186087D01*
X96251Y186319D01*
X96331Y186433D01*
X96398Y186546D01*
X96453Y186657D01*
X96495Y186766D01*
X96526Y186874D01*
X96544Y186980D01*
X96550Y187084D01*
X97150D01*
X97157Y186980D01*
D02*
G37*
G36*
X192939Y240703D02*
X192852Y240600D01*
X192776Y240496D01*
X192710Y240390D01*
X192654Y240282D01*
X192608Y240172D01*
X192572Y240061D01*
X192546Y239947D01*
X192531Y239832D01*
X192526Y239715D01*
X191726D01*
X191721Y239832D01*
X191706Y239947D01*
X191680Y240061D01*
X191644Y240172D01*
X191598Y240282D01*
X191542Y240390D01*
X191476Y240496D01*
X191400Y240600D01*
X191313Y240703D01*
X191216Y240804D01*
X193036D01*
X192939Y240703D01*
D02*
G37*
G36*
X192531Y228278D02*
X192546Y228163D01*
X192572Y228050D01*
X192608Y227938D01*
X192654Y227828D01*
X192710Y227720D01*
X192776Y227614D01*
X192852Y227510D01*
X192939Y227407D01*
X193036Y227306D01*
X191216D01*
X191313Y227407D01*
X191400Y227510D01*
X191476Y227614D01*
X191542Y227720D01*
X191598Y227828D01*
X191644Y227938D01*
X191680Y228050D01*
X191706Y228163D01*
X191721Y228278D01*
X191726Y228395D01*
X192526D01*
X192531Y228278D01*
D02*
G37*
G36*
X67976Y109062D02*
X68209Y108867D01*
X68323Y108787D01*
X68436Y108720D01*
X68546Y108665D01*
X68656Y108623D01*
X68763Y108592D01*
X68870Y108574D01*
X68974Y108568D01*
Y107968D01*
X68870Y107962D01*
X68763Y107943D01*
X68656Y107913D01*
X68546Y107870D01*
X68436Y107815D01*
X68323Y107748D01*
X68209Y107669D01*
X68094Y107577D01*
X67976Y107474D01*
X67857Y107358D01*
Y109178D01*
X67976Y109062D01*
D02*
G37*
G36*
X76828Y107358D02*
X76709Y107474D01*
X76476Y107669D01*
X76362Y107748D01*
X76249Y107815D01*
X76139Y107870D01*
X76029Y107913D01*
X75922Y107943D01*
X75815Y107962D01*
X75711Y107968D01*
Y108568D01*
X75815Y108574D01*
X75922Y108592D01*
X76029Y108623D01*
X76139Y108665D01*
X76249Y108720D01*
X76362Y108787D01*
X76476Y108867D01*
X76591Y108958D01*
X76709Y109062D01*
X76828Y109178D01*
Y107358D01*
D02*
G37*
G36*
X198043Y228278D02*
X198058Y228163D01*
X198084Y228050D01*
X198119Y227938D01*
X198165Y227828D01*
X198221Y227720D01*
X198288Y227614D01*
X198364Y227510D01*
X198451Y227407D01*
X198548Y227306D01*
X196728D01*
X196825Y227407D01*
X196911Y227510D01*
X196988Y227614D01*
X197054Y227720D01*
X197110Y227828D01*
X197156Y227938D01*
X197192Y228050D01*
X197217Y228163D01*
X197233Y228278D01*
X197238Y228395D01*
X198038D01*
X198043Y228278D01*
D02*
G37*
G36*
X198451Y240703D02*
X198364Y240600D01*
X198288Y240496D01*
X198221Y240390D01*
X198165Y240282D01*
X198119Y240172D01*
X198084Y240061D01*
X198058Y239947D01*
X198043Y239832D01*
X198038Y239715D01*
X197238D01*
X197233Y239832D01*
X197217Y239947D01*
X197192Y240061D01*
X197156Y240172D01*
X197110Y240282D01*
X197054Y240390D01*
X196988Y240496D01*
X196911Y240600D01*
X196825Y240703D01*
X196728Y240804D01*
X198548D01*
X198451Y240703D01*
D02*
G37*
G36*
X143811Y179018D02*
X143824Y178895D01*
X143844Y178778D01*
X143873Y178665D01*
X143910Y178558D01*
X143955Y178455D01*
X144008Y178357D01*
X144070Y178264D01*
X144139Y178177D01*
X144217Y178094D01*
X142397D01*
X142475Y178177D01*
X142545Y178264D01*
X142606Y178357D01*
X142659Y178455D01*
X142705Y178558D01*
X142742Y178665D01*
X142770Y178778D01*
X142791Y178895D01*
X142803Y179018D01*
X142807Y179145D01*
X143807D01*
X143811Y179018D01*
D02*
G37*
G36*
X148609Y194566D02*
X148495Y194563D01*
X148384Y194550D01*
X148275Y194528D01*
X148168Y194496D01*
X148064Y194456D01*
X147961Y194406D01*
X147862Y194346D01*
X147764Y194278D01*
X147669Y194200D01*
X147575Y194113D01*
X146868Y194820D01*
X146956Y194913D01*
X147034Y195008D01*
X147102Y195106D01*
X147161Y195205D01*
X147212Y195308D01*
X147252Y195412D01*
X147284Y195519D01*
X147306Y195628D01*
X147319Y195739D01*
X147322Y195853D01*
X148609Y194566D01*
D02*
G37*
G36*
X26778Y153677D02*
X26583Y153444D01*
X26504Y153330D01*
X26437Y153218D01*
X26382Y153107D01*
X26339Y152998D01*
X26309Y152890D01*
X26290Y152784D01*
X26284Y152680D01*
X25684D01*
X25678Y152784D01*
X25660Y152890D01*
X25629Y152998D01*
X25587Y153107D01*
X25532Y153218D01*
X25465Y153330D01*
X25385Y153444D01*
X25294Y153560D01*
X25190Y153677D01*
X25074Y153796D01*
X26894D01*
X26778Y153677D01*
D02*
G37*
G36*
X31224Y154630D02*
X31239Y154575D01*
X31264Y154513D01*
X31301Y154446D01*
X31348Y154372D01*
X31406Y154293D01*
X31555Y154115D01*
X31747Y153914D01*
X30654Y152885D01*
X30550Y152987D01*
X30198Y153288D01*
X30126Y153337D01*
X30060Y153375D01*
X30001Y153402D01*
X29948Y153419D01*
X29902Y153425D01*
X31220Y154679D01*
X31224Y154630D01*
D02*
G37*
G36*
X39137Y141460D02*
X39161Y141096D01*
X39176Y140999D01*
X39193Y140914D01*
X39214Y140840D01*
X39238Y140779D01*
X39265Y140729D01*
X39296Y140692D01*
X37476D01*
X37506Y140729D01*
X37533Y140779D01*
X37557Y140840D01*
X37578Y140914D01*
X37596Y140999D01*
X37610Y141096D01*
X37629Y141327D01*
X37636Y141606D01*
X39136D01*
X39137Y141460D01*
D02*
G37*
G36*
X40023Y134858D02*
X39880Y134961D01*
X39609Y135134D01*
X39481Y135205D01*
X39241Y135313D01*
X39128Y135351D01*
X39020Y135378D01*
X38918Y135395D01*
X38820Y135400D01*
X38724Y136000D01*
X38833Y136007D01*
X38940Y136026D01*
X39046Y136059D01*
X39151Y136105D01*
X39253Y136164D01*
X39354Y136236D01*
X39454Y136322D01*
X39552Y136420D01*
X39648Y136532D01*
X39743Y136656D01*
X40023Y134858D01*
D02*
G37*
G36*
X148731Y179106D02*
X148750Y179000D01*
X148780Y178892D01*
X148823Y178783D01*
X148878Y178672D01*
X148945Y178559D01*
X149024Y178445D01*
X149116Y178330D01*
X149219Y178212D01*
X149335Y178094D01*
X147515D01*
X147631Y178212D01*
X147826Y178445D01*
X147906Y178559D01*
X147973Y178672D01*
X148028Y178783D01*
X148070Y178892D01*
X148101Y179000D01*
X148119Y179106D01*
X148125Y179210D01*
X148725D01*
X148731Y179106D01*
D02*
G37*
G36*
X157861Y194763D02*
X157695Y194761D01*
X157392Y194734D01*
X157256Y194710D01*
X157129Y194678D01*
X157011Y194638D01*
X156904Y194591D01*
X156806Y194537D01*
X156718Y194474D01*
X156640Y194405D01*
X156216Y194829D01*
X156286Y194907D01*
X156348Y194995D01*
X156402Y195093D01*
X156449Y195201D01*
X156489Y195318D01*
X156521Y195445D01*
X156545Y195581D01*
X156562Y195728D01*
X156572Y195884D01*
X156574Y196050D01*
X157861Y194763D01*
D02*
G37*
G36*
X198949Y198523D02*
X199027Y198442D01*
X199109Y198370D01*
X199196Y198307D01*
X199287Y198255D01*
X199382Y198211D01*
X199481Y198178D01*
X199584Y198154D01*
X199691Y198140D01*
X199803Y198135D01*
Y197535D01*
X199691Y197530D01*
X199584Y197515D01*
X199481Y197492D01*
X199382Y197458D01*
X199287Y197415D01*
X199196Y197362D01*
X199109Y197300D01*
X199027Y197228D01*
X198949Y197146D01*
X198875Y197055D01*
Y198615D01*
X198949Y198523D01*
D02*
G37*
G36*
X206803Y179412D02*
X206816Y179289D01*
X206836Y179172D01*
X206865Y179059D01*
X206902Y178951D01*
X206947Y178849D01*
X207000Y178751D01*
X207062Y178658D01*
X207131Y178570D01*
X207209Y178487D01*
X205389D01*
X205467Y178570D01*
X205537Y178658D01*
X205598Y178751D01*
X205652Y178849D01*
X205697Y178951D01*
X205734Y179059D01*
X205762Y179172D01*
X205783Y179289D01*
X205795Y179412D01*
X205799Y179539D01*
X206799D01*
X206803Y179412D01*
D02*
G37*
G36*
X207131Y195839D02*
X207062Y195751D01*
X207000Y195659D01*
X206947Y195561D01*
X206902Y195458D01*
X206865Y195351D01*
X206836Y195238D01*
X206816Y195120D01*
X206803Y194998D01*
X206799Y194870D01*
X205799D01*
X205795Y194998D01*
X205783Y195120D01*
X205762Y195238D01*
X205734Y195351D01*
X205697Y195458D01*
X205652Y195561D01*
X205598Y195659D01*
X205537Y195751D01*
X205467Y195839D01*
X205389Y195922D01*
X207209D01*
X207131Y195839D01*
D02*
G37*
G36*
X201600Y196470D02*
X201688Y196408D01*
X201786Y196354D01*
X201893Y196307D01*
X202011Y196267D01*
X202138Y196235D01*
X202274Y196211D01*
X202421Y196193D01*
X202577Y196184D01*
X202743Y196182D01*
X201456Y194895D01*
X201454Y195061D01*
X201427Y195363D01*
X201403Y195500D01*
X201371Y195627D01*
X201331Y195744D01*
X201284Y195852D01*
X201230Y195949D01*
X201167Y196037D01*
X201098Y196116D01*
X201522Y196540D01*
X201600Y196470D01*
D02*
G37*
G36*
X185345Y179499D02*
X185364Y179393D01*
X185394Y179286D01*
X185437Y179176D01*
X185492Y179066D01*
X185559Y178953D01*
X185638Y178839D01*
X185730Y178723D01*
X185834Y178606D01*
X185949Y178487D01*
X184129D01*
X184245Y178606D01*
X184441Y178839D01*
X184520Y178953D01*
X184587Y179066D01*
X184642Y179176D01*
X184685Y179286D01*
X184715Y179393D01*
X184733Y179499D01*
X184739Y179604D01*
X185339D01*
X185345Y179499D01*
D02*
G37*
G36*
X185834Y196197D02*
X185638Y195964D01*
X185559Y195850D01*
X185492Y195738D01*
X185437Y195627D01*
X185394Y195518D01*
X185364Y195410D01*
X185345Y195304D01*
X185339Y195199D01*
X184739D01*
X184733Y195304D01*
X184715Y195410D01*
X184685Y195518D01*
X184642Y195627D01*
X184587Y195738D01*
X184520Y195850D01*
X184441Y195964D01*
X184349Y196080D01*
X184245Y196197D01*
X184129Y196316D01*
X185949D01*
X185834Y196197D01*
D02*
G37*
G36*
X48038Y201315D02*
X47843Y201082D01*
X47764Y200968D01*
X47697Y200856D01*
X47642Y200745D01*
X47599Y200636D01*
X47569Y200528D01*
X47550Y200422D01*
X47544Y200317D01*
X46944D01*
X46938Y200422D01*
X46920Y200528D01*
X46889Y200636D01*
X46847Y200745D01*
X46792Y200856D01*
X46725Y200968D01*
X46645Y201082D01*
X46554Y201198D01*
X46450Y201315D01*
X46334Y201434D01*
X48154D01*
X48038Y201315D01*
D02*
G37*
G36*
X39479Y173988D02*
X39498Y173881D01*
X39528Y173774D01*
X39571Y173665D01*
X39626Y173554D01*
X39693Y173441D01*
X39772Y173327D01*
X39864Y173212D01*
X39967Y173094D01*
X40083Y172976D01*
X38263D01*
X38379Y173094D01*
X38574Y173327D01*
X38654Y173441D01*
X38721Y173554D01*
X38776Y173665D01*
X38818Y173774D01*
X38849Y173881D01*
X38867Y173988D01*
X38873Y174092D01*
X39473D01*
X39479Y173988D01*
D02*
G37*
G36*
X84512Y161030D02*
X84745Y160835D01*
X84859Y160756D01*
X84971Y160689D01*
X85082Y160634D01*
X85191Y160591D01*
X85299Y160561D01*
X85405Y160542D01*
X85510Y160536D01*
Y159936D01*
X85405Y159930D01*
X85299Y159912D01*
X85191Y159881D01*
X85082Y159839D01*
X84971Y159784D01*
X84859Y159717D01*
X84745Y159637D01*
X84629Y159546D01*
X84512Y159442D01*
X84393Y159326D01*
Y161146D01*
X84512Y161030D01*
D02*
G37*
G36*
X123875Y162870D02*
X123756Y162985D01*
X123523Y163181D01*
X123409Y163260D01*
X123297Y163327D01*
X123186Y163382D01*
X123076Y163425D01*
X122969Y163455D01*
X122863Y163473D01*
X122758Y163479D01*
X122758Y164079D01*
X122863Y164086D01*
X122969Y164104D01*
X123076Y164134D01*
X123186Y164177D01*
X123297Y164232D01*
X123409Y164299D01*
X123523Y164378D01*
X123639Y164470D01*
X123756Y164574D01*
X123875Y164690D01*
X123875Y162870D01*
D02*
G37*
G36*
X181896Y199346D02*
X181701Y199114D01*
X181622Y199000D01*
X181555Y198887D01*
X181500Y198776D01*
X181457Y198667D01*
X181427Y198559D01*
X181409Y198453D01*
X181402Y198349D01*
X180802D01*
X180796Y198453D01*
X180778Y198559D01*
X180747Y198667D01*
X180705Y198776D01*
X180650Y198887D01*
X180583Y199000D01*
X180503Y199114D01*
X180412Y199229D01*
X180308Y199346D01*
X180192Y199465D01*
X182012D01*
X181896Y199346D01*
D02*
G37*
G36*
X181409Y176744D02*
X181427Y176637D01*
X181457Y176530D01*
X181500Y176420D01*
X181555Y176310D01*
X181622Y176197D01*
X181701Y176083D01*
X181793Y175968D01*
X181896Y175850D01*
X182012Y175732D01*
X180192D01*
X180308Y175850D01*
X180503Y176083D01*
X180583Y176197D01*
X180650Y176310D01*
X180705Y176420D01*
X180747Y176530D01*
X180778Y176637D01*
X180796Y176744D01*
X180802Y176848D01*
X181402D01*
X181409Y176744D01*
D02*
G37*
G36*
X128993Y175074D02*
X128874Y175190D01*
X128641Y175385D01*
X128527Y175465D01*
X128415Y175532D01*
X128304Y175587D01*
X128195Y175629D01*
X128087Y175660D01*
X127981Y175678D01*
X127876Y175684D01*
Y176284D01*
X127981Y176290D01*
X128087Y176309D01*
X128195Y176339D01*
X128304Y176382D01*
X128415Y176437D01*
X128527Y176504D01*
X128641Y176583D01*
X128757Y176675D01*
X128874Y176778D01*
X128993Y176894D01*
Y175074D01*
D02*
G37*
G36*
X124810Y191472D02*
X124615Y191240D01*
X124535Y191126D01*
X124468Y191013D01*
X124413Y190902D01*
X124371Y190793D01*
X124340Y190685D01*
X124322Y190579D01*
X124316Y190475D01*
X123716D01*
X123710Y190579D01*
X123691Y190685D01*
X123661Y190793D01*
X123618Y190902D01*
X123563Y191013D01*
X123496Y191126D01*
X123417Y191240D01*
X123325Y191355D01*
X123222Y191472D01*
X123106Y191591D01*
X124926D01*
X124810Y191472D01*
D02*
G37*
G36*
X141345Y124150D02*
X141150Y123917D01*
X141071Y123803D01*
X141004Y123690D01*
X140949Y123580D01*
X140906Y123470D01*
X140876Y123363D01*
X140857Y123256D01*
X140851Y123152D01*
X140251D01*
X140245Y123256D01*
X140227Y123363D01*
X140196Y123470D01*
X140154Y123580D01*
X140099Y123690D01*
X140032Y123803D01*
X139952Y123917D01*
X139861Y124032D01*
X139757Y124150D01*
X139641Y124268D01*
X141461D01*
X141345Y124150D01*
D02*
G37*
G36*
X137015D02*
X136819Y123917D01*
X136740Y123803D01*
X136673Y123690D01*
X136618Y123580D01*
X136575Y123470D01*
X136545Y123363D01*
X136527Y123256D01*
X136521Y123152D01*
X135921D01*
X135914Y123256D01*
X135896Y123363D01*
X135866Y123470D01*
X135823Y123580D01*
X135768Y123690D01*
X135701Y123803D01*
X135622Y123917D01*
X135530Y124032D01*
X135426Y124150D01*
X135310Y124268D01*
X137130D01*
X137015Y124150D01*
D02*
G37*
G36*
X15361Y182024D02*
X15166Y181791D01*
X15087Y181677D01*
X15019Y181564D01*
X14965Y181454D01*
X14922Y181344D01*
X14891Y181237D01*
X14873Y181131D01*
X14867Y181026D01*
X14267D01*
X14261Y181131D01*
X14243Y181237D01*
X14212Y181344D01*
X14169Y181454D01*
X14114Y181564D01*
X14047Y181677D01*
X13968Y181791D01*
X13877Y181906D01*
X13773Y182024D01*
X13657Y182142D01*
X15477D01*
X15361Y182024D01*
D02*
G37*
G36*
X12605Y188323D02*
X12410Y188090D01*
X12331Y187976D01*
X12263Y187864D01*
X12209Y187753D01*
X12166Y187644D01*
X12135Y187536D01*
X12117Y187430D01*
X12111Y187325D01*
X11511D01*
X11505Y187430D01*
X11487Y187536D01*
X11456Y187644D01*
X11413Y187753D01*
X11359Y187864D01*
X11291Y187976D01*
X11212Y188090D01*
X11121Y188206D01*
X11017Y188323D01*
X10901Y188442D01*
X12721D01*
X12605Y188323D01*
D02*
G37*
G36*
X102615Y145940D02*
X102496Y146056D01*
X102263Y146251D01*
X102149Y146331D01*
X102037Y146398D01*
X101926Y146453D01*
X101817Y146495D01*
X101709Y146526D01*
X101603Y146544D01*
X101498Y146550D01*
Y147150D01*
X101603Y147157D01*
X101709Y147175D01*
X101817Y147205D01*
X101926Y147248D01*
X102037Y147303D01*
X102149Y147370D01*
X102263Y147449D01*
X102379Y147541D01*
X102496Y147644D01*
X102615Y147760D01*
Y145940D01*
D02*
G37*
G36*
X81362Y144101D02*
X81595Y143906D01*
X81709Y143827D01*
X81821Y143760D01*
X81932Y143705D01*
X82042Y143662D01*
X82149Y143631D01*
X82255Y143613D01*
X82360Y143607D01*
Y143007D01*
X82255Y143001D01*
X82149Y142983D01*
X82042Y142952D01*
X81932Y142910D01*
X81821Y142855D01*
X81709Y142788D01*
X81595Y142708D01*
X81479Y142617D01*
X81362Y142513D01*
X81243Y142397D01*
Y144217D01*
X81362Y144101D01*
D02*
G37*
G36*
X98284Y142397D02*
X98165Y142513D01*
X97933Y142708D01*
X97819Y142788D01*
X97706Y142855D01*
X97595Y142910D01*
X97486Y142952D01*
X97378Y142983D01*
X97272Y143001D01*
X97168Y143007D01*
Y143607D01*
X97272Y143613D01*
X97378Y143631D01*
X97486Y143662D01*
X97595Y143705D01*
X97706Y143760D01*
X97819Y143827D01*
X97933Y143906D01*
X98048Y143998D01*
X98165Y144101D01*
X98284Y144217D01*
Y142397D01*
D02*
G37*
G36*
X81362Y147644D02*
X81595Y147449D01*
X81709Y147370D01*
X81821Y147303D01*
X81932Y147248D01*
X82042Y147205D01*
X82149Y147175D01*
X82255Y147157D01*
X82360Y147150D01*
Y146550D01*
X82255Y146544D01*
X82149Y146526D01*
X82042Y146495D01*
X81932Y146453D01*
X81821Y146398D01*
X81709Y146331D01*
X81595Y146251D01*
X81479Y146160D01*
X81362Y146056D01*
X81243Y145940D01*
Y147760D01*
X81362Y147644D01*
D02*
G37*
G36*
X98284Y148303D02*
X98165Y148418D01*
X97933Y148614D01*
X97819Y148693D01*
X97706Y148760D01*
X97595Y148815D01*
X97486Y148858D01*
X97378Y148888D01*
X97272Y148907D01*
X97168Y148913D01*
Y149513D01*
X97272Y149519D01*
X97378Y149537D01*
X97486Y149567D01*
X97595Y149610D01*
X97706Y149665D01*
X97819Y149732D01*
X97933Y149811D01*
X98048Y149903D01*
X98165Y150007D01*
X98284Y150123D01*
Y148303D01*
D02*
G37*
G36*
X84905Y150007D02*
X85138Y149811D01*
X85252Y149732D01*
X85365Y149665D01*
X85476Y149610D01*
X85585Y149567D01*
X85693Y149537D01*
X85799Y149519D01*
X85903Y149513D01*
Y148913D01*
X85799Y148907D01*
X85693Y148888D01*
X85585Y148858D01*
X85476Y148815D01*
X85365Y148760D01*
X85252Y148693D01*
X85138Y148614D01*
X85023Y148522D01*
X84905Y148418D01*
X84787Y148303D01*
Y150123D01*
X84905Y150007D01*
D02*
G37*
G36*
X95135Y150665D02*
X95016Y150781D01*
X94783Y150976D01*
X94669Y151055D01*
X94556Y151122D01*
X94446Y151177D01*
X94336Y151220D01*
X94229Y151250D01*
X94123Y151269D01*
X94018Y151275D01*
Y151875D01*
X94123Y151881D01*
X94229Y151899D01*
X94336Y151930D01*
X94446Y151972D01*
X94556Y152027D01*
X94669Y152094D01*
X94783Y152174D01*
X94899Y152265D01*
X95016Y152369D01*
X95135Y152485D01*
Y150665D01*
D02*
G37*
G36*
X81362Y152369D02*
X81595Y152174D01*
X81709Y152094D01*
X81821Y152027D01*
X81932Y151972D01*
X82042Y151930D01*
X82149Y151899D01*
X82255Y151881D01*
X82360Y151875D01*
Y151275D01*
X82255Y151269D01*
X82149Y151250D01*
X82042Y151220D01*
X81932Y151177D01*
X81821Y151122D01*
X81709Y151055D01*
X81595Y150976D01*
X81479Y150884D01*
X81362Y150781D01*
X81243Y150665D01*
Y152485D01*
X81362Y152369D01*
D02*
G37*
G36*
X75850Y138589D02*
X76083Y138394D01*
X76197Y138315D01*
X76310Y138248D01*
X76420Y138193D01*
X76530Y138150D01*
X76638Y138120D01*
X76744Y138101D01*
X76848Y138095D01*
Y137495D01*
X76744Y137489D01*
X76638Y137471D01*
X76530Y137440D01*
X76420Y137398D01*
X76310Y137343D01*
X76197Y137276D01*
X76083Y137196D01*
X75968Y137105D01*
X75850Y137001D01*
X75731Y136885D01*
Y138705D01*
X75850Y138589D01*
D02*
G37*
G36*
X111703Y136955D02*
X111777Y136951D01*
X111825Y136942D01*
X111880Y136927D01*
X111943Y136902D01*
X112014Y136867D01*
X112092Y136821D01*
X112171Y136766D01*
X112369Y136600D01*
X112473Y136498D01*
X112493Y136490D01*
X113077Y136100D01*
X113445Y136027D01*
X113396Y135527D01*
X75186D01*
X75137Y136027D01*
X75506Y136100D01*
X76089Y136490D01*
X76109Y136498D01*
X76219Y136605D01*
X76315Y136690D01*
X76406Y136762D01*
X76491Y136821D01*
X76569Y136867D01*
X76639Y136902D01*
X76702Y136927D01*
X76758Y136942D01*
X76806Y136951D01*
X76880Y136955D01*
X76930Y136980D01*
X111652D01*
X111703Y136955D01*
D02*
G37*
G36*
X108127Y140035D02*
X108008Y140151D01*
X107775Y140346D01*
X107661Y140425D01*
X107549Y140492D01*
X107438Y140547D01*
X107328Y140590D01*
X107221Y140621D01*
X107115Y140639D01*
X107010Y140645D01*
Y141245D01*
X107115Y141251D01*
X107221Y141269D01*
X107328Y141300D01*
X107438Y141342D01*
X107549Y141397D01*
X107661Y141464D01*
X107775Y141544D01*
X107891Y141635D01*
X108008Y141739D01*
X108127Y141855D01*
Y140035D01*
D02*
G37*
G36*
X75850Y141739D02*
X76083Y141544D01*
X76197Y141464D01*
X76310Y141397D01*
X76420Y141342D01*
X76530Y141300D01*
X76638Y141269D01*
X76744Y141251D01*
X76848Y141245D01*
Y140645D01*
X76744Y140639D01*
X76638Y140621D01*
X76530Y140590D01*
X76420Y140547D01*
X76310Y140492D01*
X76197Y140425D01*
X76083Y140346D01*
X75968Y140254D01*
X75850Y140151D01*
X75731Y140035D01*
Y141855D01*
X75850Y141739D01*
D02*
G37*
G36*
X112851Y136885D02*
X112732Y137001D01*
X112499Y137196D01*
X112385Y137276D01*
X112273Y137343D01*
X112162Y137398D01*
X112053Y137440D01*
X111945Y137471D01*
X111839Y137489D01*
X111735Y137495D01*
Y138095D01*
X111839Y138101D01*
X111945Y138120D01*
X112053Y138150D01*
X112162Y138193D01*
X112273Y138248D01*
X112385Y138315D01*
X112499Y138394D01*
X112615Y138486D01*
X112732Y138589D01*
X112851Y138705D01*
Y136885D01*
D02*
G37*
G36*
X116394Y133342D02*
X116357Y133372D01*
X116308Y133400D01*
X116246Y133424D01*
X116173Y133444D01*
X116088Y133462D01*
X115990Y133476D01*
X115760Y133496D01*
X115481Y133502D01*
Y135002D01*
X115626Y135004D01*
X115990Y135028D01*
X116088Y135042D01*
X116173Y135060D01*
X116246Y135080D01*
X116308Y135104D01*
X116357Y135132D01*
X116394Y135162D01*
Y133342D01*
D02*
G37*
G36*
X72619Y135132D02*
X72669Y135104D01*
X72730Y135080D01*
X72803Y135060D01*
X72889Y135042D01*
X72986Y135028D01*
X73217Y135008D01*
X73495Y135002D01*
Y133502D01*
X73350Y133500D01*
X72986Y133476D01*
X72889Y133462D01*
X72803Y133444D01*
X72730Y133424D01*
X72669Y133400D01*
X72619Y133372D01*
X72582Y133342D01*
Y135162D01*
X72619Y135132D01*
D02*
G37*
G36*
X71974Y163817D02*
X71990Y163763D01*
X72016Y163702D01*
X72053Y163636D01*
X72101Y163563D01*
X72160Y163484D01*
X72309Y163307D01*
X72502Y163106D01*
X71441Y162045D01*
X71337Y162147D01*
X71063Y162387D01*
X70984Y162446D01*
X70911Y162494D01*
X70845Y162531D01*
X70784Y162557D01*
X70730Y162573D01*
X70682Y162578D01*
X71969Y163865D01*
X71974Y163817D01*
D02*
G37*
G36*
X91198Y124287D02*
X91160Y124317D01*
X91111Y124345D01*
X91049Y124369D01*
X90976Y124389D01*
X90891Y124407D01*
X90794Y124421D01*
X90563Y124441D01*
X90284Y124447D01*
Y125947D01*
X90430Y125949D01*
X90794Y125972D01*
X90891Y125987D01*
X90976Y126004D01*
X91049Y126025D01*
X91111Y126049D01*
X91160Y126076D01*
X91198Y126107D01*
Y124287D01*
D02*
G37*
G36*
X74785Y126076D02*
X74834Y126049D01*
X74895Y126025D01*
X74969Y126004D01*
X75054Y125987D01*
X75151Y125972D01*
X75382Y125953D01*
X75661Y125947D01*
Y124447D01*
X75515Y124445D01*
X75151Y124421D01*
X75054Y124407D01*
X74969Y124389D01*
X74895Y124369D01*
X74834Y124345D01*
X74785Y124317D01*
X74747Y124287D01*
Y126107D01*
X74785Y126076D01*
D02*
G37*
G36*
X116788Y128618D02*
X116751Y128648D01*
X116701Y128675D01*
X116640Y128699D01*
X116567Y128720D01*
X116481Y128738D01*
X116384Y128752D01*
X116153Y128771D01*
X115875Y128778D01*
X115875Y130278D01*
X116020Y130279D01*
X116384Y130303D01*
X116481Y130318D01*
X116567Y130335D01*
X116640Y130356D01*
X116701Y130380D01*
X116751Y130407D01*
X116788Y130438D01*
X116788Y128618D01*
D02*
G37*
G36*
X93907Y125327D02*
X93361Y124792D01*
X92556Y126424D01*
X92607Y126413D01*
X92664Y126415D01*
X92727Y126428D01*
X92796Y126455D01*
X92871Y126493D01*
X92951Y126544D01*
X93037Y126608D01*
X93129Y126684D01*
X93331Y126872D01*
X93907Y125327D01*
D02*
G37*
G36*
X73151Y126928D02*
X73425Y126688D01*
X73504Y126629D01*
X73577Y126581D01*
X73643Y126544D01*
X73704Y126517D01*
X73758Y126502D01*
X73806Y126497D01*
X72519Y125210D01*
X72514Y125258D01*
X72498Y125312D01*
X72472Y125372D01*
X72435Y125439D01*
X72387Y125512D01*
X72328Y125591D01*
X72179Y125767D01*
X71986Y125969D01*
X73047Y127030D01*
X73151Y126928D01*
D02*
G37*
G36*
X75683Y201790D02*
X75656Y201741D01*
X75632Y201679D01*
X75611Y201606D01*
X75593Y201521D01*
X75579Y201423D01*
X75560Y201193D01*
X75553Y200914D01*
X74053D01*
X74051Y201059D01*
X74028Y201423D01*
X74013Y201521D01*
X73996Y201606D01*
X73975Y201679D01*
X73951Y201741D01*
X73924Y201790D01*
X73893Y201828D01*
X75713D01*
X75683Y201790D01*
D02*
G37*
G36*
X71421Y165574D02*
X71445Y165210D01*
X71459Y165113D01*
X71477Y165028D01*
X71498Y164954D01*
X71522Y164893D01*
X71549Y164844D01*
X71579Y164806D01*
X69759D01*
X69790Y164844D01*
X69817Y164893D01*
X69841Y164954D01*
X69862Y165028D01*
X69879Y165113D01*
X69894Y165210D01*
X69913Y165441D01*
X69919Y165720D01*
X71419D01*
X71421Y165574D01*
D02*
G37*
G36*
X75604Y187144D02*
X75577Y187095D01*
X75553Y187034D01*
X75532Y186960D01*
X75514Y186875D01*
X75500Y186778D01*
X75481Y186547D01*
X75474Y186268D01*
X73974D01*
X73973Y186414D01*
X73949Y186778D01*
X73934Y186875D01*
X73917Y186960D01*
X73896Y187034D01*
X73872Y187095D01*
X73845Y187144D01*
X73814Y187182D01*
X75634D01*
X75604Y187144D01*
D02*
G37*
G36*
X75553Y189892D02*
X75555Y189746D01*
X75587Y189285D01*
X75602Y189200D01*
X75620Y189127D01*
X75640Y189066D01*
X75663Y189018D01*
X75689Y188982D01*
X73872Y189092D01*
X73907Y189129D01*
X73937Y189179D01*
X73965Y189240D01*
X73988Y189313D01*
X74008Y189398D01*
X74024Y189496D01*
X74046Y189726D01*
X74051Y189859D01*
X74053Y190004D01*
X75553Y189892D01*
D02*
G37*
G36*
X104356Y196864D02*
X104444Y196802D01*
X104542Y196747D01*
X104649Y196700D01*
X104766Y196661D01*
X104894Y196629D01*
X105030Y196604D01*
X105177Y196587D01*
X105333Y196578D01*
X105499Y196575D01*
X104212Y195289D01*
X104210Y195455D01*
X104183Y195757D01*
X104159Y195894D01*
X104127Y196021D01*
X104087Y196138D01*
X104040Y196246D01*
X103985Y196343D01*
X103923Y196431D01*
X103854Y196509D01*
X104278Y196934D01*
X104356Y196864D01*
D02*
G37*
G36*
X103944Y213520D02*
X103749Y213287D01*
X103669Y213173D01*
X103602Y213060D01*
X103547Y212950D01*
X103505Y212840D01*
X103474Y212733D01*
X103456Y212627D01*
X103450Y212522D01*
X102850D01*
X102843Y212627D01*
X102825Y212733D01*
X102795Y212840D01*
X102752Y212950D01*
X102697Y213060D01*
X102630Y213173D01*
X102551Y213287D01*
X102459Y213403D01*
X102356Y213520D01*
X102240Y213638D01*
X104060D01*
X103944Y213520D01*
D02*
G37*
G36*
X35257Y165707D02*
X35531Y165467D01*
X35610Y165408D01*
X35683Y165360D01*
X35750Y165323D01*
X35810Y165297D01*
X35864Y165281D01*
X35912Y165276D01*
X34625Y163989D01*
X34620Y164037D01*
X34605Y164091D01*
X34578Y164152D01*
X34541Y164218D01*
X34493Y164291D01*
X34435Y164370D01*
X34285Y164547D01*
X34093Y164748D01*
X35153Y165809D01*
X35257Y165707D01*
D02*
G37*
G36*
X34997Y195055D02*
X34959Y195085D01*
X34910Y195112D01*
X34849Y195136D01*
X34775Y195157D01*
X34690Y195175D01*
X34593Y195189D01*
X34362Y195208D01*
X34083Y195215D01*
Y196715D01*
X34229Y196716D01*
X34593Y196740D01*
X34690Y196755D01*
X34775Y196772D01*
X34849Y196793D01*
X34910Y196817D01*
X34959Y196844D01*
X34997Y196875D01*
Y195055D01*
D02*
G37*
G36*
X69945Y122054D02*
X70178Y121859D01*
X70292Y121779D01*
X70404Y121712D01*
X70515Y121657D01*
X70624Y121615D01*
X70732Y121584D01*
X70838Y121566D01*
X70943Y121560D01*
Y120960D01*
X70838Y120954D01*
X70732Y120935D01*
X70624Y120905D01*
X70515Y120862D01*
X70404Y120807D01*
X70292Y120740D01*
X70178Y120661D01*
X70062Y120569D01*
X69945Y120466D01*
X69826Y120350D01*
Y122170D01*
X69945Y122054D01*
D02*
G37*
G36*
X130961Y124287D02*
X130843Y124403D01*
X130610Y124598D01*
X130496Y124677D01*
X130383Y124744D01*
X130272Y124799D01*
X130163Y124842D01*
X130055Y124873D01*
X129949Y124891D01*
X129845Y124897D01*
Y125497D01*
X129949Y125503D01*
X130055Y125521D01*
X130163Y125552D01*
X130272Y125594D01*
X130383Y125649D01*
X130496Y125716D01*
X130610Y125796D01*
X130725Y125887D01*
X130843Y125991D01*
X130961Y126107D01*
Y124287D01*
D02*
G37*
G36*
X128997Y184241D02*
X129017Y184140D01*
X129050Y184036D01*
X129096Y183928D01*
X129155Y183817D01*
X129228Y183703D01*
X129314Y183585D01*
X129413Y183464D01*
X129650Y183212D01*
X127830D01*
X127956Y183340D01*
X128167Y183585D01*
X128253Y183703D01*
X128325Y183817D01*
X128385Y183928D01*
X128431Y184036D01*
X128464Y184140D01*
X128484Y184241D01*
X128490Y184339D01*
X128990D01*
X128997Y184241D01*
D02*
G37*
G36*
X129525Y191464D02*
X129314Y191218D01*
X129228Y191100D01*
X129155Y190986D01*
X129096Y190875D01*
X129050Y190767D01*
X129017Y190663D01*
X128997Y190562D01*
X128990Y190464D01*
X128490D01*
X128484Y190562D01*
X128464Y190663D01*
X128431Y190767D01*
X128385Y190875D01*
X128325Y190986D01*
X128253Y191100D01*
X128167Y191218D01*
X128068Y191339D01*
X127830Y191591D01*
X129650D01*
X129525Y191464D01*
D02*
G37*
G36*
X106212Y182649D02*
X106230Y182543D01*
X106260Y182435D01*
X106303Y182326D01*
X106358Y182215D01*
X106425Y182103D01*
X106504Y181989D01*
X106596Y181873D01*
X106700Y181756D01*
X106816Y181637D01*
X104996D01*
X105111Y181756D01*
X105307Y181989D01*
X105386Y182103D01*
X105453Y182215D01*
X105508Y182326D01*
X105551Y182435D01*
X105581Y182543D01*
X105599Y182649D01*
X105605Y182754D01*
X106205D01*
X106212Y182649D01*
D02*
G37*
G36*
X111798Y188464D02*
X111632Y188462D01*
X111329Y188435D01*
X111193Y188411D01*
X111066Y188379D01*
X110949Y188339D01*
X110841Y188292D01*
X110743Y188237D01*
X110655Y188175D01*
X110577Y188106D01*
X110153Y188530D01*
X110222Y188608D01*
X110285Y188696D01*
X110339Y188794D01*
X110386Y188901D01*
X110426Y189018D01*
X110458Y189146D01*
X110482Y189282D01*
X110500Y189429D01*
X110509Y189585D01*
X110511Y189751D01*
X111798Y188464D01*
D02*
G37*
G36*
X177172Y194622D02*
X176977Y194389D01*
X176898Y194275D01*
X176830Y194163D01*
X176776Y194052D01*
X176733Y193943D01*
X176702Y193835D01*
X176684Y193729D01*
X176678Y193624D01*
X176078D01*
X176072Y193729D01*
X176054Y193835D01*
X176023Y193943D01*
X175980Y194052D01*
X175926Y194163D01*
X175858Y194275D01*
X175779Y194389D01*
X175688Y194505D01*
X175584Y194622D01*
X175468Y194741D01*
X177288D01*
X177172Y194622D01*
D02*
G37*
G36*
X176684Y191704D02*
X176702Y191598D01*
X176733Y191490D01*
X176776Y191381D01*
X176830Y191270D01*
X176898Y191158D01*
X176977Y191044D01*
X177068Y190928D01*
X177172Y190811D01*
X177288Y190692D01*
X175468D01*
X175584Y190811D01*
X175779Y191044D01*
X175858Y191158D01*
X175926Y191270D01*
X175980Y191381D01*
X176023Y191490D01*
X176054Y191598D01*
X176072Y191704D01*
X176078Y191809D01*
X176678D01*
X176684Y191704D01*
D02*
G37*
G36*
X219140Y134278D02*
X219242Y134191D01*
X219346Y134115D01*
X219453Y134048D01*
X219561Y133992D01*
X219670Y133946D01*
X219782Y133911D01*
X219895Y133885D01*
X220010Y133870D01*
X220127Y133865D01*
Y133065D01*
X220010Y133060D01*
X219895Y133044D01*
X219782Y133019D01*
X219670Y132983D01*
X219561Y132937D01*
X219453Y132881D01*
X219346Y132815D01*
X219242Y132738D01*
X219140Y132651D01*
X219039Y132555D01*
Y134375D01*
X219140Y134278D01*
D02*
G37*
G36*
X224338Y132509D02*
X224256Y132614D01*
X224170Y132709D01*
X224080Y132792D01*
X223985Y132864D01*
X223886Y132926D01*
X223783Y132976D01*
X223676Y133015D01*
X223565Y133042D01*
X223449Y133059D01*
X223330Y133065D01*
X223459Y133865D01*
X223572Y133869D01*
X223685Y133882D01*
X223800Y133905D01*
X223914Y133935D01*
X224029Y133975D01*
X224145Y134024D01*
X224262Y134082D01*
X224378Y134148D01*
X224496Y134224D01*
X224614Y134308D01*
X224338Y132509D01*
D02*
G37*
G36*
X100785Y216660D02*
X100573Y216415D01*
X100488Y216297D01*
X100415Y216183D01*
X100356Y216072D01*
X100309Y215964D01*
X100276Y215860D01*
X100257Y215759D01*
X100250Y215661D01*
X99750D01*
X99743Y215759D01*
X99724Y215860D01*
X99691Y215964D01*
X99644Y216072D01*
X99585Y216183D01*
X99512Y216297D01*
X99427Y216415D01*
X99328Y216536D01*
X99090Y216788D01*
X100910D01*
X100785Y216660D01*
D02*
G37*
G36*
X100257Y193297D02*
X100276Y193195D01*
X100309Y193091D01*
X100356Y192983D01*
X100415Y192872D01*
X100488Y192758D01*
X100573Y192640D01*
X100672Y192519D01*
X100910Y192267D01*
X99090D01*
X99215Y192395D01*
X99427Y192640D01*
X99512Y192758D01*
X99585Y192872D01*
X99644Y192983D01*
X99691Y193091D01*
X99724Y193195D01*
X99743Y193297D01*
X99750Y193394D01*
X100250D01*
X100257Y193297D01*
D02*
G37*
G36*
X125056Y243184D02*
X124937Y243300D01*
X124704Y243496D01*
X124590Y243575D01*
X124478Y243642D01*
X124367Y243697D01*
X124258Y243740D01*
X124150Y243770D01*
X124044Y243788D01*
X123939Y243794D01*
Y244394D01*
X124044Y244401D01*
X124150Y244419D01*
X124258Y244449D01*
X124367Y244492D01*
X124478Y244547D01*
X124590Y244614D01*
X124704Y244693D01*
X124820Y244785D01*
X124937Y244889D01*
X125056Y245005D01*
Y243184D01*
D02*
G37*
G36*
X118764Y244889D02*
X118997Y244693D01*
X119111Y244614D01*
X119223Y244547D01*
X119334Y244492D01*
X119443Y244449D01*
X119551Y244419D01*
X119657Y244401D01*
X119761Y244394D01*
Y243794D01*
X119657Y243788D01*
X119551Y243770D01*
X119443Y243740D01*
X119334Y243697D01*
X119223Y243642D01*
X119111Y243575D01*
X118997Y243496D01*
X118881Y243404D01*
X118764Y243300D01*
X118645Y243184D01*
Y245005D01*
X118764Y244889D01*
D02*
G37*
G36*
X153277Y283752D02*
X153199Y283809D01*
X153107Y283837D01*
X153001D01*
X152881Y283809D01*
X152746Y283752D01*
X152598Y283667D01*
X152435Y283554D01*
X152258Y283413D01*
X151862Y283045D01*
X151155Y283752D01*
X151353Y283957D01*
X151664Y284325D01*
X151778Y284488D01*
X151862Y284636D01*
X151919Y284770D01*
X151947Y284891D01*
Y284997D01*
X151919Y285089D01*
X151862Y285166D01*
X153277Y283752D01*
D02*
G37*
G36*
X148142Y273112D02*
X148154Y272990D01*
X148175Y272872D01*
X148203Y272760D01*
X148240Y272652D01*
X148285Y272549D01*
X148339Y272452D01*
X148400Y272359D01*
X148470Y272271D01*
X148548Y272188D01*
X146728D01*
X146806Y272271D01*
X146875Y272359D01*
X146937Y272452D01*
X146990Y272549D01*
X147035Y272652D01*
X147072Y272760D01*
X147101Y272872D01*
X147121Y272990D01*
X147134Y273112D01*
X147138Y273240D01*
X148138D01*
X148142Y273112D01*
D02*
G37*
G36*
X198043Y272766D02*
X198058Y272651D01*
X198084Y272538D01*
X198119Y272426D01*
X198165Y272317D01*
X198221Y272209D01*
X198288Y272102D01*
X198364Y271998D01*
X198451Y271895D01*
X198548Y271795D01*
X196728D01*
X196825Y271895D01*
X196911Y271998D01*
X196988Y272102D01*
X197054Y272209D01*
X197110Y272317D01*
X197156Y272426D01*
X197192Y272538D01*
X197217Y272651D01*
X197233Y272766D01*
X197238Y272883D01*
X198038D01*
X198043Y272766D01*
D02*
G37*
G36*
X198451Y279286D02*
X198364Y279183D01*
X198288Y279079D01*
X198221Y278972D01*
X198165Y278865D01*
X198119Y278755D01*
X198084Y278643D01*
X198058Y278530D01*
X198043Y278415D01*
X198038Y278298D01*
X197238D01*
X197233Y278415D01*
X197217Y278530D01*
X197192Y278643D01*
X197156Y278755D01*
X197110Y278865D01*
X197054Y278972D01*
X196988Y279079D01*
X196911Y279183D01*
X196825Y279286D01*
X196728Y279387D01*
X198548D01*
X198451Y279286D01*
D02*
G37*
G36*
X192531Y272766D02*
X192546Y272651D01*
X192572Y272538D01*
X192608Y272426D01*
X192654Y272317D01*
X192710Y272209D01*
X192776Y272102D01*
X192852Y271998D01*
X192939Y271895D01*
X193036Y271795D01*
X191216D01*
X191313Y271895D01*
X191400Y271998D01*
X191476Y272102D01*
X191542Y272209D01*
X191598Y272317D01*
X191644Y272426D01*
X191680Y272538D01*
X191706Y272651D01*
X191721Y272766D01*
X191726Y272883D01*
X192526D01*
X192531Y272766D01*
D02*
G37*
G36*
X192939Y279286D02*
X192852Y279183D01*
X192776Y279079D01*
X192710Y278972D01*
X192654Y278865D01*
X192608Y278755D01*
X192572Y278643D01*
X192546Y278530D01*
X192531Y278415D01*
X192526Y278298D01*
X191726D01*
X191721Y278415D01*
X191706Y278530D01*
X191680Y278643D01*
X191644Y278755D01*
X191598Y278865D01*
X191542Y278972D01*
X191476Y279079D01*
X191400Y279183D01*
X191313Y279286D01*
X191216Y279387D01*
X193036D01*
X192939Y279286D01*
D02*
G37*
G36*
X118764Y249613D02*
X118997Y249418D01*
X119111Y249339D01*
X119223Y249271D01*
X119334Y249217D01*
X119443Y249174D01*
X119551Y249143D01*
X119657Y249125D01*
X119761Y249119D01*
Y248519D01*
X119657Y248513D01*
X119551Y248495D01*
X119443Y248464D01*
X119334Y248421D01*
X119223Y248366D01*
X119111Y248299D01*
X118997Y248220D01*
X118881Y248129D01*
X118764Y248025D01*
X118645Y247909D01*
Y249729D01*
X118764Y249613D01*
D02*
G37*
G36*
X125056Y247909D02*
X124937Y248025D01*
X124704Y248220D01*
X124590Y248299D01*
X124478Y248366D01*
X124367Y248421D01*
X124258Y248464D01*
X124150Y248495D01*
X124044Y248513D01*
X123939Y248519D01*
Y249119D01*
X124044Y249125D01*
X124150Y249143D01*
X124258Y249174D01*
X124367Y249217D01*
X124478Y249271D01*
X124590Y249339D01*
X124704Y249418D01*
X124820Y249509D01*
X124937Y249613D01*
X125056Y249729D01*
Y247909D01*
D02*
G37*
G36*
X67958Y272073D02*
X68061Y271986D01*
X68165Y271910D01*
X68272Y271843D01*
X68380Y271787D01*
X68489Y271741D01*
X68601Y271706D01*
X68714Y271680D01*
X68829Y271665D01*
X68946Y271660D01*
Y270860D01*
X68829Y270855D01*
X68714Y270839D01*
X68601Y270814D01*
X68489Y270778D01*
X68380Y270732D01*
X68272Y270676D01*
X68165Y270610D01*
X68061Y270533D01*
X67958Y270447D01*
X67857Y270350D01*
X67857Y272170D01*
X67958Y272073D01*
D02*
G37*
G36*
X103402Y270350D02*
X103302Y270447D01*
X103199Y270533D01*
X103094Y270610D01*
X102988Y270676D01*
X102880Y270732D01*
X102770Y270778D01*
X102659Y270814D01*
X102546Y270839D01*
X102431Y270855D01*
X102314Y270860D01*
Y271660D01*
X102431Y271665D01*
X102546Y271680D01*
X102659Y271706D01*
X102770Y271741D01*
X102880Y271787D01*
X102988Y271843D01*
X103094Y271910D01*
X103199Y271986D01*
X103302Y272073D01*
X103402Y272170D01*
Y270350D01*
D02*
G37*
D46*
X38386Y139764D02*
Y146214D01*
X29921Y154679D02*
X38386Y146214D01*
X29921Y154679D02*
Y154724D01*
X35827Y196063D02*
X35925Y195965D01*
X71653Y134252D02*
X117323D01*
X74803Y188189D02*
Y202756D01*
X28150Y140157D02*
X28543Y139764D01*
X117717Y129528D02*
X117717Y129527D01*
X97047Y129528D02*
X117717D01*
X31398Y168504D02*
X35925Y163976D01*
X24409Y168504D02*
X31398D01*
X22835Y170079D02*
X24409Y168504D01*
X22835Y170079D02*
Y188189D01*
X67323Y131693D02*
X73819Y125197D01*
X73228Y154724D02*
Y161319D01*
X70669Y163878D02*
X73228Y161319D01*
X67323Y148819D02*
X73228Y154724D01*
X21260Y189764D02*
X22835Y188189D01*
X21260Y189764D02*
Y193307D01*
X23917Y195965D01*
X35925D01*
X67323Y131693D02*
Y148819D01*
X92716Y125197D02*
X97047Y129528D01*
X70669Y163878D02*
Y167520D01*
X74724Y171575D01*
Y188110D01*
X73819Y125197D02*
X92126D01*
X92716D01*
D47*
X147638Y279528D02*
X155197Y287087D01*
X147638Y271260D02*
Y279528D01*
X110039Y255709D02*
X110236Y255906D01*
X129724Y255709D02*
X129921Y255906D01*
X167126Y255709D02*
X167323Y255906D01*
X188779Y255709D02*
X188976Y255906D01*
X206299Y177559D02*
Y196850D01*
X143307Y190551D02*
X148622Y195866D01*
X143307Y177165D02*
Y190551D01*
D48*
X225394Y133268D02*
Y159646D01*
X218110Y133465D02*
X225197D01*
X225394Y133268D01*
X197638Y270866D02*
Y280315D01*
X192126Y270866D02*
Y280315D01*
X104331Y270472D02*
Y271260D01*
X68012Y271260D02*
X68012Y271260D01*
X192126Y226378D02*
Y241732D01*
X197638Y226378D02*
Y241732D01*
X225394Y159646D02*
X225394Y159646D01*
X225394Y159252D02*
Y159646D01*
X68012Y271260D02*
X104331D01*
D49*
X40600Y135700D02*
X40800Y135900D01*
X35400Y135700D02*
X40600D01*
X31800Y139300D02*
X35400Y135700D01*
X31800Y139300D02*
Y145000D01*
X25984Y150816D02*
X31800Y145000D01*
X25984Y150816D02*
Y154724D01*
X40500Y136800D02*
X40800Y137100D01*
X47244Y196850D02*
Y202362D01*
X39173Y188779D02*
X47244Y196850D01*
X39173Y172047D02*
Y188779D01*
X83858Y149213D02*
X99213D01*
X80315Y151575D02*
X96063D01*
X67126Y112992D02*
X81102D01*
X66929Y113189D02*
X67126Y112992D01*
X66929Y108268D02*
X77756D01*
X199803Y197835D02*
X202756Y194882D01*
X197835Y197835D02*
X199803D01*
X107874Y163779D02*
X124803D01*
X124803Y163779D02*
X124803Y163779D01*
X74803Y137795D02*
X113779D01*
X74803Y140945D02*
X109055D01*
X83465Y160236D02*
X104331D01*
X107874Y163779D01*
X176378Y189764D02*
Y195669D01*
X169291Y241339D02*
X180315D01*
X155905Y254724D02*
X169291Y241339D01*
X146850Y254724D02*
X155905D01*
X117717Y248819D02*
X125984D01*
X117717Y244094D02*
X125984D01*
X96850Y185039D02*
Y223622D01*
X90945Y179921D02*
Y222047D01*
X100787Y231890D01*
X93701Y176378D02*
Y220472D01*
X88583Y183858D02*
Y223622D01*
X185039Y177559D02*
Y197244D01*
X80315Y143307D02*
X99213D01*
X80315Y146850D02*
X103543D01*
X122835Y107874D02*
X131496Y99213D01*
X133858D01*
X148425Y177165D02*
Y186614D01*
X157874Y196063D01*
X14567Y128740D02*
Y183071D01*
X11811Y128347D02*
Y189370D01*
Y128347D02*
X24409Y115748D01*
X48425D01*
X14567Y128740D02*
X25197Y118110D01*
X49606D01*
X122047Y116142D02*
X133858D01*
X140551Y122835D01*
Y125197D01*
X121260Y118898D02*
X132283D01*
X136221Y122835D01*
Y125197D01*
X62992Y148031D02*
X62992Y148031D01*
Y118504D02*
Y148031D01*
X68898Y121260D02*
X96850D01*
X100787Y125197D01*
X131890D01*
X181102Y174803D02*
Y200394D01*
X127165Y175984D02*
X129921D01*
X124016Y179134D02*
X127165Y175984D01*
X124016Y179134D02*
Y192520D01*
X103150Y197638D02*
X105512Y195276D01*
X103150Y197638D02*
Y214567D01*
X146850Y258268D02*
X158268D01*
X170472Y246063D01*
X180315D01*
X105905Y180709D02*
Y183858D01*
X111811Y189764D01*
X48425Y115748D02*
X61417Y102756D01*
X108661D01*
X122047Y116142D01*
X49606Y118110D02*
X62598Y105118D01*
X107480D01*
X121260Y118898D01*
D50*
X79528Y307874D02*
X79921D01*
X144488Y99213D02*
Y120472D01*
X188300Y121100D02*
Y131400D01*
D52*
X128740Y182283D02*
Y192520D01*
X67716Y217717D02*
X82284D01*
X100000Y191339D02*
Y217717D01*
D61*
X70669Y232658D02*
D03*
D62*
Y222657D02*
D03*
X118760Y205803D02*
D03*
X128760Y205803D02*
D03*
X138701Y205803D02*
D03*
D63*
X108760Y205803D02*
D03*
X148701Y205803D02*
D03*
D64*
X17913Y135433D02*
D03*
X17913Y155118D02*
D03*
D65*
X7087Y130020D02*
D03*
X7087Y160531D02*
D03*
D66*
X22047Y130610D02*
D03*
Y159941D02*
D03*
D67*
X98110Y287087D02*
D03*
X155197D02*
D03*
X213347D02*
D03*
X260591D02*
D03*
D68*
X108110D02*
D03*
X118110D02*
D03*
X128110D02*
D03*
X165197D02*
D03*
X175197D02*
D03*
X185197D02*
D03*
X223346D02*
D03*
X233347D02*
D03*
X270590D02*
D03*
X280591D02*
D03*
D69*
X274606Y20669D02*
D03*
X147638Y232283D02*
D03*
X20669Y20669D02*
D03*
D70*
X31102Y90177D02*
D03*
D71*
X31102Y75177D02*
D03*
X94488Y31102D02*
D03*
X109488D02*
D03*
X200787D02*
D03*
X215787D02*
D03*
D72*
X79488D02*
D03*
X185787Y31102D02*
D03*
D73*
X35433Y248031D02*
D03*
Y240158D02*
D03*
Y255906D02*
D03*
Y263779D02*
D03*
Y271654D02*
D03*
X40800Y135900D02*
D03*
X35925Y195965D02*
D03*
X103150Y120866D02*
D03*
X218110Y133465D02*
D03*
X225394Y133268D02*
D03*
X105905Y180709D02*
D03*
X99213Y149213D02*
D03*
X96063Y151575D02*
D03*
X81102Y112992D02*
D03*
X85433Y185827D02*
D03*
X66929Y113189D02*
D03*
X77756Y108268D02*
D03*
X66929D02*
D03*
X202756Y194882D02*
D03*
X197835Y197835D02*
D03*
X220472Y203740D02*
D03*
X73819Y125197D02*
D03*
X38386Y139764D02*
D03*
X35925Y163976D02*
D03*
X83465Y160236D02*
D03*
X74803Y202756D02*
D03*
X74724Y188110D02*
D03*
X85827Y199606D02*
D03*
X24803Y192520D02*
D03*
X255906Y75590D02*
D03*
Y96457D02*
D03*
X152559Y75984D02*
D03*
Y96063D02*
D03*
X192126Y100000D02*
D03*
X185039D02*
D03*
X78347Y100394D02*
D03*
X85039D02*
D03*
X229134Y73228D02*
D03*
X225984D02*
D03*
X119685Y73622D02*
D03*
X122835D02*
D03*
X171063Y141535D02*
D03*
Y145079D02*
D03*
X152362Y156890D02*
D03*
X165157Y157874D02*
D03*
X152362Y149016D02*
D03*
Y142126D02*
D03*
Y133268D02*
D03*
X164173Y131299D02*
D03*
X195669Y140157D02*
D03*
X188779D02*
D03*
X201575D02*
D03*
X198228Y132087D02*
D03*
Y135236D02*
D03*
X58071Y99410D02*
D03*
X43898Y130905D02*
D03*
X158268Y156496D02*
D03*
X151378Y164173D02*
D03*
X53543Y99410D02*
D03*
X25984Y186221D02*
D03*
X49213Y99410D02*
D03*
X34547Y141535D02*
D03*
X70669Y163878D02*
D03*
X28150Y140157D02*
D03*
X47244Y202362D02*
D03*
X39173Y172047D02*
D03*
X26181D02*
D03*
X116142Y99410D02*
D03*
X148622Y195866D02*
D03*
X71653Y134252D02*
D03*
X74803Y137795D02*
D03*
X80315Y151575D02*
D03*
X74803Y140945D02*
D03*
X83858Y149213D02*
D03*
X124803Y163779D02*
D03*
X113779Y137795D02*
D03*
X103543Y146850D02*
D03*
X99213Y143307D02*
D03*
X109055Y140945D02*
D03*
X96850Y185039D02*
D03*
X176378Y189764D02*
D03*
X111811D02*
D03*
X90945Y179921D02*
D03*
X93701Y176378D02*
D03*
X88583Y183858D02*
D03*
X205512Y247244D02*
D03*
X225590D02*
D03*
X253150D02*
D03*
X274410D02*
D03*
X79528Y332677D02*
D03*
Y307874D02*
D03*
X147638Y271260D02*
D03*
X110039Y255709D02*
D03*
X129724D02*
D03*
X167126Y255709D02*
D03*
X188779D02*
D03*
X157874Y196063D02*
D03*
X176378Y195669D02*
D03*
X206299Y177559D02*
D03*
Y196850D02*
D03*
X197638Y280315D02*
D03*
Y270866D02*
D03*
Y226378D02*
D03*
X192126Y280315D02*
D03*
Y270866D02*
D03*
Y226378D02*
D03*
X104331Y271260D02*
D03*
X117717Y129527D02*
D03*
X192126Y241732D02*
D03*
X197638D02*
D03*
X146850Y258268D02*
D03*
X180315Y246063D02*
D03*
Y241339D02*
D03*
X146850Y254724D02*
D03*
X125984Y248819D02*
D03*
X117717D02*
D03*
X125984Y244094D02*
D03*
X117717D02*
D03*
X96850Y223622D02*
D03*
X100787Y231890D02*
D03*
X93701Y220472D02*
D03*
X88583Y223622D02*
D03*
X122835Y107874D02*
D03*
X117323Y134252D02*
D03*
X185039Y177559D02*
D03*
Y197244D02*
D03*
X181102Y174803D02*
D03*
X25984Y154724D02*
D03*
X29921D02*
D03*
X80315Y143307D02*
D03*
Y146850D02*
D03*
X144488Y120472D02*
D03*
Y99213D02*
D03*
X133858D02*
D03*
X143307Y177165D02*
D03*
X148425D02*
D03*
X131890Y125197D02*
D03*
X136221D02*
D03*
X140551D02*
D03*
X11811Y189370D02*
D03*
X14567Y183071D02*
D03*
X16929Y140157D02*
D03*
X62992Y148031D02*
D03*
X62992Y118504D02*
D03*
X68898Y121260D02*
D03*
X225394Y159252D02*
D03*
X181102Y200394D02*
D03*
X128740Y182283D02*
D03*
Y192520D02*
D03*
X129921Y175984D02*
D03*
X124016Y192520D02*
D03*
X105512Y195276D02*
D03*
X100000Y217717D02*
D03*
X67716D02*
D03*
X82284D02*
D03*
X103150Y214567D02*
D03*
X100000Y191339D02*
D03*
X92126Y125197D02*
D03*
X238189Y211614D02*
D03*
X237795Y202165D02*
D03*
X237795Y197441D02*
D03*
X237598Y178543D02*
D03*
X55905Y206299D02*
D03*
X25591Y232283D02*
D03*
Y240158D02*
D03*
Y248031D02*
D03*
Y255906D02*
D03*
Y263779D02*
D03*
Y271654D02*
D03*
X35433Y232283D02*
D03*
X66929Y271260D02*
D03*
X79528Y320866D02*
D03*
X47638Y207087D02*
D03*
Y213779D02*
D03*
X15748Y193307D02*
D03*
X25197Y222441D02*
D03*
X36220Y222835D02*
D03*
X13780Y202756D02*
D03*
X18110D02*
D03*
X206693Y133858D02*
D03*
X179200Y127800D02*
D03*
X179000Y134700D02*
D03*
X165300Y168300D02*
D03*
X188300Y121100D02*
D03*
Y131400D02*
D03*
X198200Y127700D02*
D03*
D74*
X245276Y161614D02*
D03*
X266142D02*
D03*
X245276Y126378D02*
D03*
X266142D02*
D03*
X70669Y156595D02*
D03*
X77165Y156693D02*
D03*
X43898Y156791D02*
D03*
X113779Y175591D02*
D03*
X121260D02*
D03*
X32480Y208661D02*
D03*
X55118Y200787D02*
D03*
X57874Y232677D02*
D03*
X46063D02*
D03*
X56299Y224016D02*
D03*
Y214173D02*
D03*
X46457Y222835D02*
D03*
X99606Y64961D02*
D03*
Y60630D02*
D03*
X95669Y64961D02*
D03*
Y60630D02*
D03*
X91732Y64961D02*
D03*
Y60630D02*
D03*
X87795Y64961D02*
D03*
Y60630D02*
D03*
X84252Y64961D02*
D03*
Y60630D02*
D03*
X206299Y64961D02*
D03*
Y60630D02*
D03*
X198425Y64961D02*
D03*
Y60630D02*
D03*
X190551Y64961D02*
D03*
Y60630D02*
D03*
X202362Y64961D02*
D03*
Y60630D02*
D03*
X194488Y64961D02*
D03*
Y60630D02*
D03*
X276575Y211614D02*
D03*
Y221457D02*
D03*
X291339Y226378D02*
D03*
Y207677D02*
D03*
X262795Y211614D02*
D03*
Y219488D02*
D03*
D75*
X63996Y191236D02*
D03*
Y186512D02*
D03*
Y181787D02*
D03*
Y177063D02*
D03*
X59272Y191236D02*
D03*
Y186512D02*
D03*
Y181787D02*
D03*
Y177063D02*
D03*
X54547Y191236D02*
D03*
Y186512D02*
D03*
Y181787D02*
D03*
Y177063D02*
D03*
X49823Y191236D02*
D03*
Y186512D02*
D03*
Y181787D02*
D03*
Y177063D02*
D03*
M02*
