G04 Layer_Color=65535*
%FSLAX25Y25*%
%MOIN*%
G70*
G01*
G75*
%ADD47C,0.01000*%
%ADD49C,0.00600*%
%ADD53C,0.00700*%
%ADD76C,0.00984*%
%ADD77C,0.00787*%
%ADD78C,0.00591*%
G36*
X45098Y170370D02*
X43130D01*
X43130Y172339D01*
X45098Y170370D01*
D02*
G37*
D47*
X294291Y20669D02*
G03*
X294291Y20669I-19685J0D01*
G01*
X167323Y232283D02*
G03*
X167323Y232283I-19685J0D01*
G01*
X40354Y20669D02*
G03*
X40354Y20669I-19685J0D01*
G01*
X213150Y88976D02*
X221654D01*
Y107087D01*
X210630D02*
X221654D01*
X210630Y88976D02*
Y107087D01*
Y88976D02*
X213150D01*
X106260D02*
X114764D01*
Y107087D01*
X103740D02*
X114764D01*
X103740Y88976D02*
Y107087D01*
Y88976D02*
X106260D01*
X230315Y221063D02*
Y222229D01*
X229149D01*
Y221063D01*
X230315D01*
D49*
X22913Y209685D02*
X22913Y208425D01*
X26142Y204803D02*
X26614Y204803D01*
X29842Y208425D02*
X29842Y209685D01*
X26142Y213307D02*
X26614Y213307D01*
D53*
X78347Y229778D02*
Y226279D01*
X80679D01*
X84178Y229778D02*
X81845D01*
Y226279D01*
X84178D01*
X81845Y228029D02*
X83012D01*
X85344Y229778D02*
Y226279D01*
X87094D01*
X87677Y226863D01*
Y229195D01*
X87094Y229778D01*
X85344D01*
X91176Y226279D02*
X88843D01*
X91176Y228612D01*
Y229195D01*
X90592Y229778D01*
X89426D01*
X88843Y229195D01*
X92342Y226279D02*
X94674Y228612D01*
X95841Y229778D02*
Y226863D01*
X96424Y226279D01*
X97590D01*
X98173Y226863D01*
Y229778D01*
X99340Y226279D02*
Y228612D01*
X100506Y229778D01*
X101672Y228612D01*
Y226279D01*
Y228029D01*
X99340D01*
X102839Y226279D02*
Y229778D01*
X104588D01*
X105171Y229195D01*
Y228029D01*
X104588Y227446D01*
X102839D01*
X104005D02*
X105171Y226279D01*
X106337Y229778D02*
X108670D01*
X107504D01*
Y226279D01*
X109836Y225696D02*
X112169D01*
X113335Y229778D02*
X115668D01*
X114501D01*
Y226279D01*
X116834Y229778D02*
X119167Y226279D01*
Y229778D02*
X116834Y226279D01*
X229921Y290945D02*
X226422D01*
Y292694D01*
X227006Y293278D01*
X228172D01*
X228755Y292694D01*
Y290945D01*
Y292111D02*
X229921Y293278D01*
Y296776D02*
Y294444D01*
X227589Y296776D01*
X227006D01*
X226422Y296193D01*
Y295027D01*
X227006Y294444D01*
X229338Y297943D02*
X229921Y298526D01*
Y299692D01*
X229338Y300275D01*
X227006D01*
X226422Y299692D01*
Y298526D01*
X227006Y297943D01*
X227589D01*
X228172Y298526D01*
Y300275D01*
X239370Y290945D02*
X235871D01*
Y292694D01*
X236454Y293278D01*
X237621D01*
X238204Y292694D01*
Y290945D01*
Y292111D02*
X239370Y293278D01*
Y296776D02*
Y294444D01*
X237037Y296776D01*
X236454D01*
X235871Y296193D01*
Y295027D01*
X236454Y294444D01*
Y297943D02*
X235871Y298526D01*
Y299692D01*
X236454Y300275D01*
X237037D01*
X237621Y299692D01*
X238204Y300275D01*
X238787D01*
X239370Y299692D01*
Y298526D01*
X238787Y297943D01*
X238204D01*
X237621Y298526D01*
X237037Y297943D01*
X236454D01*
X237621Y298526D02*
Y299692D01*
X177165Y291339D02*
X173667D01*
Y293088D01*
X174250Y293671D01*
X175416D01*
X175999Y293088D01*
Y291339D01*
Y292505D02*
X177165Y293671D01*
Y297170D02*
Y294837D01*
X174833Y297170D01*
X174250D01*
X173667Y296587D01*
Y295421D01*
X174250Y294837D01*
X173667Y298336D02*
Y300669D01*
X174250D01*
X176582Y298336D01*
X177165D01*
X187008Y291339D02*
X183509D01*
Y293088D01*
X184092Y293671D01*
X185258D01*
X185842Y293088D01*
Y291339D01*
Y292505D02*
X187008Y293671D01*
Y297170D02*
Y294837D01*
X184675Y297170D01*
X184092D01*
X183509Y296587D01*
Y295421D01*
X184092Y294837D01*
X183509Y300669D02*
X184092Y299503D01*
X185258Y298336D01*
X186425D01*
X187008Y298920D01*
Y300086D01*
X186425Y300669D01*
X185842D01*
X185258Y300086D01*
Y298336D01*
X210630Y291339D02*
X207131D01*
Y293088D01*
X207714Y293671D01*
X208880D01*
X209464Y293088D01*
Y291339D01*
Y292505D02*
X210630Y293671D01*
Y297170D02*
Y294837D01*
X208297Y297170D01*
X207714D01*
X207131Y296587D01*
Y295421D01*
X207714Y294837D01*
X207131Y300669D02*
Y298336D01*
X208880D01*
X208297Y299503D01*
Y300086D01*
X208880Y300669D01*
X210047D01*
X210630Y300086D01*
Y298920D01*
X210047Y298336D01*
X220472Y291339D02*
X216974D01*
Y293088D01*
X217557Y293671D01*
X218723D01*
X219306Y293088D01*
Y291339D01*
Y292505D02*
X220472Y293671D01*
Y297170D02*
Y294837D01*
X218140Y297170D01*
X217557D01*
X216974Y296587D01*
Y295421D01*
X217557Y294837D01*
X220472Y300086D02*
X216974D01*
X218723Y298336D01*
Y300669D01*
X157087Y291339D02*
X153588D01*
Y293088D01*
X154171Y293671D01*
X155337D01*
X155920Y293088D01*
Y291339D01*
Y292505D02*
X157087Y293671D01*
X153588Y294837D02*
Y297170D01*
X154171D01*
X156503Y294837D01*
X157087D01*
X166929Y291732D02*
X163430D01*
Y293482D01*
X164013Y294065D01*
X165180D01*
X165763Y293482D01*
Y291732D01*
Y292899D02*
X166929Y294065D01*
X163430Y297564D02*
X164013Y296397D01*
X165180Y295231D01*
X166346D01*
X166929Y295814D01*
Y296981D01*
X166346Y297564D01*
X165763D01*
X165180Y296981D01*
Y295231D01*
X240596Y254134D02*
X244094D01*
Y255883D01*
X243511Y256466D01*
X241179D01*
X240596Y255883D01*
Y254134D01*
X244094Y257633D02*
Y258799D01*
Y258216D01*
X240596D01*
X241179Y257633D01*
Y260548D02*
X240596Y261132D01*
Y262298D01*
X241179Y262881D01*
X241762D01*
X242345Y262298D01*
Y261715D01*
Y262298D01*
X242928Y262881D01*
X243511D01*
X244094Y262298D01*
Y261132D01*
X243511Y260548D01*
X189415Y254724D02*
X192913D01*
Y256474D01*
X192330Y257057D01*
X189998D01*
X189415Y256474D01*
Y254724D01*
X192913Y258223D02*
Y259390D01*
Y258806D01*
X189415D01*
X189998Y258223D01*
X192913Y263472D02*
Y261139D01*
X190581Y263472D01*
X189998D01*
X189415Y262888D01*
Y261722D01*
X189998Y261139D01*
X201225Y255118D02*
X204724D01*
Y256868D01*
X204141Y257451D01*
X201809D01*
X201225Y256868D01*
Y255118D01*
Y260950D02*
Y258617D01*
X202975D01*
X202392Y259783D01*
Y260366D01*
X202975Y260950D01*
X204141D01*
X204724Y260366D01*
Y259200D01*
X204141Y258617D01*
X167367Y256299D02*
X170866D01*
Y258049D01*
X170283Y258632D01*
X167950D01*
X167367Y258049D01*
Y256299D01*
X170866Y261547D02*
X167367D01*
X169117Y259798D01*
Y262131D01*
X90551Y130905D02*
X87052D01*
Y132655D01*
X87635Y133238D01*
X88802D01*
X89385Y132655D01*
Y130905D01*
Y132072D02*
X90551Y133238D01*
Y136737D02*
Y134404D01*
X88219Y136737D01*
X87635D01*
X87052Y136154D01*
Y134987D01*
X87635Y134404D01*
Y137903D02*
X87052Y138486D01*
Y139653D01*
X87635Y140236D01*
X88219D01*
X88802Y139653D01*
Y139069D01*
Y139653D01*
X89385Y140236D01*
X89968D01*
X90551Y139653D01*
Y138486D01*
X89968Y137903D01*
X73819Y117126D02*
X70320D01*
Y118875D01*
X70903Y119459D01*
X72070D01*
X72653Y118875D01*
Y117126D01*
Y118292D02*
X73819Y119459D01*
Y122957D02*
Y120625D01*
X71486Y122957D01*
X70903D01*
X70320Y122374D01*
Y121208D01*
X70903Y120625D01*
X73819Y126456D02*
Y124124D01*
X71486Y126456D01*
X70903D01*
X70320Y125873D01*
Y124707D01*
X70903Y124124D01*
X187992Y106299D02*
X184493D01*
Y108049D01*
X185076Y108632D01*
X186243D01*
X186826Y108049D01*
Y106299D01*
Y107466D02*
X187992Y108632D01*
Y112131D02*
Y109798D01*
X185660Y112131D01*
X185076D01*
X184493Y111548D01*
Y110381D01*
X185076Y109798D01*
X187992Y113297D02*
Y114463D01*
Y113880D01*
X184493D01*
X185076Y113297D01*
X167323Y105315D02*
X163824D01*
Y107064D01*
X164407Y107648D01*
X165573D01*
X166156Y107064D01*
Y105315D01*
Y106481D02*
X167323Y107648D01*
Y111146D02*
Y108814D01*
X164990Y111146D01*
X164407D01*
X163824Y110563D01*
Y109397D01*
X164407Y108814D01*
Y112313D02*
X163824Y112896D01*
Y114062D01*
X164407Y114645D01*
X166740D01*
X167323Y114062D01*
Y112896D01*
X166740Y112313D01*
X164407D01*
X1969Y121063D02*
Y124562D01*
X3718D01*
X4301Y123979D01*
Y122812D01*
X3718Y122229D01*
X1969D01*
X7800Y124562D02*
X5467D01*
Y122812D01*
X6634Y123396D01*
X7217D01*
X7800Y122812D01*
Y121646D01*
X7217Y121063D01*
X6050D01*
X5467Y121646D01*
X53088Y39902D02*
Y43401D01*
X54838D01*
X55421Y42818D01*
Y41652D01*
X54838Y41069D01*
X53088D01*
X58336Y39902D02*
Y43401D01*
X56587Y41652D01*
X58920D01*
X158687Y39217D02*
Y42715D01*
X160437D01*
X161020Y42132D01*
Y40966D01*
X160437Y40383D01*
X158687D01*
X162186Y42132D02*
X162769Y42715D01*
X163936D01*
X164519Y42132D01*
Y41549D01*
X163936Y40966D01*
X163353D01*
X163936D01*
X164519Y40383D01*
Y39800D01*
X163936Y39217D01*
X162769D01*
X162186Y39800D01*
X213470Y225644D02*
X212886Y226227D01*
X211720D01*
X211137Y225644D01*
Y223311D01*
X211720Y222728D01*
X212886D01*
X213470Y223311D01*
X214636Y222728D02*
X215802D01*
X215219D01*
Y226227D01*
X214636Y225644D01*
X209026Y196813D02*
X208442Y197397D01*
X207276D01*
X206693Y196813D01*
Y194481D01*
X207276Y193898D01*
X208442D01*
X209026Y194481D01*
X212524Y193898D02*
X210192D01*
X212524Y196230D01*
Y196813D01*
X211941Y197397D01*
X210775D01*
X210192Y196813D01*
X220370Y225644D02*
X219786Y226227D01*
X218620D01*
X218037Y225644D01*
Y223311D01*
X218620Y222728D01*
X219786D01*
X220370Y223311D01*
X221536Y225644D02*
X222119Y226227D01*
X223285D01*
X223868Y225644D01*
Y225061D01*
X223285Y224478D01*
X222702D01*
X223285D01*
X223868Y223895D01*
Y223311D01*
X223285Y222728D01*
X222119D01*
X221536Y223311D01*
X13433Y200916D02*
X12849Y201499D01*
X11683D01*
X11100Y200916D01*
Y198583D01*
X11683Y198000D01*
X12849D01*
X13433Y198583D01*
X16931Y201499D02*
X15765Y200916D01*
X14599Y199749D01*
Y198583D01*
X15182Y198000D01*
X16348D01*
X16931Y198583D01*
Y199166D01*
X16348Y199749D01*
X14599D01*
X25233Y220016D02*
X24649Y220599D01*
X23483D01*
X22900Y220016D01*
Y217683D01*
X23483Y217100D01*
X24649D01*
X25233Y217683D01*
X26399D02*
X26982Y217100D01*
X28148D01*
X28732Y217683D01*
Y220016D01*
X28148Y220599D01*
X26982D01*
X26399Y220016D01*
Y219433D01*
X26982Y218849D01*
X28732D01*
X46494Y143474D02*
X45911Y142891D01*
Y141725D01*
X46494Y141142D01*
X48826D01*
X49409Y141725D01*
Y142891D01*
X48826Y143474D01*
X49409Y144641D02*
Y145807D01*
Y145224D01*
X45911D01*
X46494Y144641D01*
Y147556D02*
X45911Y148140D01*
Y149306D01*
X46494Y149889D01*
X48826D01*
X49409Y149306D01*
Y148140D01*
X48826Y147556D01*
X46494D01*
X45884Y207733D02*
X45301Y207149D01*
Y205983D01*
X45884Y205400D01*
X48217D01*
X48800Y205983D01*
Y207149D01*
X48217Y207733D01*
X48800Y208899D02*
Y210065D01*
Y209482D01*
X45301D01*
X45884Y208899D01*
X48800Y211815D02*
Y212981D01*
Y212398D01*
X45301D01*
X45884Y211815D01*
X66376Y142884D02*
X65793Y142301D01*
Y141134D01*
X66376Y140551D01*
X68708D01*
X69291Y141134D01*
Y142301D01*
X68708Y142884D01*
X69291Y144050D02*
Y145216D01*
Y144633D01*
X65793D01*
X66376Y144050D01*
X68708Y146966D02*
X69291Y147549D01*
Y148715D01*
X68708Y149298D01*
X66376D01*
X65793Y148715D01*
Y147549D01*
X66376Y146966D01*
X66959D01*
X67542Y147549D01*
Y149298D01*
X77136Y207640D02*
X76553Y208223D01*
X75386D01*
X74803Y207640D01*
Y205308D01*
X75386Y204724D01*
X76553D01*
X77136Y205308D01*
X80635Y204724D02*
X78302D01*
X80635Y207057D01*
Y207640D01*
X80051Y208223D01*
X78885D01*
X78302Y207640D01*
X84133Y204724D02*
X81801D01*
X84133Y207057D01*
Y207640D01*
X83550Y208223D01*
X82384D01*
X81801Y207640D01*
X73068Y142884D02*
X72485Y142301D01*
Y141134D01*
X73068Y140551D01*
X75401D01*
X75984Y141134D01*
Y142301D01*
X75401Y142884D01*
X75984Y146383D02*
Y144050D01*
X73652Y146383D01*
X73068D01*
X72485Y145800D01*
Y144633D01*
X73068Y144050D01*
Y147549D02*
X72485Y148132D01*
Y149298D01*
X73068Y149881D01*
X73652D01*
X74235Y149298D01*
Y148715D01*
Y149298D01*
X74818Y149881D01*
X75401D01*
X75984Y149298D01*
Y148132D01*
X75401Y147549D01*
X79368Y142884D02*
X78785Y142301D01*
Y141134D01*
X79368Y140551D01*
X81700D01*
X82284Y141134D01*
Y142301D01*
X81700Y142884D01*
X82284Y146383D02*
Y144050D01*
X79951Y146383D01*
X79368D01*
X78785Y145800D01*
Y144633D01*
X79368Y144050D01*
X82284Y149298D02*
X78785D01*
X80534Y147549D01*
Y149881D01*
X135076Y169655D02*
X134493Y169072D01*
Y167906D01*
X135076Y167323D01*
X137409D01*
X137992Y167906D01*
Y169072D01*
X137409Y169655D01*
X137992Y173154D02*
Y170822D01*
X135660Y173154D01*
X135076D01*
X134493Y172571D01*
Y171405D01*
X135076Y170822D01*
X134493Y176653D02*
Y174321D01*
X136243D01*
X135660Y175487D01*
Y176070D01*
X136243Y176653D01*
X137409D01*
X137992Y176070D01*
Y174904D01*
X137409Y174321D01*
X140588Y169655D02*
X140005Y169072D01*
Y167906D01*
X140588Y167323D01*
X142921D01*
X143504Y167906D01*
Y169072D01*
X142921Y169655D01*
X143504Y173154D02*
Y170822D01*
X141171Y173154D01*
X140588D01*
X140005Y172571D01*
Y171405D01*
X140588Y170822D01*
X140005Y176653D02*
X140588Y175487D01*
X141754Y174321D01*
X142921D01*
X143504Y174904D01*
Y176070D01*
X142921Y176653D01*
X142338D01*
X141754Y176070D01*
Y174321D01*
X76329Y180774D02*
X75745Y181357D01*
X74579D01*
X73996Y180774D01*
Y178441D01*
X74579Y177858D01*
X75745D01*
X76329Y178441D01*
X79827Y177858D02*
X77495D01*
X79827Y180191D01*
Y180774D01*
X79244Y181357D01*
X78078D01*
X77495Y180774D01*
X80994Y181357D02*
X83326D01*
Y180774D01*
X80994Y178441D01*
Y177858D01*
X129565Y169655D02*
X128981Y169072D01*
Y167906D01*
X129565Y167323D01*
X131897D01*
X132480Y167906D01*
Y169072D01*
X131897Y169655D01*
X132480Y173154D02*
Y170822D01*
X130148Y173154D01*
X129565D01*
X128981Y172571D01*
Y171405D01*
X129565Y170822D01*
X131897Y174321D02*
X132480Y174904D01*
Y176070D01*
X131897Y176653D01*
X129565D01*
X128981Y176070D01*
Y174904D01*
X129565Y174321D01*
X130148D01*
X130731Y174904D01*
Y176653D01*
X231336Y163750D02*
X230753Y163167D01*
Y162001D01*
X231336Y161417D01*
X233669D01*
X234252Y162001D01*
Y163167D01*
X233669Y163750D01*
X231336Y164916D02*
X230753Y165499D01*
Y166666D01*
X231336Y167249D01*
X231919D01*
X232503Y166666D01*
Y166083D01*
Y166666D01*
X233086Y167249D01*
X233669D01*
X234252Y166666D01*
Y165499D01*
X233669Y164916D01*
X231336Y168415D02*
X230753Y168998D01*
Y170165D01*
X231336Y170748D01*
X233669D01*
X234252Y170165D01*
Y168998D01*
X233669Y168415D01*
X231336D01*
X280155Y49183D02*
X279572Y48600D01*
Y47434D01*
X280155Y46850D01*
X282488D01*
X283071Y47434D01*
Y48600D01*
X282488Y49183D01*
X280155Y50349D02*
X279572Y50932D01*
Y52099D01*
X280155Y52682D01*
X280738D01*
X281321Y52099D01*
Y51516D01*
Y52099D01*
X281905Y52682D01*
X282488D01*
X283071Y52099D01*
Y50932D01*
X282488Y50349D01*
X283071Y56181D02*
Y53848D01*
X280738Y56181D01*
X280155D01*
X279572Y55598D01*
Y54431D01*
X280155Y53848D01*
X217557Y46624D02*
X216974Y46041D01*
Y44875D01*
X217557Y44291D01*
X219889D01*
X220472Y44875D01*
Y46041D01*
X219889Y46624D01*
X217557Y47790D02*
X216974Y48373D01*
Y49540D01*
X217557Y50123D01*
X218140D01*
X218723Y49540D01*
Y48957D01*
Y49540D01*
X219306Y50123D01*
X219889D01*
X220472Y49540D01*
Y48373D01*
X219889Y47790D01*
X217557Y51289D02*
X216974Y51872D01*
Y53039D01*
X217557Y53622D01*
X218140D01*
X218723Y53039D01*
Y52455D01*
Y53039D01*
X219306Y53622D01*
X219889D01*
X220472Y53039D01*
Y51872D01*
X219889Y51289D01*
X226415Y47018D02*
X225832Y46435D01*
Y45268D01*
X226415Y44685D01*
X228748D01*
X229331Y45268D01*
Y46435D01*
X228748Y47018D01*
X226415Y48184D02*
X225832Y48767D01*
Y49933D01*
X226415Y50516D01*
X226998D01*
X227581Y49933D01*
Y49350D01*
Y49933D01*
X228164Y50516D01*
X228748D01*
X229331Y49933D01*
Y48767D01*
X228748Y48184D01*
X229331Y53432D02*
X225832D01*
X227581Y51683D01*
Y54015D01*
X220836Y79687D02*
X220253Y80270D01*
X219087D01*
X218504Y79687D01*
Y77355D01*
X219087Y76772D01*
X220253D01*
X220836Y77355D01*
X222003Y79687D02*
X222586Y80270D01*
X223752D01*
X224335Y79687D01*
Y79104D01*
X223752Y78521D01*
X223169D01*
X223752D01*
X224335Y77938D01*
Y77355D01*
X223752Y76772D01*
X222586D01*
X222003Y77355D01*
X227834Y80270D02*
X225502D01*
Y78521D01*
X226668Y79104D01*
X227251D01*
X227834Y78521D01*
Y77355D01*
X227251Y76772D01*
X226085D01*
X225502Y77355D01*
X200824Y105679D02*
X200241Y105096D01*
Y103930D01*
X200824Y103347D01*
X203157D01*
X203740Y103930D01*
Y105096D01*
X203157Y105679D01*
X200824Y106845D02*
X200241Y107429D01*
Y108595D01*
X200824Y109178D01*
X201408D01*
X201991Y108595D01*
Y108012D01*
Y108595D01*
X202574Y109178D01*
X203157D01*
X203740Y108595D01*
Y107429D01*
X203157Y106845D01*
X200241Y112677D02*
X200824Y111511D01*
X201991Y110344D01*
X203157D01*
X203740Y110927D01*
Y112094D01*
X203157Y112677D01*
X202574D01*
X201991Y112094D01*
Y110344D01*
X190982Y105679D02*
X190399Y105096D01*
Y103930D01*
X190982Y103347D01*
X193315D01*
X193898Y103930D01*
Y105096D01*
X193315Y105679D01*
X190982Y106845D02*
X190399Y107429D01*
Y108595D01*
X190982Y109178D01*
X191565D01*
X192148Y108595D01*
Y108012D01*
Y108595D01*
X192731Y109178D01*
X193315D01*
X193898Y108595D01*
Y107429D01*
X193315Y106845D01*
X190399Y110344D02*
Y112677D01*
X190982D01*
X193315Y110344D01*
X193898D01*
X177202Y90915D02*
X176619Y90332D01*
Y89166D01*
X177202Y88583D01*
X179535D01*
X180118Y89166D01*
Y90332D01*
X179535Y90915D01*
X177202Y92082D02*
X176619Y92665D01*
Y93831D01*
X177202Y94414D01*
X177786D01*
X178369Y93831D01*
Y93248D01*
Y93831D01*
X178952Y94414D01*
X179535D01*
X180118Y93831D01*
Y92665D01*
X179535Y92082D01*
X177202Y95580D02*
X176619Y96164D01*
Y97330D01*
X177202Y97913D01*
X177786D01*
X178369Y97330D01*
X178952Y97913D01*
X179535D01*
X180118Y97330D01*
Y96164D01*
X179535Y95580D01*
X178952D01*
X178369Y96164D01*
X177786Y95580D01*
X177202D01*
X178369Y96164D02*
Y97330D01*
X134222Y45239D02*
X133639Y45822D01*
X132473D01*
X131890Y45239D01*
Y42906D01*
X132473Y42323D01*
X133639D01*
X134222Y42906D01*
X135389Y45239D02*
X135972Y45822D01*
X137138D01*
X137721Y45239D01*
Y44655D01*
X137138Y44072D01*
X136555D01*
X137138D01*
X137721Y43489D01*
Y42906D01*
X137138Y42323D01*
X135972D01*
X135389Y42906D01*
X138888D02*
X139471Y42323D01*
X140637D01*
X141220Y42906D01*
Y45239D01*
X140637Y45822D01*
X139471D01*
X138888Y45239D01*
Y44655D01*
X139471Y44072D01*
X141220D01*
X111258Y45640D02*
X110674Y45057D01*
Y43890D01*
X111258Y43307D01*
X113590D01*
X114173Y43890D01*
Y45057D01*
X113590Y45640D01*
X114173Y48555D02*
X110674D01*
X112424Y46806D01*
Y49139D01*
X111258Y50305D02*
X110674Y50888D01*
Y52054D01*
X111258Y52637D01*
X113590D01*
X114173Y52054D01*
Y50888D01*
X113590Y50305D01*
X111258D01*
X120116Y48592D02*
X119533Y48009D01*
Y46843D01*
X120116Y46260D01*
X122448D01*
X123031Y46843D01*
Y48009D01*
X122448Y48592D01*
X123031Y51508D02*
X119533D01*
X121282Y49759D01*
Y52091D01*
X123031Y53258D02*
Y54424D01*
Y53841D01*
X119533D01*
X120116Y53258D01*
X107648Y112168D02*
X107064Y112751D01*
X105898D01*
X105315Y112168D01*
Y109835D01*
X105898Y109252D01*
X107064D01*
X107648Y109835D01*
X110563Y109252D02*
Y112751D01*
X108814Y111001D01*
X111146D01*
X114645Y109252D02*
X112313D01*
X114645Y111584D01*
Y112168D01*
X114062Y112751D01*
X112896D01*
X112313Y112168D01*
X94722Y105482D02*
X94139Y104899D01*
Y103733D01*
X94722Y103150D01*
X97055D01*
X97638Y103733D01*
Y104899D01*
X97055Y105482D01*
X97638Y108398D02*
X94139D01*
X95888Y106649D01*
Y108981D01*
X94722Y110147D02*
X94139Y110731D01*
Y111897D01*
X94722Y112480D01*
X95305D01*
X95888Y111897D01*
Y111314D01*
Y111897D01*
X96472Y112480D01*
X97055D01*
X97638Y111897D01*
Y110731D01*
X97055Y110147D01*
X83698Y105679D02*
X83115Y105096D01*
Y103930D01*
X83698Y103347D01*
X86031D01*
X86614Y103930D01*
Y105096D01*
X86031Y105679D01*
X86614Y108595D02*
X83115D01*
X84865Y106845D01*
Y109178D01*
X86614Y112094D02*
X83115D01*
X84865Y110344D01*
Y112677D01*
X76809Y105679D02*
X76226Y105096D01*
Y103930D01*
X76809Y103347D01*
X79141D01*
X79724Y103930D01*
Y105096D01*
X79141Y105679D01*
X79724Y108595D02*
X76226D01*
X77975Y106845D01*
Y109178D01*
X76226Y112677D02*
Y110344D01*
X77975D01*
X77392Y111511D01*
Y112094D01*
X77975Y112677D01*
X79141D01*
X79724Y112094D01*
Y110927D01*
X79141Y110344D01*
X168081Y174569D02*
X167498Y175152D01*
X166331D01*
X165748Y174569D01*
Y172237D01*
X166331Y171653D01*
X167498D01*
X168081Y172237D01*
X170996Y171653D02*
Y175152D01*
X169247Y173403D01*
X171580D01*
X175078Y175152D02*
X173912Y174569D01*
X172746Y173403D01*
Y172237D01*
X173329Y171653D01*
X174495D01*
X175078Y172237D01*
Y172820D01*
X174495Y173403D01*
X172746D01*
X185797Y126341D02*
X185214Y126924D01*
X184048D01*
X183465Y126341D01*
Y124008D01*
X184048Y123425D01*
X185214D01*
X185797Y124008D01*
X188713Y123425D02*
Y126924D01*
X186963Y125175D01*
X189296D01*
X190462Y126924D02*
X192795D01*
Y126341D01*
X190462Y124008D01*
Y123425D01*
X205482Y127325D02*
X204899Y127908D01*
X203733D01*
X203150Y127325D01*
Y124993D01*
X203733Y124409D01*
X204899D01*
X205482Y124993D01*
X208398Y124409D02*
Y127908D01*
X206648Y126159D01*
X208981D01*
X210147Y127325D02*
X210731Y127908D01*
X211897D01*
X212480Y127325D01*
Y126742D01*
X211897Y126159D01*
X212480Y125576D01*
Y124993D01*
X211897Y124409D01*
X210731D01*
X210147Y124993D01*
Y125576D01*
X210731Y126159D01*
X210147Y126742D01*
Y127325D01*
X210731Y126159D02*
X211897D01*
X230352Y129892D02*
X229769Y129308D01*
Y128142D01*
X230352Y127559D01*
X232685D01*
X233268Y128142D01*
Y129308D01*
X232685Y129892D01*
X230352Y131058D02*
X229769Y131641D01*
Y132807D01*
X230352Y133390D01*
X230935D01*
X231518Y132807D01*
Y132224D01*
Y132807D01*
X232101Y133390D01*
X232685D01*
X233268Y132807D01*
Y131641D01*
X232685Y131058D01*
X233268Y134557D02*
Y135723D01*
Y135140D01*
X229769D01*
X230352Y134557D01*
X281860Y231262D02*
X281277Y231845D01*
X280111D01*
X279528Y231262D01*
Y228930D01*
X280111Y228346D01*
X281277D01*
X281860Y228930D01*
Y230096D01*
X280694D01*
X283026Y228346D02*
Y231845D01*
X284776D01*
X285359Y231262D01*
Y230096D01*
X284776Y229513D01*
X283026D01*
X288858Y231262D02*
X288275Y231845D01*
X287108D01*
X286525Y231262D01*
Y230679D01*
X287108Y230096D01*
X288275D01*
X288858Y229513D01*
Y228930D01*
X288275Y228346D01*
X287108D01*
X286525Y228930D01*
X41339Y255467D02*
Y251969D01*
X43088D01*
X43671Y252552D01*
Y253135D01*
X43088Y253718D01*
X41339D01*
X43088D01*
X43671Y254301D01*
Y254884D01*
X43088Y255467D01*
X41339D01*
X44837D02*
X47170D01*
X46004D01*
Y251969D01*
X48336Y251385D02*
X50669D01*
X54168Y255467D02*
X51835D01*
Y251969D01*
X54168D01*
X51835Y253718D02*
X53001D01*
X55334Y255467D02*
X57667Y251969D01*
Y255467D02*
X55334Y251969D01*
X58833Y255467D02*
X61165D01*
X59999D01*
Y251969D01*
X49577Y321813D02*
X48994Y322396D01*
X47827D01*
X47244Y321813D01*
Y319481D01*
X47827Y318898D01*
X48994D01*
X49577Y319481D01*
Y320647D01*
X48410D01*
X50743Y318898D02*
Y322396D01*
X52492D01*
X53075Y321813D01*
Y320647D01*
X52492Y320064D01*
X50743D01*
X56574Y321813D02*
X55991Y322396D01*
X54825D01*
X54242Y321813D01*
Y321230D01*
X54825Y320647D01*
X55991D01*
X56574Y320064D01*
Y319481D01*
X55991Y318898D01*
X54825D01*
X54242Y319481D01*
X79724Y322396D02*
Y318898D01*
X81474D01*
X82057Y319481D01*
Y321813D01*
X81474Y322396D01*
X79724D01*
X83223Y318898D02*
X84390D01*
X83806D01*
Y322396D01*
X83223Y321813D01*
X115596Y130905D02*
X119095D01*
Y132655D01*
X118511Y133238D01*
X116179D01*
X115596Y132655D01*
Y130905D01*
X118511Y134404D02*
X119095Y134987D01*
Y136154D01*
X118511Y136737D01*
X116179D01*
X115596Y136154D01*
Y134987D01*
X116179Y134404D01*
X116762D01*
X117345Y134987D01*
Y136737D01*
X115596Y143701D02*
X119095D01*
Y145450D01*
X118511Y146033D01*
X116179D01*
X115596Y145450D01*
Y143701D01*
X119095Y147200D02*
Y148366D01*
Y147783D01*
X115596D01*
X116179Y147200D01*
Y150115D02*
X115596Y150698D01*
Y151865D01*
X116179Y152448D01*
X118511D01*
X119095Y151865D01*
Y150698D01*
X118511Y150115D01*
X116179D01*
X154921Y175152D02*
Y171653D01*
X156671D01*
X157254Y172237D01*
Y174569D01*
X156671Y175152D01*
X154921D01*
X158420Y171653D02*
X159586D01*
X159003D01*
Y175152D01*
X158420Y174569D01*
X161336Y171653D02*
X162502D01*
X161919D01*
Y175152D01*
X161336Y174569D01*
X46260Y286963D02*
Y283465D01*
X48592D01*
X52091Y286963D02*
X49759D01*
Y283465D01*
X52091D01*
X49759Y285214D02*
X50925D01*
X53258Y286963D02*
Y283465D01*
X55007D01*
X55590Y284048D01*
Y286380D01*
X55007Y286963D01*
X53258D01*
X56756Y283465D02*
X57923D01*
X57340D01*
Y286963D01*
X56756Y286380D01*
X79724Y286963D02*
Y283465D01*
X81474D01*
X82057Y284048D01*
Y286380D01*
X81474Y286963D01*
X79724D01*
X85556Y283465D02*
X83223D01*
X85556Y285797D01*
Y286380D01*
X84973Y286963D01*
X83806D01*
X83223Y286380D01*
X46260Y298775D02*
Y295276D01*
X48592D01*
X52091Y298775D02*
X49759D01*
Y295276D01*
X52091D01*
X49759Y297025D02*
X50925D01*
X53258Y298775D02*
Y295276D01*
X55007D01*
X55590Y295859D01*
Y298191D01*
X55007Y298775D01*
X53258D01*
X59089Y295276D02*
X56756D01*
X59089Y297608D01*
Y298191D01*
X58506Y298775D01*
X57340D01*
X56756Y298191D01*
X79724Y298774D02*
Y295276D01*
X81474D01*
X82057Y295859D01*
Y298191D01*
X81474Y298774D01*
X79724D01*
X83223Y298191D02*
X83806Y298774D01*
X84973D01*
X85556Y298191D01*
Y297608D01*
X84973Y297025D01*
X84390D01*
X84973D01*
X85556Y296442D01*
Y295859D01*
X84973Y295276D01*
X83806D01*
X83223Y295859D01*
X44291Y310782D02*
Y308450D01*
X45458Y307283D01*
X46624Y308450D01*
Y310782D01*
X47790Y306700D02*
X50123D01*
X51289Y310782D02*
Y307867D01*
X51872Y307283D01*
X53039D01*
X53622Y307867D01*
Y310782D01*
X57121Y310199D02*
X56537Y310782D01*
X55371D01*
X54788Y310199D01*
Y309616D01*
X55371Y309033D01*
X56537D01*
X57121Y308450D01*
Y307867D01*
X56537Y307283D01*
X55371D01*
X54788Y307867D01*
X58287Y310782D02*
Y307283D01*
X60036D01*
X60619Y307867D01*
Y308450D01*
X60036Y309033D01*
X58287D01*
X60036D01*
X60619Y309616D01*
Y310199D01*
X60036Y310782D01*
X58287D01*
X79724Y310585D02*
Y307087D01*
X81474D01*
X82057Y307670D01*
Y310002D01*
X81474Y310585D01*
X79724D01*
X83223D02*
X85556D01*
Y310002D01*
X83223Y307670D01*
Y307087D01*
X47835Y334018D02*
X48418Y334601D01*
X49584D01*
X50167Y334018D01*
Y333435D01*
X49584Y332852D01*
X49001D01*
X49584D01*
X50167Y332269D01*
Y331685D01*
X49584Y331102D01*
X48418D01*
X47835Y331685D01*
X51333Y334601D02*
Y332269D01*
X52500Y331102D01*
X53666Y332269D01*
Y334601D01*
X54832Y334018D02*
X55415Y334601D01*
X56582D01*
X57165Y334018D01*
Y333435D01*
X56582Y332852D01*
X55999D01*
X56582D01*
X57165Y332269D01*
Y331685D01*
X56582Y331102D01*
X55415D01*
X54832Y331685D01*
X79724Y334208D02*
Y330709D01*
X81474D01*
X82057Y331292D01*
Y333624D01*
X81474Y334208D01*
X79724D01*
X83223Y333624D02*
X83806Y334208D01*
X84973D01*
X85556Y333624D01*
Y333041D01*
X84973Y332458D01*
X85556Y331875D01*
Y331292D01*
X84973Y330709D01*
X83806D01*
X83223Y331292D01*
Y331875D01*
X83806Y332458D01*
X83223Y333041D01*
Y333624D01*
X83806Y332458D02*
X84973D01*
X38386Y99956D02*
Y96457D01*
X40135D01*
X40718Y97040D01*
Y99372D01*
X40135Y99956D01*
X38386D01*
X44217D02*
X43051Y99372D01*
X41885Y98206D01*
Y97040D01*
X42468Y96457D01*
X43634D01*
X44217Y97040D01*
Y97623D01*
X43634Y98206D01*
X41885D01*
X3317Y168853D02*
X2151D01*
X2734D01*
Y165937D01*
X2151Y165354D01*
X1567D01*
X984Y165937D01*
X6816Y165354D02*
X4483D01*
X6816Y167687D01*
Y168270D01*
X6233Y168853D01*
X5066D01*
X4483Y168270D01*
X203740Y225940D02*
Y222441D01*
X206073D01*
X207239D02*
X208405D01*
X207822D01*
Y225940D01*
X207239Y225357D01*
X213583Y112751D02*
Y109252D01*
X215915D01*
X218831D02*
Y112751D01*
X217082Y111001D01*
X219414D01*
X108706Y114173D02*
X112205D01*
Y116506D01*
X108706Y120005D02*
Y117672D01*
X110455D01*
X109872Y118838D01*
Y119422D01*
X110455Y120005D01*
X111622D01*
X112205Y119422D01*
Y118255D01*
X111622Y117672D01*
X194291Y173184D02*
Y169685D01*
X196624D01*
X200123Y173184D02*
X198957Y172601D01*
X197790Y171434D01*
Y170268D01*
X198373Y169685D01*
X199540D01*
X200123Y170268D01*
Y170851D01*
X199540Y171434D01*
X197790D01*
X226378Y161417D02*
X222879D01*
Y163167D01*
X223462Y163750D01*
X224628D01*
X225212Y163167D01*
Y161417D01*
Y162584D02*
X226378Y163750D01*
Y164916D02*
Y166083D01*
Y165499D01*
X222879D01*
X223462Y164916D01*
Y167832D02*
X222879Y168415D01*
Y169581D01*
X223462Y170165D01*
X224045D01*
X224628Y169581D01*
Y168998D01*
Y169581D01*
X225212Y170165D01*
X225795D01*
X226378Y169581D01*
Y168415D01*
X225795Y167832D01*
X153740Y130118D02*
X150241D01*
Y131868D01*
X150824Y132451D01*
X151991D01*
X152574Y131868D01*
Y130118D01*
Y131284D02*
X153740Y132451D01*
Y133617D02*
Y134783D01*
Y134200D01*
X150241D01*
X150824Y133617D01*
X150241Y138865D02*
Y136533D01*
X151991D01*
X151408Y137699D01*
Y138282D01*
X151991Y138865D01*
X153157D01*
X153740Y138282D01*
Y137116D01*
X153157Y136533D01*
X168898Y123622D02*
Y127121D01*
X170647D01*
X171230Y126538D01*
Y125372D01*
X170647Y124788D01*
X168898D01*
X170064D02*
X171230Y123622D01*
X172397D02*
X173563D01*
X172980D01*
Y127121D01*
X172397Y126538D01*
X177645Y127121D02*
X176479Y126538D01*
X175312Y125372D01*
Y124205D01*
X175895Y123622D01*
X177062D01*
X177645Y124205D01*
Y124788D01*
X177062Y125372D01*
X175312D01*
X153740Y145472D02*
X150241D01*
Y147222D01*
X150824Y147805D01*
X151991D01*
X152574Y147222D01*
Y145472D01*
Y146639D02*
X153740Y147805D01*
Y148971D02*
Y150138D01*
Y149554D01*
X150241D01*
X150824Y148971D01*
X150241Y151887D02*
Y154220D01*
X150824D01*
X153157Y151887D01*
X153740D01*
X79331Y238583D02*
X75832D01*
Y240332D01*
X76415Y240915D01*
X77581D01*
X78164Y240332D01*
Y238583D01*
Y239749D02*
X79331Y240915D01*
Y243831D02*
X75832D01*
X77581Y242082D01*
Y244414D01*
X72638Y239370D02*
X69139D01*
Y241120D01*
X69722Y241703D01*
X70888D01*
X71472Y241120D01*
Y239370D01*
Y240536D02*
X72638Y241703D01*
X69139Y245201D02*
Y242869D01*
X70888D01*
X70305Y244035D01*
Y244618D01*
X70888Y245201D01*
X72055D01*
X72638Y244618D01*
Y243452D01*
X72055Y242869D01*
X227362Y127559D02*
X223863D01*
Y129308D01*
X224447Y129892D01*
X225613D01*
X226196Y129308D01*
Y127559D01*
Y128725D02*
X227362Y129892D01*
Y131058D02*
Y132224D01*
Y131641D01*
X223863D01*
X224447Y131058D01*
X227362Y135723D02*
X223863D01*
X225613Y133974D01*
Y136306D01*
X282283Y148031D02*
X278785D01*
Y149781D01*
X279368Y150364D01*
X280534D01*
X281117Y149781D01*
Y148031D01*
Y149198D02*
X282283Y150364D01*
X278785Y153863D02*
Y151530D01*
X282283D01*
Y153863D01*
X280534Y151530D02*
Y152697D01*
X279368Y157362D02*
X278785Y156779D01*
Y155612D01*
X279368Y155029D01*
X279951D01*
X280534Y155612D01*
Y156779D01*
X281117Y157362D01*
X281700D01*
X282283Y156779D01*
Y155612D01*
X281700Y155029D01*
X254565Y153514D02*
X253981Y152930D01*
Y151764D01*
X254565Y151181D01*
X255148D01*
X255731Y151764D01*
Y152930D01*
X256314Y153514D01*
X256897D01*
X257480Y152930D01*
Y151764D01*
X256897Y151181D01*
X257480Y154680D02*
Y155846D01*
Y155263D01*
X253981D01*
X254565Y154680D01*
X279762Y117293D02*
X279178Y116710D01*
Y115544D01*
X279762Y114961D01*
X280345D01*
X280928Y115544D01*
Y116710D01*
X281511Y117293D01*
X282094D01*
X282677Y116710D01*
Y115544D01*
X282094Y114961D01*
X279178Y118459D02*
X282677D01*
X281511Y119626D01*
X282677Y120792D01*
X279178D01*
X254565Y116900D02*
X253981Y116316D01*
Y115150D01*
X254565Y114567D01*
X255148D01*
X255731Y115150D01*
Y116316D01*
X256314Y116900D01*
X256897D01*
X257480Y116316D01*
Y115150D01*
X256897Y114567D01*
X257480Y120398D02*
Y118066D01*
X255148Y120398D01*
X254565D01*
X253981Y119815D01*
Y118649D01*
X254565Y118066D01*
X234221Y228926D02*
Y226011D01*
X234804Y225428D01*
X235970D01*
X236553Y226011D01*
Y228926D01*
X237719Y225428D02*
X238886D01*
X238302D01*
Y228926D01*
X237719Y228343D01*
X31496Y140310D02*
Y137394D01*
X32079Y136811D01*
X33246D01*
X33829Y137394D01*
Y140310D01*
X34995Y139727D02*
X35578Y140310D01*
X36744D01*
X37328Y139727D01*
Y139144D01*
X36744Y138560D01*
X36161D01*
X36744D01*
X37328Y137977D01*
Y137394D01*
X36744Y136811D01*
X35578D01*
X34995Y137394D01*
X185039Y44837D02*
Y41922D01*
X185623Y41339D01*
X186789D01*
X187372Y41922D01*
Y44837D01*
X190288Y41339D02*
Y44837D01*
X188538Y43088D01*
X190871D01*
X77756Y44837D02*
Y41922D01*
X78339Y41339D01*
X79505D01*
X80089Y41922D01*
Y44837D01*
X83587D02*
X81255D01*
Y43088D01*
X82421Y43671D01*
X83004D01*
X83587Y43088D01*
Y41922D01*
X83004Y41339D01*
X81838D01*
X81255Y41922D01*
X157874Y125940D02*
Y123024D01*
X158457Y122441D01*
X159623D01*
X160207Y123024D01*
Y125940D01*
X163706D02*
X162539Y125357D01*
X161373Y124190D01*
Y123024D01*
X161956Y122441D01*
X163122D01*
X163706Y123024D01*
Y123607D01*
X163122Y124190D01*
X161373D01*
X31860Y177916D02*
X31277Y178499D01*
X30111D01*
X29528Y177916D01*
Y175583D01*
X30111Y175000D01*
X31277D01*
X31860Y175583D01*
X34776Y175000D02*
Y178499D01*
X33026Y176749D01*
X35359D01*
X20836Y186774D02*
X20253Y187357D01*
X19087D01*
X18504Y186774D01*
Y184441D01*
X19087Y183858D01*
X20253D01*
X20836Y184441D01*
X24335Y187357D02*
X22003D01*
Y185608D01*
X23169Y186191D01*
X23752D01*
X24335Y185608D01*
Y184441D01*
X23752Y183858D01*
X22586D01*
X22003Y184441D01*
X20423Y193569D02*
X19840Y194152D01*
X18674D01*
X18090Y193569D01*
Y191237D01*
X18674Y190654D01*
X19840D01*
X20423Y191237D01*
X21589Y194152D02*
X23922D01*
Y193569D01*
X21589Y191237D01*
Y190654D01*
X15000Y210599D02*
X17333Y207100D01*
Y210599D02*
X15000Y207100D01*
X18499D02*
X19665D01*
X19082D01*
Y210599D01*
X18499Y210016D01*
X32517Y159813D02*
X31934Y159230D01*
Y158063D01*
X32517Y157480D01*
X34850D01*
X35433Y158063D01*
Y159230D01*
X34850Y159813D01*
X32517Y160979D02*
X31934Y161562D01*
Y162729D01*
X32517Y163312D01*
X33101D01*
X33684Y162729D01*
X34267Y163312D01*
X34850D01*
X35433Y162729D01*
Y161562D01*
X34850Y160979D01*
X34267D01*
X33684Y161562D01*
X33101Y160979D01*
X32517D01*
X33684Y161562D02*
Y162729D01*
X61651Y202333D02*
X61068Y201749D01*
Y200583D01*
X61651Y200000D01*
X63984D01*
X64567Y200583D01*
Y201749D01*
X63984Y202333D01*
X64567Y203499D02*
Y204665D01*
Y204082D01*
X61068D01*
X61651Y203499D01*
Y206415D02*
X61068Y206998D01*
Y208164D01*
X61651Y208747D01*
X62234D01*
X62818Y208164D01*
X63401Y208747D01*
X63984D01*
X64567Y208164D01*
Y206998D01*
X63984Y206415D01*
X63401D01*
X62818Y206998D01*
X62234Y206415D01*
X61651D01*
X62818Y206998D02*
Y208164D01*
X105905Y160585D02*
Y157087D01*
X108238D01*
X111737D02*
X109404D01*
X111737Y159419D01*
Y160002D01*
X111154Y160585D01*
X109987D01*
X109404Y160002D01*
X33465Y124562D02*
Y121063D01*
X35797D01*
X36963Y123979D02*
X37547Y124562D01*
X38713D01*
X39296Y123979D01*
Y123396D01*
X38713Y122812D01*
X38130D01*
X38713D01*
X39296Y122229D01*
Y121646D01*
X38713Y121063D01*
X37547D01*
X36963Y121646D01*
X289764Y177756D02*
X286265D01*
Y179505D01*
X286848Y180088D01*
X288014D01*
X288597Y179505D01*
Y177756D01*
Y178922D02*
X289764Y180088D01*
Y181255D02*
Y182421D01*
Y181838D01*
X286265D01*
X286848Y181255D01*
X281890Y175787D02*
X278391D01*
Y177537D01*
X278974Y178120D01*
X280140D01*
X280724Y177537D01*
Y175787D01*
Y176954D02*
X281890Y178120D01*
Y181619D02*
Y179286D01*
X279557Y181619D01*
X278974D01*
X278391Y181036D01*
Y179869D01*
X278974Y179286D01*
X188976Y195866D02*
X185477D01*
Y197616D01*
X186061Y198199D01*
X187227D01*
X187810Y197616D01*
Y195866D01*
Y197032D02*
X188976Y198199D01*
X186061Y199365D02*
X185477Y199948D01*
Y201114D01*
X186061Y201698D01*
X186644D01*
X187227Y201114D01*
Y200531D01*
Y201114D01*
X187810Y201698D01*
X188393D01*
X188976Y201114D01*
Y199948D01*
X188393Y199365D01*
X74410Y173971D02*
Y171056D01*
X74993Y170472D01*
X76159D01*
X76742Y171056D01*
Y173971D01*
X80241Y170472D02*
X77908D01*
X80241Y172805D01*
Y173388D01*
X79658Y173971D01*
X78491D01*
X77908Y173388D01*
X86417Y235630D02*
X82919D01*
Y237379D01*
X83502Y237963D01*
X84668D01*
X85251Y237379D01*
Y235630D01*
Y236796D02*
X86417Y237963D01*
Y239129D02*
Y240295D01*
Y239712D01*
X82919D01*
X83502Y239129D01*
Y242044D02*
X82919Y242628D01*
Y243794D01*
X83502Y244377D01*
X84085D01*
X84668Y243794D01*
X85251Y244377D01*
X85834D01*
X86417Y243794D01*
Y242628D01*
X85834Y242044D01*
X85251D01*
X84668Y242628D01*
X84085Y242044D01*
X83502D01*
X84668Y242628D02*
Y243794D01*
X197047Y194882D02*
X193548D01*
Y196631D01*
X194132Y197214D01*
X195298D01*
X195881Y196631D01*
Y194882D01*
Y196048D02*
X197047Y197214D01*
Y198381D02*
Y199547D01*
Y198964D01*
X193548D01*
X194132Y198381D01*
X196464Y201296D02*
X197047Y201880D01*
Y203046D01*
X196464Y203629D01*
X194132D01*
X193548Y203046D01*
Y201880D01*
X194132Y201296D01*
X194715D01*
X195298Y201880D01*
Y203629D01*
X210994Y242286D02*
X210411Y242869D01*
X209245D01*
X208661Y242286D01*
Y239953D01*
X209245Y239370D01*
X210411D01*
X210994Y239953D01*
X212160Y239370D02*
X213327D01*
X212743D01*
Y242869D01*
X212160Y242286D01*
X217409Y239370D02*
X215076D01*
X217409Y241703D01*
Y242286D01*
X216825Y242869D01*
X215659D01*
X215076Y242286D01*
X230679D02*
X230096Y242869D01*
X228930D01*
X228346Y242286D01*
Y239953D01*
X228930Y239370D01*
X230096D01*
X230679Y239953D01*
X231845Y239370D02*
X233012D01*
X232429D01*
Y242869D01*
X231845Y242286D01*
X234761D02*
X235344Y242869D01*
X236510D01*
X237094Y242286D01*
Y241703D01*
X236510Y241120D01*
X235927D01*
X236510D01*
X237094Y240536D01*
Y239953D01*
X236510Y239370D01*
X235344D01*
X234761Y239953D01*
X258238Y242286D02*
X257655Y242869D01*
X256489D01*
X255906Y242286D01*
Y239953D01*
X256489Y239370D01*
X257655D01*
X258238Y239953D01*
X259404Y239370D02*
X260571D01*
X259987D01*
Y242869D01*
X259404Y242286D01*
X264653Y242869D02*
X263486Y242286D01*
X262320Y241120D01*
Y239953D01*
X262903Y239370D01*
X264070D01*
X264653Y239953D01*
Y240536D01*
X264070Y241120D01*
X262320D01*
X278907Y242286D02*
X278324Y242869D01*
X277158D01*
X276575Y242286D01*
Y239953D01*
X277158Y239370D01*
X278324D01*
X278907Y239953D01*
X280074Y239370D02*
X281240D01*
X280657D01*
Y242869D01*
X280074Y242286D01*
X282989Y242869D02*
X285322D01*
Y242286D01*
X282989Y239953D01*
Y239370D01*
X174833Y330549D02*
X175416Y329966D01*
X176582D01*
X177165Y330549D01*
Y332881D01*
X176582Y333465D01*
X175416D01*
X174833Y332881D01*
X171917Y329966D02*
X173083D01*
X173667Y330549D01*
Y332881D01*
X173083Y333465D01*
X171917D01*
X171334Y332881D01*
Y330549D01*
X171917Y329966D01*
X170168Y333465D02*
Y329966D01*
X167835Y333465D01*
Y329966D01*
X166669Y330549D02*
X166086Y329966D01*
X164919D01*
X164336Y330549D01*
Y331132D01*
X164919Y331715D01*
X165502D01*
X164919D01*
X164336Y332298D01*
Y332881D01*
X164919Y333465D01*
X166086D01*
X166669Y332881D01*
X116959Y330155D02*
X117542Y329572D01*
X118708D01*
X119291Y330155D01*
Y332488D01*
X118708Y333071D01*
X117542D01*
X116959Y332488D01*
X114043Y329572D02*
X115209D01*
X115793Y330155D01*
Y332488D01*
X115209Y333071D01*
X114043D01*
X113460Y332488D01*
Y330155D01*
X114043Y329572D01*
X112294Y333071D02*
Y329572D01*
X109961Y333071D01*
Y329572D01*
X106462D02*
X107628Y330155D01*
X108795Y331321D01*
Y332488D01*
X108212Y333071D01*
X107045D01*
X106462Y332488D01*
Y331905D01*
X107045Y331321D01*
X108795D01*
X267170Y254134D02*
X270669D01*
Y255883D01*
X270086Y256466D01*
X267754D01*
X267170Y255883D01*
Y254134D01*
X270669Y257633D02*
Y258799D01*
Y258216D01*
X267170D01*
X267754Y257633D01*
X270669Y262298D02*
X267170D01*
X268920Y260548D01*
Y262881D01*
X109493Y254724D02*
X112992D01*
Y256474D01*
X112409Y257057D01*
X110076D01*
X109493Y256474D01*
Y254724D01*
X112992Y258223D02*
Y259390D01*
Y258806D01*
X109493D01*
X110076Y258223D01*
X109493Y263472D02*
Y261139D01*
X111243D01*
X110660Y262305D01*
Y262888D01*
X111243Y263472D01*
X112409D01*
X112992Y262888D01*
Y261722D01*
X112409Y261139D01*
X289808Y254134D02*
X293307D01*
Y255883D01*
X292724Y256466D01*
X290391D01*
X289808Y255883D01*
Y254134D01*
X293307Y257633D02*
Y258799D01*
Y258216D01*
X289808D01*
X290391Y257633D01*
X289808Y262881D02*
X290391Y261715D01*
X291558Y260548D01*
X292724D01*
X293307Y261132D01*
Y262298D01*
X292724Y262881D01*
X292141D01*
X291558Y262298D01*
Y260548D01*
X129572Y255118D02*
X133071D01*
Y256868D01*
X132488Y257451D01*
X130155D01*
X129572Y256868D01*
Y255118D01*
X133071Y258617D02*
Y259783D01*
Y259200D01*
X129572D01*
X130155Y258617D01*
X129572Y261533D02*
Y263865D01*
X130155D01*
X132488Y261533D01*
X133071D01*
X267323Y291732D02*
X263824D01*
Y293482D01*
X264407Y294065D01*
X265573D01*
X266157Y293482D01*
Y291732D01*
Y292899D02*
X267323Y294065D01*
X264407Y295231D02*
X263824Y295814D01*
Y296981D01*
X264407Y297564D01*
X264990D01*
X265573Y296981D01*
Y296397D01*
Y296981D01*
X266157Y297564D01*
X266740D01*
X267323Y296981D01*
Y295814D01*
X266740Y295231D01*
X264407Y298730D02*
X263824Y299313D01*
Y300479D01*
X264407Y301063D01*
X266740D01*
X267323Y300479D01*
Y299313D01*
X266740Y298730D01*
X264407D01*
X257480Y291732D02*
X253981D01*
Y293482D01*
X254565Y294065D01*
X255731D01*
X256314Y293482D01*
Y291732D01*
Y292899D02*
X257480Y294065D01*
X254565Y295231D02*
X253981Y295814D01*
Y296981D01*
X254565Y297564D01*
X255148D01*
X255731Y296981D01*
Y296397D01*
Y296981D01*
X256314Y297564D01*
X256897D01*
X257480Y296981D01*
Y295814D01*
X256897Y295231D01*
X257480Y298730D02*
Y299896D01*
Y299313D01*
X253981D01*
X254565Y298730D01*
X109843Y291339D02*
X106344D01*
Y293088D01*
X106927Y293671D01*
X108093D01*
X108676Y293088D01*
Y291339D01*
Y292505D02*
X109843Y293671D01*
X106927Y294837D02*
X106344Y295421D01*
Y296587D01*
X106927Y297170D01*
X107510D01*
X108093Y296587D01*
Y296004D01*
Y296587D01*
X108676Y297170D01*
X109259D01*
X109843Y296587D01*
Y295421D01*
X109259Y294837D01*
X109843Y300669D02*
Y298336D01*
X107510Y300669D01*
X106927D01*
X106344Y300086D01*
Y298920D01*
X106927Y298336D01*
X100000Y291732D02*
X96501D01*
Y293482D01*
X97084Y294065D01*
X98251D01*
X98834Y293482D01*
Y291732D01*
Y292899D02*
X100000Y294065D01*
X97084Y295231D02*
X96501Y295814D01*
Y296981D01*
X97084Y297564D01*
X97667D01*
X98251Y296981D01*
Y296397D01*
Y296981D01*
X98834Y297564D01*
X99417D01*
X100000Y296981D01*
Y295814D01*
X99417Y295231D01*
X97084Y298730D02*
X96501Y299313D01*
Y300479D01*
X97084Y301063D01*
X97667D01*
X98251Y300479D01*
Y299896D01*
Y300479D01*
X98834Y301063D01*
X99417D01*
X100000Y300479D01*
Y299313D01*
X99417Y298730D01*
X287008Y290945D02*
X283509D01*
Y292694D01*
X284092Y293278D01*
X285258D01*
X285842Y292694D01*
Y290945D01*
Y292111D02*
X287008Y293278D01*
X284092Y294444D02*
X283509Y295027D01*
Y296193D01*
X284092Y296776D01*
X284675D01*
X285258Y296193D01*
Y295610D01*
Y296193D01*
X285842Y296776D01*
X286425D01*
X287008Y296193D01*
Y295027D01*
X286425Y294444D01*
X287008Y299692D02*
X283509D01*
X285258Y297943D01*
Y300275D01*
X129921Y291339D02*
X126422D01*
Y293088D01*
X127006Y293671D01*
X128172D01*
X128755Y293088D01*
Y291339D01*
Y292505D02*
X129921Y293671D01*
X127006Y294837D02*
X126422Y295421D01*
Y296587D01*
X127006Y297170D01*
X127589D01*
X128172Y296587D01*
Y296004D01*
Y296587D01*
X128755Y297170D01*
X129338D01*
X129921Y296587D01*
Y295421D01*
X129338Y294837D01*
X126422Y300669D02*
Y298336D01*
X128172D01*
X127589Y299503D01*
Y300086D01*
X128172Y300669D01*
X129338D01*
X129921Y300086D01*
Y298920D01*
X129338Y298336D01*
X277559Y291732D02*
X274060D01*
Y293482D01*
X274643Y294065D01*
X275810D01*
X276393Y293482D01*
Y291732D01*
Y292899D02*
X277559Y294065D01*
X274643Y295231D02*
X274060Y295814D01*
Y296981D01*
X274643Y297564D01*
X275226D01*
X275810Y296981D01*
Y296397D01*
Y296981D01*
X276393Y297564D01*
X276976D01*
X277559Y296981D01*
Y295814D01*
X276976Y295231D01*
X274060Y301063D02*
X274643Y299896D01*
X275810Y298730D01*
X276976D01*
X277559Y299313D01*
Y300479D01*
X276976Y301063D01*
X276393D01*
X275810Y300479D01*
Y298730D01*
X120079Y291339D02*
X116580D01*
Y293088D01*
X117163Y293671D01*
X118329D01*
X118912Y293088D01*
Y291339D01*
Y292505D02*
X120079Y293671D01*
X117163Y294837D02*
X116580Y295421D01*
Y296587D01*
X117163Y297170D01*
X117746D01*
X118329Y296587D01*
Y296004D01*
Y296587D01*
X118912Y297170D01*
X119496D01*
X120079Y296587D01*
Y295421D01*
X119496Y294837D01*
X116580Y298336D02*
Y300669D01*
X117163D01*
X119496Y298336D01*
X120079D01*
X226801Y331730D02*
X227384Y331147D01*
X228551D01*
X229134Y331730D01*
Y334063D01*
X228551Y334646D01*
X227384D01*
X226801Y334063D01*
X223886Y331147D02*
X225052D01*
X225635Y331730D01*
Y334063D01*
X225052Y334646D01*
X223886D01*
X223302Y334063D01*
Y331730D01*
X223886Y331147D01*
X222136Y334646D02*
Y331147D01*
X219804Y334646D01*
Y331147D01*
X216888Y334646D02*
Y331147D01*
X218637Y332896D01*
X216305D01*
X275620Y331730D02*
X276203Y331147D01*
X277370D01*
X277953Y331730D01*
Y334063D01*
X277370Y334646D01*
X276203D01*
X275620Y334063D01*
X272705Y331147D02*
X273871D01*
X274454Y331730D01*
Y334063D01*
X273871Y334646D01*
X272705D01*
X272121Y334063D01*
Y331730D01*
X272705Y331147D01*
X270955Y334646D02*
Y331147D01*
X268622Y334646D01*
Y331147D01*
X265124D02*
X267456D01*
Y332896D01*
X266290Y332313D01*
X265707D01*
X265124Y332896D01*
Y334063D01*
X265707Y334646D01*
X266873D01*
X267456Y334063D01*
X138159Y100357D02*
X137576Y100940D01*
X136410D01*
X135827Y100357D01*
Y98024D01*
X136410Y97441D01*
X137576D01*
X138159Y98024D01*
X141658Y97441D02*
X139326D01*
X141658Y99774D01*
Y100357D01*
X141075Y100940D01*
X139909D01*
X139326Y100357D01*
X142824D02*
X143408Y100940D01*
X144574D01*
X145157Y100357D01*
Y98024D01*
X144574Y97441D01*
X143408D01*
X142824Y98024D01*
Y100357D01*
X95472Y133420D02*
Y129921D01*
X97222D01*
X97805Y130504D01*
Y132837D01*
X97222Y133420D01*
X95472D01*
X98971Y129921D02*
X100138D01*
X99554D01*
Y133420D01*
X98971Y132837D01*
X101887D02*
X102470Y133420D01*
X103637D01*
X104220Y132837D01*
Y132254D01*
X103637Y131671D01*
X104220Y131088D01*
Y130504D01*
X103637Y129921D01*
X102470D01*
X101887Y130504D01*
Y131088D01*
X102470Y131671D01*
X101887Y132254D01*
Y132837D01*
X102470Y131671D02*
X103637D01*
X129921Y64961D02*
X126422D01*
Y66710D01*
X127006Y67293D01*
X128172D01*
X128755Y66710D01*
Y64961D01*
Y66127D02*
X129921Y67293D01*
X127006Y68459D02*
X126422Y69043D01*
Y70209D01*
X127006Y70792D01*
X127589D01*
X128172Y70209D01*
Y69626D01*
Y70209D01*
X128755Y70792D01*
X129338D01*
X129921Y70209D01*
Y69043D01*
X129338Y68459D01*
X127006Y71958D02*
X126422Y72541D01*
Y73708D01*
X127006Y74291D01*
X127589D01*
X128172Y73708D01*
X128755Y74291D01*
X129338D01*
X129921Y73708D01*
Y72541D01*
X129338Y71958D01*
X128755D01*
X128172Y72541D01*
X127589Y71958D01*
X127006D01*
X128172Y72541D02*
Y73708D01*
X135827Y91535D02*
Y95034D01*
X137576D01*
X138159Y94451D01*
Y93285D01*
X137576Y92702D01*
X135827D01*
X136993D02*
X138159Y91535D01*
X139326Y94451D02*
X139909Y95034D01*
X141075D01*
X141658Y94451D01*
Y93868D01*
X141075Y93285D01*
X140492D01*
X141075D01*
X141658Y92702D01*
Y92119D01*
X141075Y91535D01*
X139909D01*
X139326Y92119D01*
X142824D02*
X143408Y91535D01*
X144574D01*
X145157Y92119D01*
Y94451D01*
X144574Y95034D01*
X143408D01*
X142824Y94451D01*
Y93868D01*
X143408Y93285D01*
X145157D01*
X116142Y70866D02*
X112643D01*
Y72616D01*
X113226Y73199D01*
X114392D01*
X114975Y72616D01*
Y70866D01*
Y72032D02*
X116142Y73199D01*
Y76114D02*
X112643D01*
X114392Y74365D01*
Y76698D01*
X113226Y77864D02*
X112643Y78447D01*
Y79613D01*
X113226Y80196D01*
X115559D01*
X116142Y79613D01*
Y78447D01*
X115559Y77864D01*
X113226D01*
X145669Y166339D02*
Y169837D01*
X147419D01*
X148002Y169254D01*
Y168088D01*
X147419Y167505D01*
X145669D01*
X146836D02*
X148002Y166339D01*
X150918D02*
Y169837D01*
X149168Y168088D01*
X151501D01*
X152667Y166339D02*
X153833D01*
X153250D01*
Y169837D01*
X152667Y169254D01*
X106299Y196412D02*
X107466D01*
X106882D01*
Y192913D01*
X106299D01*
X107466D01*
X110964Y196412D02*
X109798D01*
X109215Y195829D01*
Y193497D01*
X109798Y192913D01*
X110964D01*
X111548Y193497D01*
Y195829D01*
X110964Y196412D01*
X118545Y195829D02*
X117962Y196412D01*
X116796D01*
X116213Y195829D01*
Y193497D01*
X116796Y192913D01*
X117962D01*
X118545Y193497D01*
X119711Y196412D02*
Y192913D01*
Y194080D01*
X122044Y196412D01*
X120295Y194663D01*
X122044Y192913D01*
X126709D02*
Y196412D01*
X128459D01*
X129042Y195829D01*
Y194663D01*
X128459Y194080D01*
X126709D01*
X127876D02*
X129042Y192913D01*
X132541Y196412D02*
X130208D01*
Y192913D01*
X132541D01*
X130208Y194663D02*
X131374D01*
X136040Y195829D02*
X135456Y196412D01*
X134290D01*
X133707Y195829D01*
Y195246D01*
X134290Y194663D01*
X135456D01*
X136040Y194080D01*
Y193497D01*
X135456Y192913D01*
X134290D01*
X133707Y193497D01*
X140705Y195829D02*
X141288Y196412D01*
X142454D01*
X143037Y195829D01*
Y195246D01*
X142454Y194663D01*
X141871D01*
X142454D01*
X143037Y194080D01*
Y193497D01*
X142454Y192913D01*
X141288D01*
X140705Y193497D01*
X150035Y195829D02*
X149452Y196412D01*
X148286D01*
X147703Y195829D01*
Y193497D01*
X148286Y192913D01*
X149452D01*
X150035Y193497D01*
Y194663D01*
X148869D01*
D76*
X31791Y151378D02*
G03*
X31791Y151378I-492J0D01*
G01*
X166142Y148622D02*
G03*
X166142Y148622I-492J0D01*
G01*
X274705Y254921D02*
G03*
X274705Y254921I-492J0D01*
G01*
X253051D02*
G03*
X253051Y254921I-492J0D01*
G01*
X225492Y254921D02*
G03*
X225492Y254921I-492J0D01*
G01*
X185728Y252165D02*
G03*
X185728Y252165I-492J0D01*
G01*
X205807Y254921D02*
G03*
X205807Y254921I-492J0D01*
G01*
X164075Y252165D02*
G03*
X164075Y252165I-492J0D01*
G01*
X107185Y125197D02*
G03*
X107185Y125197I-492J0D01*
G01*
X106988Y252165D02*
G03*
X106988Y252165I-492J0D01*
G01*
X126673D02*
G03*
X126673Y252165I-492J0D01*
G01*
X109744Y74803D02*
G03*
X109744Y74803I-492J0D01*
G01*
X216043D02*
G03*
X216043Y74803I-492J0D01*
G01*
D77*
X65374Y217067D02*
Y238248D01*
X75965D01*
Y217067D02*
Y238248D01*
X65374Y217067D02*
X75965D01*
X205906Y250000D02*
X212598D01*
X205906Y244488D02*
Y250000D01*
Y244488D02*
X219291D01*
Y250000D01*
X212598D02*
X219291D01*
X225590D02*
X232283D01*
X225590Y244488D02*
Y250000D01*
Y244488D02*
X238976D01*
Y250000D01*
X232283D02*
X238976D01*
X290354Y222441D02*
X290354Y210630D01*
X274606Y212598D02*
X278543Y208661D01*
X274606Y220473D02*
X278543Y224410D01*
X77854Y282972D02*
Y288189D01*
Y294783D02*
Y300000D01*
Y306594D02*
Y311811D01*
Y330217D02*
Y335433D01*
X268110Y147638D02*
Y157874D01*
X244488Y140551D02*
X267323D01*
X243701Y147638D02*
Y157874D01*
X244488Y164961D02*
X267323Y164961D01*
X268110Y112402D02*
Y122638D01*
X244488Y105315D02*
X267323D01*
X243701Y112402D02*
Y122638D01*
X244488Y129724D02*
X267323D01*
X120275Y172047D02*
Y178740D01*
X114764Y178740D02*
X120275Y178740D01*
X114764Y165354D02*
X114764Y178740D01*
X114764Y165354D02*
X120275Y165354D01*
Y172047D01*
X127362Y178740D02*
X127362Y172047D01*
X121850Y178740D02*
X127362D01*
X121850Y165354D02*
Y178740D01*
Y165354D02*
X127362Y165354D01*
X127362Y172047D01*
X78347Y183071D02*
X85039D01*
Y188583D01*
X71653D02*
X85039D01*
X71653Y183071D02*
Y188583D01*
Y183071D02*
X78347D01*
X112795Y172047D02*
Y178740D01*
X107283D02*
X112795D01*
X107283D02*
X107283Y165354D01*
X112795Y165354D01*
X112795Y172047D01*
X235039Y152756D02*
Y159449D01*
X229527D02*
X235039D01*
X229527Y146063D02*
Y159449D01*
Y146063D02*
X235039D01*
Y152756D01*
X235236Y56102D02*
Y89567D01*
X276575Y56102D02*
Y89567D01*
X268701Y48228D02*
X276575Y56102D01*
X235236D02*
X243110Y48228D01*
X260827Y89567D02*
X276575D01*
X235236D02*
X250984D01*
X260827Y48228D02*
X268701Y48228D01*
X243110Y48228D02*
X250984D01*
X215748Y55315D02*
Y62008D01*
Y55315D02*
X221260D01*
Y68701D01*
X215748D02*
X221260D01*
X215748Y62008D02*
Y68701D01*
X231496Y61221D02*
Y66732D01*
X223622Y61221D02*
Y66732D01*
X216142Y81890D02*
X222835D01*
Y87402D01*
X209449D02*
X222835D01*
X209449Y81890D02*
Y87402D01*
Y81890D02*
X216142D01*
X206299Y90551D02*
Y96063D01*
X198425Y90551D02*
Y96063D01*
X189370Y86614D02*
Y93307D01*
Y86614D02*
X194882Y86614D01*
Y100000D01*
X189370D02*
X194882D01*
X189370Y93307D02*
X189370Y100000D01*
X182283Y86614D02*
Y93307D01*
Y86614D02*
X187795D01*
Y100000D01*
X182283D02*
X187795D01*
X182283Y93307D02*
Y100000D01*
X131890Y56102D02*
Y89567D01*
X173228Y56102D02*
Y89567D01*
X165354Y48228D02*
X173228Y56102D01*
X131890D02*
X139764Y48228D01*
X157480Y89567D02*
X173228D01*
X131890D02*
X147638D01*
X157480Y48228D02*
X165354D01*
X139764D02*
X147638D01*
X109449Y55315D02*
Y62008D01*
Y55315D02*
X114961D01*
Y68701D01*
X109449D02*
X114961D01*
X109449Y62008D02*
Y68701D01*
X125000Y61221D02*
Y66732D01*
X117126Y61221D02*
Y66732D01*
X109252Y81890D02*
X115945D01*
Y87402D01*
X102559D02*
X115945D01*
X102559Y81890D02*
Y87402D01*
Y81890D02*
X109252D01*
X100000Y96063D02*
X100000Y90551D01*
X92126D02*
Y96063D01*
X82284Y86614D02*
Y93307D01*
Y86614D02*
X87795D01*
Y100000D01*
X82284D02*
X87795D01*
X82284Y93307D02*
Y100000D01*
X75590Y93307D02*
X75591Y86614D01*
X81102D01*
Y100000D01*
X75591D02*
X81102D01*
X75590Y93307D02*
X75591Y100000D01*
X165157Y156299D02*
X176969D01*
X165157Y148425D02*
X176969D01*
X186024Y129724D02*
X191535Y129724D01*
X186024Y137598D02*
X191535D01*
X204724Y137599D02*
X210236Y137599D01*
X204724Y129724D02*
X210236Y129724D01*
X235039Y118110D02*
Y124803D01*
X229528D02*
X235039D01*
X229528Y111417D02*
Y124803D01*
Y111417D02*
X235039D01*
Y118110D01*
X46063Y247244D02*
X57874D01*
X55905Y231496D02*
X59842Y235433D01*
X44094D02*
X48031Y231496D01*
X77854Y318406D02*
Y323622D01*
X141732Y127953D02*
X146653D01*
X141732Y139764D02*
X146653D01*
Y127953D02*
Y139764D01*
X141732Y141732D02*
X146653Y141732D01*
X141732Y153543D02*
X146653Y153543D01*
Y141732D02*
Y153543D01*
X175000Y158268D02*
X179921Y158268D01*
X175000Y170079D02*
X179921Y170079D01*
X179921Y158268D01*
X66535Y59646D02*
X66535Y91142D01*
X61024Y59646D02*
X66535Y59646D01*
X40157Y59646D02*
X40157Y91142D01*
X40157Y59646D02*
X45669Y59646D01*
X134350Y211098D02*
X134350Y200508D01*
X103169Y211098D02*
X134350D01*
X103169Y200508D02*
X103169Y211098D01*
X103169Y200508D02*
X134350D01*
X201772Y206693D02*
Y218504D01*
X209646Y206693D02*
Y218504D01*
X184055Y166929D02*
X211220D01*
X184055D02*
X184055Y161417D01*
X211220Y166929D02*
X211221Y161417D01*
X211220Y139764D02*
X211221Y145276D01*
X184055Y139764D02*
X184055Y145276D01*
X184055Y139764D02*
X211220D01*
X222638Y146063D02*
Y152756D01*
Y146063D02*
X228150D01*
X228150Y159449D01*
X222638Y159449D02*
X228150Y159449D01*
X222638Y152756D02*
Y159449D01*
X161024Y141535D02*
X161024Y134843D01*
X155512Y141535D02*
X161024D01*
X155512D02*
X155512Y128150D01*
X161024D01*
X161024Y134843D01*
X173031Y128543D02*
X179724Y128543D01*
Y134055D01*
X166339Y134055D02*
X179724Y134055D01*
X166339Y128543D02*
Y134055D01*
Y128543D02*
X173031Y128543D01*
X161024Y156299D02*
X161024Y149606D01*
X155512Y156299D02*
X161024D01*
X155512Y142913D02*
Y156299D01*
Y142913D02*
X161024Y142913D01*
X161024Y149606D01*
X75000Y247244D02*
Y253937D01*
Y247244D02*
X80512Y247244D01*
Y260630D01*
X75000D02*
X80512D01*
X75000Y253937D02*
X75000Y260630D01*
X68110Y247244D02*
Y253937D01*
Y247244D02*
X73622D01*
Y260630D01*
X68110Y260630D02*
X73622Y260630D01*
X68110Y253937D02*
X68110Y260630D01*
X222638Y111417D02*
Y118110D01*
Y111417D02*
X228150D01*
Y124803D01*
X222638D02*
X228150D01*
X222638Y118110D02*
Y124803D01*
X232677Y172638D02*
Y176181D01*
Y172638D02*
X268110Y172638D01*
Y176181D01*
X268110Y222244D02*
X268110Y218701D01*
X232677Y222244D02*
X268110D01*
X232677D02*
X232677Y218701D01*
X35433Y142717D02*
Y150591D01*
X33465Y142717D02*
X33465Y150591D01*
X33465Y142717D02*
X35433D01*
X33465Y150591D02*
X35433Y150591D01*
X173031Y135630D02*
X173031Y147441D01*
X169094Y135630D02*
Y147441D01*
Y135630D02*
X173031Y135630D01*
X169094Y147441D02*
X173031Y147441D01*
X25591Y195276D02*
X32283D01*
X25591Y189764D02*
Y195276D01*
Y189764D02*
X38976D01*
Y195276D01*
X32283D02*
X38976D01*
X43110Y160433D02*
Y167126D01*
X37598D02*
X43110D01*
X37598Y153740D02*
Y167126D01*
Y153740D02*
X43110D01*
Y160433D01*
X115157Y162992D02*
X126969Y162992D01*
X115157Y155118D02*
X126969D01*
X30118Y134843D02*
X41929D01*
X30118Y126969D02*
X41929D01*
X290551Y197244D02*
X290551Y190551D01*
X285039Y197244D02*
X290551Y197244D01*
X285039Y183858D02*
Y197244D01*
Y183858D02*
X290551D01*
X290551Y190551D01*
X282677Y197244D02*
X282677Y190551D01*
X277165Y197244D02*
X282677D01*
X277165Y183858D02*
Y197244D01*
Y183858D02*
X282677Y183858D01*
X282677Y190551D01*
X185236Y212598D02*
X185236Y205906D01*
X190748D01*
X190748Y219291D02*
X190748Y205906D01*
X185236Y219291D02*
X190748D01*
X185236Y212598D02*
X185236Y219291D01*
X71083Y169976D02*
Y198323D01*
X42736Y169976D02*
Y198323D01*
X71083D01*
X42736Y169976D02*
X71083D01*
X87402Y253937D02*
Y260630D01*
X81890D02*
X87402D01*
X81890Y247244D02*
X81890Y260630D01*
X81890Y247244D02*
X87402D01*
Y253937D01*
X198622Y212598D02*
Y219291D01*
X193110D02*
X198622D01*
X193110Y205906D02*
Y219291D01*
Y205906D02*
X198622D01*
Y212598D01*
X240945Y267717D02*
Y274409D01*
X235433Y267717D02*
X240945D01*
X235433D02*
Y281102D01*
X240945D01*
Y274409D02*
Y281102D01*
X177953Y267717D02*
Y274410D01*
X172441Y267717D02*
X177953D01*
X172441D02*
Y281102D01*
X177953D01*
Y274410D02*
Y281102D01*
X187795Y267717D02*
Y274410D01*
X182283Y267717D02*
X187795D01*
X182283D02*
Y281102D01*
X187795D01*
Y274410D02*
Y281102D01*
X158268Y267717D02*
Y274410D01*
X152756Y267717D02*
X158268Y267717D01*
X152756Y281102D02*
X152756Y267717D01*
X152756Y281102D02*
X158268Y281102D01*
Y274410D02*
Y281102D01*
X211417Y267717D02*
Y274409D01*
X205906Y267717D02*
X211417D01*
X205906D02*
Y281102D01*
X211417D01*
Y274409D02*
Y281102D01*
X130709Y274409D02*
Y281102D01*
X125197D02*
X130709D01*
X125197Y267717D02*
Y281102D01*
Y267717D02*
X130709D01*
Y274409D01*
X111024D02*
Y281102D01*
X105512D02*
X111024D01*
X105512Y267717D02*
Y281102D01*
Y267717D02*
X111024D01*
Y274409D01*
X101181D02*
Y281102D01*
X95669D02*
X101181D01*
X95669Y267717D02*
Y281102D01*
Y267717D02*
X101181D01*
Y274409D01*
X120866D02*
Y281102D01*
X115354D02*
X120866D01*
X115354Y267717D02*
Y281102D01*
Y267717D02*
X120866D01*
Y274409D01*
X231102Y267717D02*
Y274409D01*
X225590Y267717D02*
X231102D01*
X225590D02*
Y281102D01*
X231102D01*
Y274409D02*
Y281102D01*
X288189Y274410D02*
Y281102D01*
X282677D02*
X288189D01*
X282677Y267717D02*
Y281102D01*
Y267717D02*
X288189D01*
Y274410D01*
X284449Y261811D02*
X287598D01*
Y257874D02*
Y261811D01*
X275394D02*
X278543D01*
X275394Y257874D02*
Y261811D01*
X262795D02*
X265945D01*
Y257874D02*
Y261811D01*
X253740D02*
X256890D01*
X253740Y257874D02*
Y261811D01*
X253150Y250000D02*
X259842D01*
X253150Y244488D02*
Y250000D01*
Y244488D02*
X266535D01*
Y250000D01*
X259842D02*
X266535D01*
X274803D02*
X281496D01*
X274803Y244488D02*
Y250000D01*
Y244488D02*
X288189D01*
Y250000D01*
X281496D02*
X288189D01*
X278346Y274410D02*
Y281102D01*
X272835D02*
X278346D01*
X272835Y267717D02*
Y281102D01*
Y267717D02*
X278346D01*
Y274410D01*
X258661D02*
Y281102D01*
X253150D02*
X258661D01*
X253150Y267717D02*
Y281102D01*
Y267717D02*
X258661D01*
Y274410D01*
X268504D02*
Y281102D01*
X262992D02*
X268504D01*
X262992Y267717D02*
Y281102D01*
Y267717D02*
X268504D01*
Y274410D01*
X221260Y267717D02*
X221260Y274410D01*
X215748Y267717D02*
X221260D01*
X215748D02*
Y281102D01*
X221260D01*
X221260Y274410D01*
X168110Y267717D02*
Y274410D01*
X162598Y267717D02*
X168110D01*
X162598D02*
Y281102D01*
X168110D01*
X168110Y274410D01*
X226181Y257874D02*
Y261811D01*
X229331D01*
X238386Y257874D02*
Y261811D01*
X235236D02*
X238386D01*
X178347Y253346D02*
X182283D01*
X178347D02*
X178347Y256496D01*
X178347Y265551D02*
X182283D01*
X178347D02*
X178347Y262402D01*
X206496Y257874D02*
Y261811D01*
X209646Y261811D01*
X218701Y257874D02*
Y261811D01*
X215551D02*
X218701D01*
X156693Y253346D02*
X160630D01*
X156693D02*
Y256496D01*
Y265551D02*
X160630Y265551D01*
X156693Y262402D02*
Y265551D01*
X85827Y122047D02*
Y128740D01*
X91339D01*
Y115354D02*
Y128740D01*
X85827Y115354D02*
X91339D01*
X85827D02*
Y122047D01*
X75984D02*
Y128740D01*
X81496D01*
Y115354D02*
Y128740D01*
X75984Y115354D02*
X81496D01*
X75984D02*
Y122047D01*
X177362Y110236D02*
Y116929D01*
X182874D01*
Y103543D02*
Y116929D01*
X177362Y103543D02*
X182874D01*
X177362D02*
Y110236D01*
X169488D02*
Y116929D01*
X175000D01*
Y103543D02*
Y116929D01*
X169488Y103543D02*
X175000D01*
X169488D02*
Y110236D01*
X35827Y47225D02*
Y72854D01*
X35827Y118130D02*
X35827Y95492D01*
X-394Y118130D02*
X35827D01*
X-394D02*
X-394Y47225D01*
X35827Y47225D01*
X51535Y35827D02*
X74173D01*
X51535Y-394D02*
Y35827D01*
Y-394D02*
X137441D01*
Y35827D01*
X111811D02*
X137441D01*
X157835D02*
X180472Y35827D01*
X157835Y-394D02*
Y35827D01*
Y-394D02*
X243740Y-394D01*
Y35827D01*
X218110Y35827D02*
X243740D01*
X210827Y205906D02*
X210827Y212598D01*
X210827Y205906D02*
X216339Y205906D01*
Y219291D01*
X210827Y219291D02*
X216339Y219291D01*
X210827Y219291D02*
X210827Y212598D01*
X209646Y199016D02*
X216339Y199016D01*
X216339Y204528D01*
X202953Y204528D02*
X216339Y204528D01*
X202953Y199016D02*
Y204528D01*
Y199016D02*
X209646Y199016D01*
X217717Y212598D02*
X217717Y205906D01*
X223228Y205906D01*
Y219291D01*
X217717D02*
X223228D01*
X217717Y212598D02*
X217717Y219291D01*
X19685Y202756D02*
X26378Y202756D01*
X19685Y202756D02*
X19685Y197244D01*
X33071Y197244D01*
Y202756D01*
X26378Y202756D02*
X33071Y202756D01*
X37008Y216535D02*
X43701Y216535D01*
Y222047D01*
X30315D02*
X43701D01*
X30315Y216535D02*
Y222047D01*
Y216535D02*
X37008D01*
X44685Y153740D02*
Y160433D01*
Y153740D02*
X50197D01*
Y167126D01*
X44685D02*
X50197D01*
X44685Y160433D02*
Y167126D01*
X43701Y209449D02*
Y216142D01*
X38189D02*
X43701D01*
X38189Y202756D02*
Y216142D01*
Y202756D02*
X43701D01*
Y209449D01*
X64567Y153543D02*
Y160236D01*
Y153543D02*
X70079D01*
Y166929D01*
X64567D02*
X70079D01*
X64567Y160236D02*
Y166929D01*
X78366Y196945D02*
X85059D01*
Y202457D01*
X71673D02*
X85059D01*
X71673Y196945D02*
Y202457D01*
Y196945D02*
X78366D01*
X71260Y153543D02*
Y160236D01*
Y153543D02*
X76772D01*
Y166929D01*
X71260D02*
X76772D01*
X71260Y160236D02*
Y166929D01*
X77953Y153543D02*
Y160236D01*
Y153543D02*
X83465D01*
Y166929D01*
X77953D02*
X83465D01*
X77953Y160236D02*
Y166929D01*
X117323Y102165D02*
X124016D01*
X117323Y96653D02*
Y102165D01*
Y96653D02*
X130709D01*
Y102165D01*
X124016D02*
X130709D01*
X93307Y118307D02*
X96457D01*
X93307D02*
Y122244D01*
X102362Y118307D02*
X105512Y118307D01*
Y122244D01*
X130709Y82677D02*
Y89370D01*
X125197D02*
X130709D01*
X125197Y75984D02*
Y89370D01*
Y75984D02*
X130709D01*
Y82677D01*
X117323Y96260D02*
X124016D01*
X117323Y90748D02*
Y96260D01*
Y90748D02*
X130709D01*
Y96260D01*
X124016D02*
X130709D01*
X118307Y75787D02*
Y82480D01*
Y75787D02*
X123819D01*
Y89173D01*
X118307D02*
X123819D01*
X118307Y82480D02*
Y89173D01*
X147638Y154528D02*
Y161024D01*
X127953Y154528D02*
X147638D01*
X127953D02*
Y164370D01*
X147638D01*
Y161024D02*
Y164370D01*
X133110Y200508D02*
Y211098D01*
Y200508D02*
X154291D01*
Y211098D01*
X133110D02*
X154291D01*
X99606Y262402D02*
Y265551D01*
X103543D01*
X99606Y253346D02*
Y256496D01*
Y253346D02*
X103543D01*
X119291Y262402D02*
Y265551D01*
X123228D01*
X119291Y253346D02*
Y256496D01*
Y253346D02*
X123228D01*
X76575Y55512D02*
Y70079D01*
X107677Y55512D02*
Y70079D01*
X76575Y55512D02*
X107677D01*
X76575Y70079D02*
X107677D01*
X182874D02*
X213976D01*
X182874Y55512D02*
X213976D01*
Y70079D01*
X182874Y55512D02*
Y70079D01*
D78*
X23622Y134252D02*
Y138386D01*
Y152165D02*
Y156299D01*
X11614Y129528D02*
X17323D01*
X11614Y161024D02*
X17323Y161024D01*
X2362Y129528D02*
X2362Y130709D01*
X-2362Y130709D02*
X2362Y130709D01*
X-2362Y130709D02*
Y159843D01*
X2362Y159843D01*
X2362Y161024D01*
M02*
