G04 Layer_Color=32896*
%FSLAX25Y25*%
%MOIN*%
G70*
G01*
G75*
%ADD46C,0.01500*%
%ADD47C,0.01000*%
%ADD53C,0.00700*%
%ADD127C,0.01181*%
G36*
X147666Y195886D02*
X147851D01*
X148406Y195423D01*
X148962Y194867D01*
X150073Y193756D01*
X150629Y193201D01*
X150999Y192830D01*
X151277Y192553D01*
X151369Y192460D01*
X151925Y192923D01*
X152295Y193108D01*
X152573Y193201D01*
X153036D01*
X153221Y193108D01*
X153314D01*
X153499Y192923D01*
X154054Y192460D01*
X154795Y191719D01*
X155628Y190979D01*
X156462Y190145D01*
X157202Y189404D01*
X157665Y188942D01*
X157758Y188849D01*
X157851Y188756D01*
X157943Y188849D01*
X158221Y189127D01*
X158499Y189312D01*
X158591Y189404D01*
X159702Y190608D01*
X160628Y191534D01*
X161369Y192182D01*
X161832Y192645D01*
X162202Y192923D01*
X162388Y193016D01*
X162573Y193108D01*
X163221D01*
X163313Y193016D01*
X163869Y192553D01*
X164610Y191812D01*
X165628Y190886D01*
X166739Y189775D01*
X167943Y188571D01*
X169239Y187275D01*
X172017Y184590D01*
X173313Y183201D01*
X174609Y181997D01*
X175813Y180794D01*
X176831Y179775D01*
X177757Y178849D01*
X178406Y178201D01*
X178776Y177831D01*
X178961Y177646D01*
X179609Y177090D01*
X180072Y176627D01*
X180443Y176164D01*
X180628Y175794D01*
X180905Y175331D01*
Y175146D01*
Y174775D01*
X180165Y174035D01*
X179146Y172924D01*
X177943Y171627D01*
X176461Y170146D01*
X174795Y168479D01*
X173035Y166720D01*
X169424Y163016D01*
X167665Y161165D01*
X165998Y159498D01*
X164425Y157924D01*
X163036Y156535D01*
X161832Y155331D01*
X160906Y154405D01*
X160628Y154128D01*
X160351Y153850D01*
X160258Y153757D01*
X160165Y153665D01*
Y153572D01*
X160536Y152924D01*
X160813Y152368D01*
X160999Y151998D01*
X161091Y151720D01*
X161276Y151443D01*
Y151350D01*
Y150980D01*
X161184Y150702D01*
X160999Y150239D01*
X160721Y149683D01*
X160351Y148943D01*
X160073Y148295D01*
X159795Y147739D01*
X159610Y147369D01*
X159517Y147184D01*
Y146998D01*
X159610Y146721D01*
X159702Y146072D01*
X159795Y145424D01*
X159888Y145239D01*
Y145147D01*
X161091Y144221D01*
X162017Y143572D01*
X162573Y142924D01*
X163036Y142554D01*
X163313Y142184D01*
X163406Y141999D01*
X163499Y141813D01*
X163406Y140887D01*
X163221Y139962D01*
X163036Y138943D01*
X162665Y138017D01*
X162388Y137091D01*
X162202Y136443D01*
X162017Y135980D01*
X161925Y135795D01*
X161739Y135425D01*
X161369Y135147D01*
X160813Y134869D01*
X160165Y134684D01*
X159517Y134591D01*
X158962Y134499D01*
X158591Y134406D01*
X158406D01*
X157758Y134313D01*
X157202Y134128D01*
X156369Y133480D01*
X155814Y132832D01*
X155628Y132647D01*
Y132554D01*
Y131165D01*
X155536Y130054D01*
X155443Y129314D01*
X155351Y128758D01*
Y128388D01*
X155258Y128110D01*
X155166Y128017D01*
X153684Y127277D01*
X152388Y126721D01*
X151277Y126258D01*
X150351Y125980D01*
X149703Y125795D01*
X149147Y125703D01*
X148221D01*
X148036Y125795D01*
X147388Y126443D01*
X146832Y126999D01*
X146462Y127369D01*
X146184Y127554D01*
X145999Y127740D01*
X145906Y127832D01*
X145814Y128202D01*
X145443Y128480D01*
X144981Y128665D01*
X144518Y128851D01*
X143962Y128943D01*
X143592Y129036D01*
X143129D01*
X141925Y128295D01*
X141092Y127740D01*
X140351Y127369D01*
X139888Y127092D01*
X139610Y126906D01*
X139425Y126814D01*
X139147D01*
X138777Y126906D01*
X138222Y127092D01*
X137018Y127740D01*
X136462Y128017D01*
X135999Y128295D01*
X135629Y128480D01*
X135536Y128573D01*
X130814Y123851D01*
X129888Y122832D01*
X129055Y121999D01*
X128314Y121166D01*
X127666Y120518D01*
X127018Y119962D01*
X126555Y119499D01*
X125814Y118851D01*
X125259Y118388D01*
X124889Y118203D01*
X124703Y118110D01*
X124148Y118203D01*
X123685Y118481D01*
X123407Y118758D01*
X123314Y118851D01*
X110074Y131999D01*
X108870Y133110D01*
X107945Y134036D01*
X107297Y134684D01*
X106926Y135239D01*
X106648Y135517D01*
X106556Y135795D01*
X106463Y135888D01*
Y136258D01*
X106556Y136628D01*
X106834Y136999D01*
X107204Y137369D01*
X107297Y137462D01*
X112481Y142647D01*
X117296Y147554D01*
X121740Y152183D01*
X125907Y156350D01*
X129796Y160239D01*
X133314Y163850D01*
X136462Y167090D01*
X139333Y169961D01*
X141832Y172553D01*
X144055Y174775D01*
X145906Y176627D01*
X147480Y178201D01*
X148592Y179405D01*
X149518Y180331D01*
X149980Y180794D01*
X150166Y180979D01*
X150073Y181164D01*
X149703Y181442D01*
X149240Y181997D01*
X148684Y182460D01*
X148129Y183016D01*
X147666Y183479D01*
X147295Y183849D01*
X147203Y183942D01*
X146555Y184497D01*
X146092Y184960D01*
X145814Y185331D01*
X145536Y185608D01*
X145351Y186071D01*
Y186164D01*
X145443Y186627D01*
X145721Y187090D01*
X145999Y187460D01*
X146092Y187553D01*
Y187645D01*
X144981Y188756D01*
X144240Y189590D01*
X143684Y190238D01*
X143221Y190701D01*
X143036Y190979D01*
X142944Y191256D01*
X142851Y191349D01*
Y191719D01*
X143036Y191997D01*
X143407Y192553D01*
X143777Y192923D01*
X143869Y193108D01*
X143962D01*
X144888Y194034D01*
X145536Y194775D01*
X146184Y195238D01*
X146555Y195608D01*
X146925Y195793D01*
X147110Y195978D01*
X147295D01*
X147666Y195886D01*
D02*
G37*
%LPC*%
G36*
X162758Y189867D02*
X161554Y188664D01*
X160165Y187275D01*
X158591Y185701D01*
X156925Y184034D01*
X155166Y182275D01*
X153314Y180331D01*
X151369Y178386D01*
X149332Y176349D01*
X145073Y171998D01*
X140629Y167461D01*
X136092Y162924D01*
X131648Y158387D01*
X127296Y154035D01*
X123222Y149869D01*
X121370Y147924D01*
X119518Y146072D01*
X117852Y144406D01*
X116278Y142739D01*
X114796Y141258D01*
X113593Y139962D01*
X112389Y138850D01*
X111463Y137925D01*
X110722Y137091D01*
X110167Y136536D01*
X109796Y136165D01*
X109704Y136073D01*
Y135980D01*
X124611Y121351D01*
X126185Y122925D01*
X127481Y124314D01*
X128685Y125517D01*
X129703Y126536D01*
X130629Y127462D01*
X131277Y128110D01*
X131925Y128758D01*
X132388Y129221D01*
X132759Y129591D01*
X133036Y129869D01*
X133407Y130239D01*
X133592Y130332D01*
X132851Y131073D01*
X132388Y131721D01*
X132018Y132184D01*
X131740Y132647D01*
X131555Y132925D01*
X131462Y133110D01*
Y133202D01*
Y133573D01*
X131555Y133851D01*
X131648Y134128D01*
X132111Y134499D01*
X132573Y134684D01*
X132666Y134776D01*
X132759D01*
X133222Y134591D01*
X134518Y133202D01*
X135629Y132091D01*
X136647Y131258D01*
X137481Y130610D01*
X138129Y130147D01*
X138684Y129869D01*
X138962Y129777D01*
X139055Y129684D01*
X140073Y130332D01*
X140814Y130795D01*
X141462Y131165D01*
X141925Y131443D01*
X142296Y131628D01*
X142481Y131721D01*
X142666Y131814D01*
X143684Y131721D01*
X144425Y131628D01*
X144981Y131536D01*
X145443Y131443D01*
X145721D01*
X145906Y131351D01*
X145999D01*
X146277Y131258D01*
X146740Y130888D01*
X147295Y130425D01*
X147851Y129869D01*
X148314Y129314D01*
X148777Y128851D01*
X149055Y128480D01*
X149147Y128388D01*
X149610Y128480D01*
X150073Y128665D01*
X151277Y129036D01*
X151832Y129314D01*
X152295Y129499D01*
X152666Y129591D01*
X152758Y129684D01*
X152851Y129777D01*
Y130147D01*
X152943Y130610D01*
Y131258D01*
X153036Y131814D01*
Y132276D01*
Y132647D01*
Y132739D01*
X153129Y133295D01*
X153314Y133851D01*
X153962Y134869D01*
X154332Y135239D01*
X154702Y135610D01*
X154888Y135795D01*
X154980Y135888D01*
X155073Y136073D01*
X155166Y136258D01*
X155721Y136536D01*
X156462Y136813D01*
X157295Y136999D01*
X158221Y137091D01*
X158962Y137184D01*
X159517Y137276D01*
X159702D01*
X159888Y137832D01*
X160073Y138387D01*
X160443Y139684D01*
X160628Y140239D01*
X160721Y140702D01*
X160813Y140980D01*
Y141073D01*
X159702Y141906D01*
X158962Y142554D01*
X158406Y142924D01*
X158221Y143110D01*
X158036Y143202D01*
X157851Y143295D01*
X157573Y143758D01*
X157388Y144406D01*
X157110Y145239D01*
X156925Y145980D01*
X156832Y146628D01*
X156739Y147091D01*
Y147276D01*
Y147461D01*
X156832Y147739D01*
X157017Y148202D01*
X157295Y148758D01*
X157573Y149406D01*
X157943Y149961D01*
X158221Y150517D01*
X158406Y150887D01*
X158499Y150980D01*
Y151072D01*
X157943Y151813D01*
X157295Y152554D01*
X156832Y153202D01*
X156739Y153294D01*
X156647Y153387D01*
X155814Y154128D01*
X155166Y154683D01*
X154702Y155146D01*
X154332Y155517D01*
X154147Y155794D01*
X154054Y155980D01*
Y156165D01*
Y156350D01*
X154147Y156720D01*
X154332Y157091D01*
X154702Y157368D01*
X155073Y157554D01*
X155536D01*
X155906Y157368D01*
X156369Y157091D01*
X157295Y156442D01*
X157665Y156072D01*
X157943Y155794D01*
X158128Y155609D01*
X158221Y155517D01*
X158314Y155609D01*
X158499Y155794D01*
X158776Y156072D01*
X159147Y156442D01*
X160165Y157461D01*
X161462Y158665D01*
X162943Y160239D01*
X164610Y161813D01*
X166276Y163664D01*
X168128Y165424D01*
X169887Y167276D01*
X171646Y169035D01*
X173221Y170609D01*
X174702Y172090D01*
X175906Y173387D01*
X176831Y174312D01*
X177202Y174683D01*
X177480Y174960D01*
X177572Y175053D01*
X177665Y175146D01*
X175906Y176905D01*
X174239Y178571D01*
X172665Y180146D01*
X171276Y181534D01*
X169887Y182831D01*
X168684Y184034D01*
X167573Y185145D01*
X166554Y186164D01*
X165721Y186997D01*
X164887Y187738D01*
X164239Y188386D01*
X163684Y188942D01*
X163313Y189312D01*
X163036Y189682D01*
X162850Y189775D01*
X162758Y189867D01*
D02*
G37*
G36*
X147388Y192645D02*
X146092Y191534D01*
Y191442D01*
X146740Y190793D01*
X147295Y190330D01*
X147666Y189960D01*
X147851Y189682D01*
X148036Y189497D01*
X148129D01*
Y189404D01*
X148592Y189034D01*
X148869Y188756D01*
X149240Y188201D01*
X149425Y187830D01*
Y187738D01*
X149332Y187182D01*
X149055Y186719D01*
X148777Y186349D01*
X148684Y186257D01*
X149703Y185145D01*
X150536Y184405D01*
X151092Y183849D01*
X151462Y183386D01*
X151740Y183201D01*
X151925Y183108D01*
X152017Y183016D01*
X152110D01*
X152295Y183201D01*
X152758Y183571D01*
X153406Y184220D01*
X154054Y184868D01*
X154795Y185516D01*
X155351Y186164D01*
X155721Y186534D01*
X155906Y186719D01*
X152851Y189960D01*
X152388Y189497D01*
X152017Y189312D01*
X151832Y189219D01*
X151184D01*
X150814Y189404D01*
X150351Y189775D01*
X149703Y190330D01*
X149055Y190979D01*
X148406Y191534D01*
X147943Y192090D01*
X147480Y192460D01*
X147388Y192645D01*
D02*
G37*
%LPD*%
D46*
X21752Y71555D02*
X19419D01*
X20586D01*
Y78553D01*
X21752Y77387D01*
X11255Y71555D02*
X15921D01*
X11255Y76220D01*
Y77387D01*
X12422Y78553D01*
X14754D01*
X15921Y77387D01*
X8923Y78553D02*
Y73888D01*
X6590Y71555D01*
X4258Y73888D01*
Y78553D01*
X203150Y14665D02*
Y19331D01*
X200817Y21663D01*
X198484Y19331D01*
Y14665D01*
Y18164D01*
X203150D01*
X96260Y21368D02*
Y14370D01*
X92761D01*
X91595Y15536D01*
Y16703D01*
X92761Y17869D01*
X96260D01*
X92761D01*
X91595Y19035D01*
Y20201D01*
X92761Y21368D01*
X96260D01*
X18169Y92150D02*
X19336Y93317D01*
X21668D01*
X22835Y92150D01*
Y87485D01*
X21668Y86319D01*
X19336D01*
X18169Y87485D01*
Y89818D01*
X20502D01*
X15837Y86319D02*
Y93317D01*
X11172Y86319D01*
Y93317D01*
X8839D02*
Y86319D01*
X5340D01*
X4174Y87485D01*
Y92150D01*
X5340Y93317D01*
X8839D01*
D47*
X290937Y59661D02*
X288271D01*
X286939Y60994D01*
X288271Y62327D01*
X290937D01*
X286939Y66326D02*
Y63660D01*
X289604Y66326D01*
X290271D01*
X290937Y65659D01*
Y64327D01*
X290271Y63660D01*
X286939Y67659D02*
X287605D01*
Y68325D01*
X286939D01*
Y67659D01*
Y70991D02*
Y72324D01*
Y71658D01*
X290937D01*
X290271Y70991D01*
X286939Y86320D02*
Y87652D01*
Y86986D01*
X290937D01*
X290271Y86320D01*
X286939Y92318D02*
Y89652D01*
X289604Y92318D01*
X290271D01*
X290937Y91651D01*
Y90318D01*
X290271Y89652D01*
X288938Y93651D02*
Y96316D01*
X286939Y100315D02*
Y97649D01*
X289604Y100315D01*
X290271D01*
X290937Y99648D01*
Y98316D01*
X290271Y97649D01*
Y101648D02*
X290937Y102314D01*
Y103647D01*
X290271Y104314D01*
X287605D01*
X286939Y103647D01*
Y102314D01*
X287605Y101648D01*
X290271D01*
X286939Y108312D02*
Y105647D01*
X289604Y108312D01*
X290271D01*
X290937Y107646D01*
Y106313D01*
X290271Y105647D01*
X286939Y112311D02*
Y109645D01*
X289604Y112311D01*
X290271D01*
X290937Y111645D01*
Y110312D01*
X290271Y109645D01*
X283739Y59661D02*
X279740D01*
X281073D01*
X283739Y62327D01*
X281739Y60328D01*
X279740Y62327D01*
X282406Y63660D02*
X280407D01*
X279740Y64327D01*
X280407Y64993D01*
X279740Y65659D01*
X280407Y66326D01*
X282406D01*
Y68325D02*
Y69658D01*
X281739Y70325D01*
X279740D01*
Y68325D01*
X280407Y67659D01*
X281073Y68325D01*
Y70325D01*
X283739Y71658D02*
X279740D01*
X281739D01*
X282406Y72324D01*
Y73657D01*
X281739Y74323D01*
X279740D01*
Y76323D02*
Y77656D01*
X280407Y78322D01*
X281739D01*
X282406Y77656D01*
Y76323D01*
X281739Y75656D01*
X280407D01*
X279740Y76323D01*
Y80321D02*
Y81654D01*
X280407Y82321D01*
X281739D01*
X282406Y81654D01*
Y80321D01*
X281739Y79655D01*
X280407D01*
X279740Y80321D01*
Y86320D02*
X280407Y85653D01*
X279740Y84987D01*
Y84320D01*
X280407Y83654D01*
X281073D01*
X281739Y84320D01*
X282406Y83654D01*
X283072D01*
X283739Y84320D01*
Y84987D01*
X283072Y85653D01*
X282406D01*
X281739Y84987D01*
X281073Y85653D01*
X280407D01*
X281739Y86320D02*
X281073Y85653D01*
X281739Y84320D02*
Y84987D01*
X283739Y87652D02*
Y90318D01*
Y88985D01*
X279740D01*
X282406Y91651D02*
X280407D01*
X279740Y92318D01*
X280407Y92984D01*
X279740Y93651D01*
X280407Y94317D01*
X282406D01*
X279740Y95650D02*
Y96983D01*
Y96316D01*
X282406D01*
Y95650D01*
Y98982D02*
Y101648D01*
X279740Y98982D01*
Y101648D01*
X282406Y102981D02*
Y105647D01*
X279740Y102981D01*
Y105647D01*
X283072Y107646D02*
X282406D01*
Y106980D01*
Y108312D01*
Y107646D01*
X280407D01*
X279740Y108312D01*
Y112311D02*
Y110978D01*
X280407Y110312D01*
X281739D01*
X282406Y110978D01*
Y112311D01*
X281739Y112978D01*
X281073D01*
Y110312D01*
X282406Y114311D02*
X279740D01*
X281073D01*
X281739Y114977D01*
X282406Y115643D01*
Y116310D01*
D53*
X268988Y261206D02*
X269654Y261873D01*
X270987D01*
X271654Y261206D01*
Y260540D01*
X270987Y259873D01*
X269654D01*
X268988Y259207D01*
Y258541D01*
X269654Y257874D01*
X270987D01*
X271654Y258541D01*
X267655Y261873D02*
X264989D01*
X266322D01*
Y257874D01*
X261657Y261873D02*
X262990D01*
X263656Y261206D01*
Y258541D01*
X262990Y257874D01*
X261657D01*
X260990Y258541D01*
Y261206D01*
X261657Y261873D01*
X259657Y257874D02*
Y261873D01*
X257658D01*
X256992Y261206D01*
Y259873D01*
X257658Y259207D01*
X259657D01*
X248994Y261206D02*
X249661Y261873D01*
X250993D01*
X251660Y261206D01*
Y260540D01*
X250993Y259873D01*
X249661D01*
X248994Y259207D01*
Y258541D01*
X249661Y257874D01*
X250993D01*
X251660Y258541D01*
X247661Y261873D02*
Y257874D01*
X246328Y259207D01*
X244995Y257874D01*
Y261873D01*
X243663D02*
X242330D01*
X242996D01*
Y257874D01*
X243663D01*
X242330D01*
X240330Y261873D02*
X237665D01*
X238997D01*
Y257874D01*
X233666Y261206D02*
X234332Y261873D01*
X235665D01*
X236332Y261206D01*
Y258541D01*
X235665Y257874D01*
X234332D01*
X233666Y258541D01*
X232333Y261873D02*
Y257874D01*
Y259873D01*
X229667D01*
Y261873D01*
Y257874D01*
X281465Y273622D02*
Y277621D01*
X283465Y275621D01*
X280799D01*
X268803Y276954D02*
X269469Y277621D01*
X270802D01*
X271468Y276954D01*
Y274289D01*
X270802Y273622D01*
X269469D01*
X268803Y274289D01*
Y275621D01*
X270135D01*
X259472Y276954D02*
X258806Y277621D01*
X257473D01*
X256806Y276954D01*
Y276288D01*
X257473Y275621D01*
X258139D01*
X257473D01*
X256806Y274955D01*
Y274289D01*
X257473Y273622D01*
X258806D01*
X259472Y274289D01*
X234539Y273622D02*
X237205D01*
X234539Y276288D01*
Y276954D01*
X235205Y277621D01*
X236538D01*
X237205Y276954D01*
X222543D02*
X223209Y277621D01*
X224542D01*
X225209Y276954D01*
Y274289D01*
X224542Y273622D01*
X223209D01*
X222543Y274289D01*
Y275621D01*
X223876D01*
X213212Y273622D02*
X211880D01*
X212546D01*
Y277621D01*
X213212Y276954D01*
X152846Y261873D02*
X155512D01*
Y257874D01*
X152846D01*
X155512Y259873D02*
X154179D01*
X151513Y257874D02*
Y261873D01*
X148847Y257874D01*
Y261873D01*
X144849Y261206D02*
X145515Y261873D01*
X146848D01*
X147514Y261206D01*
Y258541D01*
X146848Y257874D01*
X145515D01*
X144849Y258541D01*
X141516Y261873D02*
X142849D01*
X143516Y261206D01*
Y258541D01*
X142849Y257874D01*
X141516D01*
X140850Y258541D01*
Y261206D01*
X141516Y261873D01*
X139517D02*
Y257874D01*
X137518D01*
X136851Y258541D01*
Y261206D01*
X137518Y261873D01*
X139517D01*
X132852D02*
X135518D01*
Y257874D01*
X132852D01*
X135518Y259873D02*
X134185D01*
X131520Y257874D02*
Y261873D01*
X129520D01*
X128854Y261206D01*
Y259873D01*
X129520Y259207D01*
X131520D01*
X130187D02*
X128854Y257874D01*
X184342Y276954D02*
X185009Y277621D01*
X186341D01*
X187008Y276954D01*
Y274289D01*
X186341Y273622D01*
X185009D01*
X184342Y274289D01*
Y275621D01*
X185675D01*
X179010Y277621D02*
Y273622D01*
X177011D01*
X176345Y274289D01*
Y274955D01*
X177011Y275621D01*
X179010D01*
X177011D01*
X176345Y276288D01*
Y276954D01*
X177011Y277621D01*
X179010D01*
X171013Y273622D02*
Y276288D01*
X169680Y277621D01*
X168347Y276288D01*
Y273622D01*
Y275621D01*
X171013D01*
X163016Y273622D02*
X161683D01*
X162349D01*
Y277621D01*
X163016Y276954D01*
X157018Y273622D02*
X159683D01*
X157018Y276288D01*
Y276954D01*
X157684Y277621D01*
X159017D01*
X159683Y276954D01*
X155685Y277621D02*
Y274955D01*
X154352Y273622D01*
X153019Y274955D01*
Y277621D01*
X127255Y276954D02*
X127922Y277621D01*
X129255D01*
X129921Y276954D01*
Y274289D01*
X129255Y273622D01*
X127922D01*
X127255Y274289D01*
Y275621D01*
X128588D01*
X121924Y277621D02*
Y273622D01*
X119924D01*
X119258Y274289D01*
Y274955D01*
X119924Y275621D01*
X121924D01*
X119924D01*
X119258Y276288D01*
Y276954D01*
X119924Y277621D01*
X121924D01*
X113926Y273622D02*
Y276288D01*
X112593Y277621D01*
X111261Y276288D01*
Y273622D01*
Y275621D01*
X113926D01*
X105929Y273622D02*
X104596D01*
X105263D01*
Y277621D01*
X105929Y276954D01*
X99931Y273622D02*
X102597D01*
X99931Y276288D01*
Y276954D01*
X100597Y277621D01*
X101930D01*
X102597Y276954D01*
X98598Y277621D02*
Y274955D01*
X97265Y273622D01*
X95932Y274955D01*
Y277621D01*
D127*
X289370Y265748D02*
Y279528D01*
X206693Y265748D02*
X289370D01*
X206693D02*
Y279528D01*
X90551Y265748D02*
Y279528D01*
Y265748D02*
X192913D01*
Y279528D01*
M02*
